Ubuntu-L.ufo
<glyph name="dollar" format="2">
	<unicode hex="0024"/>
	<advance width="564"/>
	<outline>
		<contour>
			<point x="314" y="-109" type="line"/>
			<point x="255" y="-109" type="line"/>
			<point x="255" y="20" type="line"/>
			<point x="187" y="21"/>
			<point x="97" y="48"/>
			<point x="75" y="61" type="qcurve"/>
			<point x="94" y="117" type="line"/>
			<point x="107" y="110"/>
			<point x="139" y="96"/>
			<point x="181" y="84"/>
			<point x="236" y="77"/>
			<point x="273" y="77" type="qcurve"/>
			<point x="312" y="77"/>
			<point x="367" y="93"/>
			<point x="402" y="120"/>
			<point x="417" y="158"/>
			<point x="417" y="179" type="qcurve"/>
			<point x="417" y="212"/>
			<point x="392" y="256"/>
			<point x="347" y="289"/>
			<point x="283" y="314"/>
			<point x="245" y="328" type="qcurve"/>
			<point x="218" y="338"/>
			<point x="162" y="363"/>
			<point x="117" y="400"/>
			<point x="89" y="453"/>
			<point x="89" y="490" type="qcurve"/>
			<point x="89" y="564"/>
			<point x="170" y="645"/>
			<point x="255" y="657" type="qcurve"/>
			<point x="255" y="776" type="line"/>
			<point x="314" y="776" type="line"/>
			<point x="314" y="660" type="line"/>
			<point x="361" y="659"/>
			<point x="432" y="642"/>
			<point x="456" y="632" type="qcurve"/>
			<point x="439" y="577" type="line"/>
			<point x="422" y="584"/>
			<point x="356" y="603"/>
			<point x="300" y="603" type="qcurve"/>
			<point x="158" y="603"/>
			<point x="158" y="500" type="qcurve"/>
			<point x="158" y="472"/>
			<point x="178" y="435"/>
			<point x="216" y="407"/>
			<point x="270" y="385"/>
			<point x="303" y="373" type="qcurve"/>
			<point x="339" y="359"/>
			<point x="406" y="330"/>
			<point x="457" y="288"/>
			<point x="487" y="228"/>
			<point x="487" y="185" type="qcurve"/>
			<point x="487" y="115"/>
			<point x="395" y="29"/>
			<point x="314" y="23" type="qcurve"/>
		</contour>
	</outline>
	<guideline y="-109"/>
</glyph>
<glyph name="percent" format="2">
	<unicode hex="0025"/>
	<advance width="831"/>
	<outline>
		<contour>
			<point x="359" y="529" type="curve"/>
			<point x="359" y="646"/>
			<point x="289" y="708"/>
			<point x="209" y="708" type="curve"/>
			<point x="129" y="708"/>
			<point x="59" y="646"/>
			<point x="59" y="529" type="curve" smooth="yes"/>
			<point x="59" y="412"/>
			<point x="129" y="350"/>
			<point x="209" y="350" type="curve" smooth="yes"/>
			<point x="289" y="350"/>
			<point x="359" y="412"/>
		</contour>
		<contour>
			<point x="300" y="529" type="curve"/>
			<point x="300" y="454"/>
			<point x="269" y="403"/>
			<point x="209" y="403" type="curve" smooth="yes"/>
			<point x="149" y="403"/>
			<point x="118" y="454"/>
			<point x="118" y="529" type="curve"/>
			<point x="118" y="604"/>
			<point x="149" y="655"/>
			<point x="209" y="655" type="curve" smooth="yes"/>
			<point x="269" y="655"/>
			<point x="300" y="604"/>
		</contour>
		<contour>
			<point x="472" y="164" type="curve"/>
			<point x="472" y="47"/>
			<point x="542" y="-15"/>
			<point x="622" y="-15" type="curve" smooth="yes"/>
			<point x="702" y="-15"/>
			<point x="772" y="47"/>
			<point x="772" y="164" type="curve" smooth="yes"/>
			<point x="772" y="281"/>
			<point x="702" y="343"/>
			<point x="622" y="343" type="curve" smooth="yes"/>
			<point x="542" y="343"/>
			<point x="472" y="281"/>
		</contour>
		<contour>
			<point x="531" y="164" type="curve"/>
			<point x="531" y="239"/>
			<point x="562" y="290"/>
			<point x="622" y="290" type="curve" smooth="yes"/>
			<point x="682" y="290"/>
			<point x="713" y="239"/>
			<point x="713" y="164" type="curve" smooth="yes"/>
			<point x="713" y="89"/>
			<point x="682" y="38"/>
			<point x="622" y="38" type="curve" smooth="yes"/>
			<point x="562" y="38"/>
			<point x="531" y="89"/>
		</contour>
		<contour>
			<point x="185" y="0" type="line"/>
			<point x="251" y="0" type="line"/>
			<point x="646" y="693" type="line"/>
			<point x="580" y="693" type="line"/>
		</contour>
	</outline>
</glyph>
<glyph name="ampersand" format="2">
	<unicode hex="0026"/>
	<advance width="648"/>
	<outline>
		<contour>
			<point x="486" y="178" type="line"/>
			<point x="507" y="213"/>
			<point x="533" y="296"/>
			<point x="538" y="338" type="qcurve"/>
			<point x="594" y="331" type="line"/>
			<point x="589" y="282"/>
			<point x="555" y="182"/>
			<point x="525" y="137" type="qcurve"/>
			<point x="562" y="99"/>
			<point x="621" y="31"/>
			<point x="638" y="0" type="qcurve"/>
			<point x="565" y="0" type="line"/>
			<point x="551" y="23"/>
			<point x="512" y="68"/>
			<point x="489" y="91" type="qcurve"/>
			<point x="447" y="46"/>
			<point x="336" y="-9"/>
			<point x="267" y="-9" type="qcurve"/>
			<point x="206" y="-9"/>
			<point x="123" y="26"/>
			<point x="72" y="81"/>
			<point x="50" y="147"/>
			<point x="50" y="179" type="qcurve"/>
			<point x="50" y="219"/>
			<point x="75" y="282"/>
			<point x="117" y="331"/>
			<point x="173" y="369"/>
			<point x="203" y="383" type="qcurve"/>
			<point x="159" y="424"/>
			<point x="124" y="502"/>
			<point x="124" y="542" type="qcurve"/>
			<point x="124" y="581"/>
			<point x="149" y="643"/>
			<point x="194" y="686"/>
			<point x="256" y="708"/>
			<point x="292" y="708" type="qcurve"/>
			<point x="329" y="708"/>
			<point x="389" y="685"/>
			<point x="429" y="646"/>
			<point x="451" y="592"/>
			<point x="451" y="561" type="qcurve"/>
			<point x="451" y="524"/>
			<point x="425" y="465"/>
			<point x="383" y="419"/>
			<point x="328" y="383"/>
			<point x="300" y="368" type="qcurve"/>
		</contour>
		<contour>
			<point x="267" y="48" type="qcurve"/>
			<point x="325" y="48"/>
			<point x="416" y="92"/>
			<point x="450" y="130" type="qcurve"/>
			<point x="240" y="345" type="line"/>
			<point x="220" y="335"/>
			<point x="177" y="309"/>
			<point x="142" y="270"/>
			<point x="120" y="216"/>
			<point x="120" y="179" type="qcurve"/>
			<point x="120" y="156"/>
			<point x="136" y="109"/>
			<point x="170" y="72"/>
			<point x="226" y="48"/>
		</contour>
		<contour>
			<point x="389" y="560" type="qcurve"/>
			<point x="389" y="599"/>
			<point x="336" y="652"/>
			<point x="294" y="652" type="qcurve"/>
			<point x="243" y="652"/>
			<point x="190" y="597"/>
			<point x="190" y="549" type="qcurve"/>
			<point x="190" y="514"/>
			<point x="221" y="445"/>
			<point x="265" y="405" type="qcurve"/>
			<point x="319" y="431"/>
			<point x="389" y="501"/>
		</contour>
	</outline>
</glyph>
<glyph name="parenleft" format="2">
	<unicode hex="0028"/>
	<advance width="310"/>
	<outline>
		<contour>
			<point x="83" y="299" type="curve" smooth="yes"/>
			<point x="83" y="107"/>
			<point x="153" y="-59"/>
			<point x="254" y="-185" type="curve"/>
			<point x="301" y="-153" type="line"/>
			<point x="196" y="-23"/>
			<point x="149" y="120"/>
			<point x="149" y="299" type="curve"/>
			<point x="149" y="478"/>
			<point x="196" y="621"/>
			<point x="301" y="751" type="curve"/>
			<point x="254" y="783" type="line"/>
			<point x="153" y="657"/>
			<point x="83" y="491"/>
		</contour>
	</outline>
	<guideline y="783"/>
</glyph>
<glyph name="hyphen" format="2">
	<unicode hex="002D"/>
	<advance width="282"/>
	<outline>
		<contour>
			<point x="28" y="321" type="line"/>
			<point x="254" y="321" type="line"/>
			<point x="254" y="258" type="line"/>
			<point x="28" y="258" type="line"/>
		</contour>
	</outline>
	<guideline y="289"/>
</glyph>
<glyph name="period" format="2">
	<unicode hex="002E"/>
	<advance width="246"/>
	<outline>
		<contour>
			<point x="178" y="43" type="curve" smooth="yes"/>
			<point x="178" y="73"/>
			<point x="157" y="98"/>
			<point x="123" y="98" type="curve" smooth="yes"/>
			<point x="89" y="98"/>
			<point x="68" y="73"/>
			<point x="68" y="43" type="curve" smooth="yes"/>
			<point x="68" y="13"/>
			<point x="89" y="-12"/>
			<point x="123" y="-12" type="curve" smooth="yes"/>
			<point x="157" y="-12"/>
			<point x="178" y="13"/>
		</contour>
	</outline>
</glyph>
<glyph name="slash" format="2">
	<unicode hex="002F"/>
	<advance width="359"/>
	<outline>
		<contour>
			<point x="43" y="-185" type="line"/>
			<point x="-23" y="-185" type="line"/>
			<point x="318" y="783" type="line"/>
			<point x="382" y="783" type="line"/>
		</contour>
	</outline>
</glyph>
<glyph name="one" format="2">
	<unicode hex="0031"/>
	<advance width="564"/>
	<outline>
		<contour>
			<point x="107" y="551" type="line"/>
			<point x="167" y="572"/>
			<point x="261" y="637"/>
			<point x="307" y="693" type="qcurve"/>
			<point x="353" y="693" type="line"/>
			<point x="353" y="0" type="line"/>
			<point x="288" y="0" type="line"/>
			<point x="288" y="594" type="line"/>
			<point x="277" y="582"/>
			<point x="242" y="556"/>
			<point x="198" y="531"/>
			<point x="150" y="508"/>
			<point x="126" y="501" type="qcurve"/>
		</contour>
	</outline>
</glyph>
<glyph name="two" format="2">
	<unicode hex="0032"/>
	<advance width="564"/>
	<outline>
		<contour>
			<point x="456" y="521" type="qcurve"/>
			<point x="456" y="482"/>
			<point x="428" y="413"/>
			<point x="381" y="349"/>
			<point x="321" y="289"/>
			<point x="290" y="259" type="qcurve"/>
			<point x="264" y="234"/>
			<point x="215" y="183"/>
			<point x="176" y="132"/>
			<point x="153" y="83"/>
			<point x="153" y="59" type="qcurve"/>
			<point x="153" y="57" type="line"/>
			<point x="480" y="57" type="line"/>
			<point x="480" y="0" type="line"/>
			<point x="81" y="0" type="line"/>
			<point x="81" y="2"/>
			<point x="80" y="13"/>
			<point x="80" y="24" type="qcurve"/>
			<point x="80" y="71"/>
			<point x="114" y="152"/>
			<point x="167" y="224"/>
			<point x="232" y="286"/>
			<point x="262" y="315" type="qcurve"/>
			<point x="287" y="339"/>
			<point x="332" y="384"/>
			<point x="366" y="432"/>
			<point x="386" y="486"/>
			<point x="386" y="518" type="qcurve"/>
			<point x="386" y="588"/>
			<point x="311" y="649"/>
			<point x="254" y="649" type="qcurve"/>
			<point x="222" y="649"/>
			<point x="172" y="633"/>
			<point x="135" y="612"/>
			<point x="109" y="590"/>
			<point x="103" y="584" type="qcurve"/>
			<point x="69" y="629" type="line"/>
			<point x="75" y="636"/>
			<point x="106" y="663"/>
			<point x="153" y="689"/>
			<point x="215" y="708"/>
			<point x="253" y="708" type="qcurve"/>
			<point x="354" y="708"/>
			<point x="456" y="609"/>
		</contour>
	</outline>
	<guideline x="74"/>
</glyph>
<glyph name="four" format="2">
	<unicode hex="0034"/>
	<advance width="564"/>
	<outline>
		<contour>
			<point x="50" y="188" type="line"/>
			<point x="364" y="188" type="line"/>
			<point x="364" y="0" type="line"/>
			<point x="428" y="0" type="line"/>
			<point x="428" y="188" type="line"/>
			<point x="514" y="188" type="line"/>
			<point x="514" y="241" type="line"/>
			<point x="428" y="241" type="line"/>
			<point x="428" y="693" type="line"/>
			<point x="360" y="693" type="line"/>
			<point x="229" y="561"/>
			<point x="98" y="355"/>
			<point x="50" y="228" type="curve"/>
		</contour>
		<contour>
			<point x="117" y="241" type="line"/>
			<point x="168" y="363"/>
			<point x="270" y="523"/>
			<point x="364" y="620" type="curve"/>
			<point x="364" y="241" type="line"/>
		</contour>
	</outline>
</glyph>
<glyph name="seven" format="2">
	<unicode hex="0037"/>
	<advance width="564"/>
	<outline>
		<contour>
			<point x="244" y="0" type="line"/>
			<point x="260" y="252"/>
			<point x="399" y="527"/>
			<point x="490" y="635" type="curve"/>
			<point x="490" y="693" type="line"/>
			<point x="69" y="693" type="line"/>
			<point x="69" y="633" type="line"/>
			<point x="423" y="633" type="line"/>
			<point x="319" y="517"/>
			<point x="190" y="222"/>
			<point x="175" y="0" type="curve"/>
		</contour>
	</outline>
</glyph>
<glyph name="at" format="2">
	<unicode hex="0040"/>
	<advance width="940"/>
	<outline>
		<contour>
			<point x="687" y="58" type="curve" smooth="yes"/>
			<point x="788" y="58"/>
			<point x="868" y="148"/>
			<point x="868" y="322" type="curve" smooth="yes"/>
			<point x="868" y="556"/>
			<point x="693" y="706"/>
			<point x="480" y="706" type="curve" smooth="yes"/>
			<point x="256" y="706"/>
			<point x="72" y="567"/>
			<point x="72" y="281" type="curve" smooth="yes"/>
			<point x="72" y="-15"/>
			<point x="262" y="-150"/>
			<point x="495" y="-150" type="curve" smooth="yes"/>
			<point x="556" y="-150"/>
			<point x="616" y="-140"/>
			<point x="638" y="-133" type="curve"/>
			<point x="631" y="-78" type="line"/>
			<point x="617" y="-83"/>
			<point x="572" y="-93"/>
			<point x="495" y="-93" type="curve" smooth="yes"/>
			<point x="293" y="-93"/>
			<point x="137" y="33"/>
			<point x="137" y="281" type="curve" smooth="yes"/>
			<point x="137" y="515"/>
			<point x="276" y="649"/>
			<point x="480" y="649" type="curve" smooth="yes"/>
			<point x="682" y="649"/>
			<point x="803" y="498"/>
			<point x="803" y="324" type="curve" smooth="yes"/>
			<point x="803" y="244"/>
			<point x="781" y="113"/>
			<point x="691" y="113" type="curve" smooth="yes"/>
			<point x="662" y="113"/>
			<point x="642" y="134"/>
			<point x="642" y="186" type="curve"/>
			<point x="642" y="479" type="line"/>
			<point x="613" y="491"/>
			<point x="558" y="505"/>
			<point x="495" y="505" type="curve" smooth="yes"/>
			<point x="356" y="505"/>
			<point x="278" y="406"/>
			<point x="278" y="280" type="curve" smooth="yes"/>
			<point x="278" y="128"/>
			<point x="368" y="57"/>
			<point x="490" y="57" type="curve" smooth="yes"/>
			<point x="539" y="57"/>
			<point x="583" y="77"/>
			<point x="607" y="93" type="curve"/>
			<point x="619" y="76"/>
			<point x="645" y="58"/>
		</contour>
		<contour>
			<point x="486" y="111" type="curve" smooth="yes"/>
			<point x="408" y="111"/>
			<point x="345" y="163"/>
			<point x="345" y="281" type="curve" smooth="yes"/>
			<point x="345" y="380"/>
			<point x="400" y="451"/>
			<point x="502" y="451" type="curve" smooth="yes"/>
			<point x="544" y="451"/>
			<point x="567" y="445"/>
			<point x="578" y="442" type="curve"/>
			<point x="578" y="188" type="line"/>
			<point x="578" y="174"/>
			<point x="580" y="149"/>
			<point x="585" y="136" type="curve"/>
			<point x="554" y="118"/>
			<point x="532" y="111"/>
		</contour>
	</outline>
</glyph>
<glyph name="A" format="2">
	<unicode hex="0041"/>
	<advance width="641"/>
	<outline>
		<contour>
			<point x="556" y="0" type="curve"/>
			<point x="631" y="0" type="line"/>
			<point x="523" y="289"/>
			<point x="448" y="489"/>
			<point x="350" y="693" type="curve"/>
			<point x="290" y="693" type="line"/>
			<point x="192" y="489"/>
			<point x="117" y="289"/>
			<point x="10" y="0" type="curve"/>
			<point x="81" y="0" type="line"/>
			<point x="105" y="68"/>
			<point x="128" y="130"/>
			<point x="150" y="190" type="curve"/>
			<point x="487" y="190" type="line"/>
			<point x="508" y="130"/>
			<point x="531" y="68"/>
		</contour>
		<contour>
			<point x="318" y="615" type="curve"/>
			<point x="369" y="501"/>
			<point x="415" y="384"/>
			<point x="466" y="248" type="curve"/>
			<point x="171" y="248" type="line"/>
			<point x="221" y="384"/>
			<point x="267" y="501"/>
		</contour>
	</outline>
</glyph>
<glyph name="M" format="2">
	<unicode hex="004D"/>
	<advance width="865"/>
	<outline>
		<contour>
			<point x="462" y="100" type="line"/>
			<point x="503" y="199"/>
			<point x="657" y="523"/>
			<point x="689" y="579" type="curve"/>
			<point x="706" y="413"/>
			<point x="715" y="213"/>
			<point x="723" y="0" type="curve"/>
			<point x="792" y="0" type="line"/>
			<point x="780" y="250"/>
			<point x="766" y="484"/>
			<point x="743" y="693" type="curve"/>
			<point x="686" y="693" type="line"/>
			<point x="606" y="561"/>
			<point x="499" y="325"/>
			<point x="434" y="179" type="curve"/>
			<point x="369" y="325"/>
			<point x="262" y="561"/>
			<point x="182" y="693" type="curve"/>
			<point x="122" y="693" type="line"/>
			<point x="99" y="484"/>
			<point x="85" y="250"/>
			<point x="73" y="0" type="curve"/>
			<point x="140" y="0" type="line"/>
			<point x="148" y="213"/>
			<point x="157" y="413"/>
			<point x="174" y="579" type="curve"/>
			<point x="206" y="523"/>
			<point x="360" y="199"/>
			<point x="401" y="100" type="curve"/>
		</contour>
	</outline>
</glyph>
<glyph name="R" format="2">
	<unicode hex="0052"/>
	<advance width="618"/>
	<outline>
		<contour>
			<point x="552" y="485" type="curve" smooth="yes"/>
			<point x="552" y="625"/>
			<point x="453" y="699"/>
			<point x="264" y="699" type="curve" smooth="yes"/>
			<point x="209" y="699"/>
			<point x="138" y="693"/>
			<point x="90" y="680" type="curve"/>
			<point x="90" y="0" type="line"/>
			<point x="158" y="0" type="line"/>
			<point x="158" y="280" type="line"/>
			<point x="270" y="280" type="line" smooth="yes"/>
			<point x="292" y="280"/>
			<point x="313" y="281"/>
			<point x="334" y="283" type="curve"/>
			<point x="383" y="220"/>
			<point x="466" y="106"/>
			<point x="521" y="0" type="curve"/>
			<point x="594" y="0" type="line"/>
			<point x="545" y="106"/>
			<point x="447" y="244"/>
			<point x="403" y="297" type="curve"/>
			<point x="492" y="323"/>
			<point x="552" y="382"/>
		</contour>
		<contour>
			<point x="272" y="640" type="curve" smooth="yes"/>
			<point x="378" y="640"/>
			<point x="481" y="610"/>
			<point x="481" y="486" type="curve" smooth="yes"/>
			<point x="481" y="354"/>
			<point x="378" y="338"/>
			<point x="252" y="338" type="curve" smooth="yes"/>
			<point x="158" y="338" type="line"/>
			<point x="158" y="633" type="line"/>
			<point x="183" y="636"/>
			<point x="222" y="640"/>
		</contour>
	</outline>
</glyph>
<glyph name="T" format="2">
	<unicode hex="0054"/>
	<advance width="548"/>
	<outline>
		<contour>
			<point x="18" y="693" type="line"/>
			<point x="18" y="634" type="line"/>
			<point x="240" y="634" type="line"/>
			<point x="240" y="0" type="line"/>
			<point x="308" y="0" type="line"/>
			<point x="308" y="634" type="line"/>
			<point x="530" y="634" type="line"/>
			<point x="530" y="693" type="line"/>
		</contour>
	</outline>
</glyph>
<glyph name="bracketleft" format="2">
	<unicode hex="005B"/>
	<advance width="310"/>
	<outline>
		<contour>
			<point x="100" y="-185" type="line"/>
			<point x="302" y="-185" type="line"/>
			<point x="302" y="-135" type="line"/>
			<point x="162" y="-135" type="line"/>
			<point x="162" y="733" type="line"/>
			<point x="302" y="733" type="line"/>
			<point x="302" y="783" type="line"/>
			<point x="100" y="783" type="line"/>
		</contour>
	</outline>
</glyph>
<glyph name="asciicircum" format="2">
	<unicode hex="005E"/>
	<advance width="564"/>
	<outline>
		<contour>
			<point x="314" y="693" type="line"/>
			<point x="250" y="693" type="line"/>
			<point x="62" y="356" type="line"/>
			<point x="111" y="330" type="line"/>
			<point x="282" y="638" type="line"/>
			<point x="453" y="330" type="line"/>
			<point x="502" y="356" type="line"/>
		</contour>
	</outline>
	<guideline x="282"/>
</glyph>
<glyph name="a" format="2">
	<unicode hex="0061"/>
	<advance width="509"/>
	<outline>
		<contour>
			<point x="249" y="47" type="curve" smooth="yes"/>
			<point x="167" y="47"/>
			<point x="115" y="73"/>
			<point x="115" y="151" type="curve" smooth="yes"/>
			<point x="115" y="239"/>
			<point x="199" y="254"/>
			<point x="263" y="254" type="curve" smooth="yes"/>
			<point x="318" y="254"/>
			<point x="350" y="244"/>
			<point x="364" y="238" type="curve"/>
			<point x="364" y="56" type="line"/>
			<point x="337" y="51"/>
			<point x="299" y="47"/>
		</contour>
		<contour>
			<point x="243" y="529" type="curve" smooth="yes"/>
			<point x="177" y="529"/>
			<point x="128" y="518"/>
			<point x="105" y="507" type="curve"/>
			<point x="114" y="450" type="line"/>
			<point x="131" y="457"/>
			<point x="164" y="471"/>
			<point x="240" y="471" type="curve" smooth="yes"/>
			<point x="348" y="471"/>
			<point x="364" y="398"/>
			<point x="364" y="327" type="curve" smooth="yes"/>
			<point x="364" y="295" type="line"/>
			<point x="354" y="300"/>
			<point x="302" y="310"/>
			<point x="265" y="310" type="curve" smooth="yes"/>
			<point x="139" y="310"/>
			<point x="48" y="263"/>
			<point x="48" y="151" type="curve" smooth="yes"/>
			<point x="48" y="34"/>
			<point x="130" y="-11"/>
			<point x="238" y="-11" type="curve" smooth="yes"/>
			<point x="324" y="-11"/>
			<point x="403" y="5"/>
			<point x="429" y="12" type="curve"/>
			<point x="429" y="338" type="line" smooth="yes"/>
			<point x="429" y="448"/>
			<point x="380" y="529"/>
		</contour>
	</outline>
</glyph>
<glyph name="d" format="2">
	<unicode hex="0064"/>
	<advance width="583"/>
	<outline>
		<contour>
			<point x="497" y="16" type="line"/>
			<point x="468" y="6"/>
			<point x="378" y="-12"/>
			<point x="309" y="-12" type="qcurve"/>
			<point x="252" y="-12"/>
			<point x="159" y="25"/>
			<point x="92" y="95"/>
			<point x="55" y="195"/>
			<point x="55" y="258" type="qcurve"/>
			<point x="55" y="317"/>
			<point x="86" y="416"/>
			<point x="146" y="488"/>
			<point x="233" y="528"/>
			<point x="289" y="528" type="qcurve"/>
			<point x="340" y="528"/>
			<point x="415" y="499"/>
			<point x="432" y="486" type="qcurve"/>
			<point x="432" y="764" type="line"/>
			<point x="497" y="776" type="line"/>
		</contour>
		<contour>
			<point x="432" y="423" type="line"/>
			<point x="423" y="430"/>
			<point x="396" y="446"/>
			<point x="360" y="460"/>
			<point x="318" y="469"/>
			<point x="295" y="469" type="qcurve"/>
			<point x="247" y="469"/>
			<point x="182" y="435"/>
			<point x="142" y="378"/>
			<point x="124" y="301"/>
			<point x="124" y="258" type="qcurve"/>
			<point x="124" y="156"/>
			<point x="226" y="47"/>
			<point x="310" y="47" type="qcurve"/>
			<point x="358" y="47"/>
			<point x="417" y="56"/>
			<point x="432" y="61" type="qcurve"/>
		</contour>
	</outline>
</glyph>
<glyph name="e" format="2">
	<unicode hex="0065"/>
	<advance width="548"/>
	<outline>
		<contour>
			<point x="55" y="259" type="curve" smooth="yes"/>
			<point x="55" y="102"/>
			<point x="128" y="-11"/>
			<point x="309" y="-11" type="curve" smooth="yes"/>
			<point x="378" y="-11"/>
			<point x="434" y="9"/>
			<point x="452" y="19" type="curve"/>
			<point x="440" y="75" type="line"/>
			<point x="422" y="66"/>
			<point x="381" y="48"/>
			<point x="311" y="48" type="curve" smooth="yes"/>
			<point x="184" y="48"/>
			<point x="128" y="119"/>
			<point x="124" y="245" type="curve"/>
			<point x="487" y="245" type="line"/>
			<point x="488" y="254"/>
			<point x="489" y="266"/>
			<point x="489" y="276" type="curve" smooth="yes"/>
			<point x="489" y="448"/>
			<point x="408" y="529"/>
			<point x="281" y="529" type="curve" smooth="yes"/>
			<point x="167" y="529"/>
			<point x="55" y="440"/>
		</contour>
		<contour>
			<point x="126" y="300" type="line"/>
			<point x="131" y="390"/>
			<point x="190" y="471"/>
			<point x="282" y="471" type="curve" smooth="yes"/>
			<point x="369" y="471"/>
			<point x="420" y="408"/>
			<point x="422" y="300" type="curve"/>
		</contour>
	</outline>
	<guideline x="436"/>
	<guideline x="537"/>
</glyph>
<glyph name="f" format="2">
	<unicode hex="0066"/>
	<advance width="376"/>
	<outline>
		<contour>
			<point x="276" y="776" type="curve" smooth="yes"/>
			<point x="147" y="776"/>
			<point x="86" y="707"/>
			<point x="86" y="573" type="curve" smooth="yes"/>
			<point x="86" y="0" type="line"/>
			<point x="151" y="0" type="line"/>
			<point x="151" y="462" type="line"/>
			<point x="359" y="462" type="line"/>
			<point x="359" y="517" type="line"/>
			<point x="151" y="517" type="line"/>
			<point x="151" y="571" type="line"/>
			<point x="151" y="673"/>
			<point x="187" y="718"/>
			<point x="279" y="718" type="curve" smooth="yes"/>
			<point x="323" y="718"/>
			<point x="352" y="709"/>
			<point x="366" y="702" type="curve"/>
			<point x="379" y="758" type="line"/>
			<point x="368" y="765"/>
			<point x="331" y="776"/>
		</contour>
	</outline>
	<guideline x="403"/>
</glyph>
<glyph name="l" format="2">
	<unicode hex="006C"/>
	<advance width="255"/>
	<outline>
		<contour>
			<point x="226" y="45" type="line"/>
			<point x="173" y="54"/>
			<point x="150" y="61"/>
			<point x="150" y="126" type="curve" smooth="yes"/>
			<point x="150" y="776" type="line"/>
			<point x="85" y="764" type="line"/>
			<point x="85" y="124" type="line" smooth="yes"/>
			<point x="85" y="26"/>
			<point x="130" y="-5"/>
			<point x="217" y="-9" type="curve"/>
		</contour>
	</outline>
</glyph>
<glyph name="m" format="2">
	<unicode hex="006D"/>
	<advance width="863"/>
	<outline>
		<contour>
			<point x="86" y="0" type="line"/>
			<point x="151" y="0" type="line"/>
			<point x="151" y="454" type="line"/>
			<point x="163" y="459"/>
			<point x="210" y="468"/>
			<point x="272" y="468" type="curve" smooth="yes"/>
			<point x="383" y="468"/>
			<point x="402" y="403"/>
			<point x="402" y="268" type="curve" smooth="yes"/>
			<point x="402" y="0" type="line"/>
			<point x="467" y="0" type="line"/>
			<point x="467" y="294" type="line" smooth="yes"/>
			<point x="467" y="342"/>
			<point x="461" y="387"/>
			<point x="449" y="421" type="curve"/>
			<point x="463" y="433"/>
			<point x="511" y="468"/>
			<point x="592" y="468" type="curve" smooth="yes"/>
			<point x="699" y="468"/>
			<point x="718" y="403"/>
			<point x="718" y="268" type="curve"/>
			<point x="718" y="0" type="line"/>
			<point x="783" y="0" type="line"/>
			<point x="783" y="289" type="line" smooth="yes"/>
			<point x="783" y="428"/>
			<point x="755" y="527"/>
			<point x="597" y="527" type="curve" smooth="yes"/>
			<point x="502" y="527"/>
			<point x="438" y="482"/>
			<point x="424" y="470" type="curve"/>
			<point x="395" y="508"/>
			<point x="346" y="527"/>
			<point x="282" y="527" type="curve" smooth="yes"/>
			<point x="184" y="527"/>
			<point x="125" y="510"/>
			<point x="86" y="499" type="curve"/>
		</contour>
	</outline>
</glyph>
<glyph name="q" format="2">
	<unicode hex="0071"/>
	<advance width="583"/>
	<outline>
		<contour>
			<point x="432" y="454" type="line"/>
			<point x="417" y="459"/>
			<point x="358" y="468"/>
			<point x="310" y="468" type="qcurve"/>
			<point x="226" y="468"/>
			<point x="124" y="359"/>
			<point x="124" y="257" type="qcurve"/>
			<point x="124" y="214"/>
			<point x="142" y="137"/>
			<point x="182" y="80"/>
			<point x="247" y="47"/>
			<point x="295" y="47" type="qcurve"/>
			<point x="318" y="47"/>
			<point x="360" y="56"/>
			<point x="396" y="70"/>
			<point x="423" y="86"/>
			<point x="432" y="93" type="qcurve"/>
		</contour>
		<contour>
			<point x="432" y="30" type="line"/>
			<point x="415" y="17"/>
			<point x="340" y="-12"/>
			<point x="289" y="-12" type="qcurve"/>
			<point x="233" y="-12"/>
			<point x="146" y="28"/>
			<point x="86" y="99"/>
			<point x="55" y="198"/>
			<point x="55" y="257" type="qcurve"/>
			<point x="55" y="320"/>
			<point x="92" y="420"/>
			<point x="159" y="490"/>
			<point x="252" y="527"/>
			<point x="309" y="527" type="qcurve"/>
			<point x="378" y="527"/>
			<point x="468" y="509"/>
			<point x="497" y="499" type="qcurve"/>
			<point x="497" y="-185" type="line"/>
			<point x="432" y="-185" type="line"/>
		</contour>
	</outline>
</glyph>
<glyph name="t" format="2">
	<unicode hex="0074"/>
	<advance width="387"/>
	<outline>
		<contour>
			<point x="147" y="681" type="line"/>
			<point x="82" y="669" type="line"/>
			<point x="82" y="193" type="line" smooth="yes"/>
			<point x="82" y="55"/>
			<point x="121" y="-11"/>
			<point x="250" y="-11" type="curve" smooth="yes"/>
			<point x="305" y="-11"/>
			<point x="356" y="9"/>
			<point x="375" y="21" type="curve"/>
			<point x="359" y="75" type="line"/>
			<point x="340" y="65"/>
			<point x="308" y="48"/>
			<point x="254" y="48" type="curve" smooth="yes"/>
			<point x="189" y="48"/>
			<point x="147" y="69"/>
			<point x="147" y="187" type="curve" smooth="yes"/>
			<point x="147" y="462" type="line"/>
			<point x="353" y="462" type="line"/>
			<point x="353" y="517" type="line"/>
			<point x="147" y="517" type="line"/>
		</contour>
	</outline>
	<guideline x="383"/>
	<guideline y="472"/>
</glyph>
<glyph name="u" format="2">
	<unicode hex="0075"/>
	<advance width="569"/>
	<outline>
		<contour>
			<point x="483" y="517" type="line"/>
			<point x="418" y="517" type="line"/>
			<point x="418" y="63" type="line"/>
			<point x="406" y="58"/>
			<point x="356" y="49"/>
			<point x="295" y="49" type="curve" smooth="yes"/>
			<point x="185" y="49"/>
			<point x="145" y="102"/>
			<point x="145" y="248" type="curve" smooth="yes"/>
			<point x="145" y="517" type="line"/>
			<point x="80" y="517" type="line"/>
			<point x="80" y="227" type="line" smooth="yes"/>
			<point x="80" y="85"/>
			<point x="131" y="-10"/>
			<point x="285" y="-10" type="curve" smooth="yes"/>
			<point x="379" y="-10"/>
			<point x="444" y="7"/>
			<point x="483" y="18" type="curve"/>
		</contour>
	</outline>
</glyph>
<glyph name="w" format="2">
	<unicode hex="0077"/>
	<advance width="775"/>
	<outline>
		<contour>
			<point x="363" y="517" type="line"/>
			<point x="334" y="385"/>
			<point x="282" y="207"/>
			<point x="230" y="74" type="curve"/>
			<point x="184" y="175"/>
			<point x="122" y="377"/>
			<point x="92" y="517" type="curve"/>
			<point x="23" y="517" type="line"/>
			<point x="71" y="315"/>
			<point x="128" y="150"/>
			<point x="195" y="0" type="curve"/>
			<point x="257" y="0" type="line"/>
			<point x="296" y="93"/>
			<point x="349" y="236"/>
			<point x="388" y="387" type="curve"/>
			<point x="427" y="236"/>
			<point x="480" y="93"/>
			<point x="519" y="0" type="curve"/>
			<point x="580" y="0" type="line"/>
			<point x="648" y="150"/>
			<point x="704" y="315"/>
			<point x="752" y="517" type="curve"/>
			<point x="688" y="517" type="line"/>
			<point x="658" y="377"/>
			<point x="596" y="175"/>
			<point x="551" y="73" type="curve"/>
			<point x="499" y="206"/>
			<point x="444" y="385"/>
			<point x="419" y="517" type="curve"/>
		</contour>
	</outline>
</glyph>
<glyph name="y" format="2">
	<unicode hex="0079"/>
	<advance width="474"/>
	<outline>
		<contour>
			<point x="227" y="-11" type="qcurve"/>
			<point x="194" y="50"/>
			<point x="133" y="182"/>
			<point x="80" y="317"/>
			<point x="36" y="452"/>
			<point x="20" y="517" type="qcurve"/>
			<point x="89" y="517" type="line"/>
			<point x="100" y="469"/>
			<point x="134" y="358"/>
			<point x="177" y="240"/>
			<point x="229" y="116"/>
			<point x="259" y="56" type="qcurve"/>
			<point x="281" y="118"/>
			<point x="315" y="228"/>
			<point x="344" y="337"/>
			<point x="371" y="451"/>
			<point x="386" y="517" type="qcurve"/>
			<point x="451" y="517" type="line"/>
			<point x="419" y="372"/>
			<point x="337" y="98"/>
			<point x="289" y="-16" type="qcurve"/>
			<point x="270" y="-61"/>
			<point x="230" y="-126"/>
			<point x="181" y="-168"/>
			<point x="116" y="-188"/>
			<point x="72" y="-188" type="qcurve"/>
			<point x="47" y="-188"/>
			<point x="6" y="-176"/>
			<point x="1" y="-173" type="qcurve"/>
			<point x="14" y="-119" type="line"/>
			<point x="18" y="-122"/>
			<point x="55" y="-133"/>
			<point x="75" y="-133" type="qcurve"/>
			<point x="103" y="-133"/>
			<point x="148" y="-121"/>
			<point x="184" y="-92"/>
			<point x="213" y="-46"/>
		</contour>
	</outline>
</glyph>
<glyph name="bar" format="2">
	<unicode hex="007C"/>
	<advance width="262"/>
	<outline>
		<contour>
			<point x="100" y="-185" type="line"/>
			<point x="162" y="-185" type="line"/>
			<point x="162" y="783" type="line"/>
			<point x="100" y="783" type="line"/>
		</contour>
	</outline>
	<guideline x="115"/>
</glyph>
<glyph name="asciitilde" format="2">
	<unicode hex="007E"/>
	<advance width="564"/>
	<outline>
		<contour>
			<point x="384" y="222" type="qcurve"/>
			<point x="350" y="222"/>
			<point x="296" y="250"/>
			<point x="247" y="284"/>
			<point x="200" y="312"/>
			<point x="174" y="312" type="qcurve"/>
			<point x="155" y="312"/>
			<point x="129" y="293"/>
			<point x="112" y="266"/>
			<point x="103" y="239"/>
			<point x="101" y="231" type="qcurve"/>
			<point x="50" y="243" type="line"/>
			<point x="54" y="261"/>
			<point x="71" y="304"/>
			<point x="100" y="341"/>
			<point x="146" y="366"/>
			<point x="180" y="366" type="qcurve"/>
			<point x="214" y="366"/>
			<point x="268" y="338"/>
			<point x="317" y="304"/>
			<point x="364" y="276"/>
			<point x="390" y="276" type="qcurve"/>
			<point x="409" y="276"/>
			<point x="435" y="295"/>
			<point x="452" y="322"/>
			<point x="461" y="349"/>
			<point x="463" y="357" type="qcurve"/>
			<point x="514" y="345" type="line"/>
			<point x="509" y="327"/>
			<point x="493" y="284"/>
			<point x="464" y="247"/>
			<point x="418" y="222"/>
		</contour>
	</outline>
</glyph>
<glyph name="section" format="2">
	<unicode hex="00A7"/>
	<advance width="482"/>
	<outline>
		<contour>
			<point x="72" y="-28" type="line"/>
			<point x="98" y="-39"/>
			<point x="162" y="-58"/>
			<point x="221" y="-58" type="qcurve"/>
			<point x="247" y="-58"/>
			<point x="293" y="-48"/>
			<point x="328" y="-27"/>
			<point x="348" y="5"/>
			<point x="348" y="28" type="qcurve"/>
			<point x="348" y="49"/>
			<point x="334" y="81"/>
			<point x="303" y="107"/>
			<point x="254" y="129"/>
			<point x="220" y="141" type="qcurve"/>
			<point x="185" y="153"/>
			<point x="122" y="178"/>
			<point x="75" y="215"/>
			<point x="47" y="269"/>
			<point x="47" y="309" type="qcurve"/>
			<point x="47" y="337"/>
			<point x="66" y="384"/>
			<point x="94" y="420"/>
			<point x="129" y="446"/>
			<point x="144" y="455" type="qcurve"/>
			<point x="114" y="477"/>
			<point x="85" y="528"/>
			<point x="85" y="565" type="qcurve"/>
			<point x="85" y="631"/>
			<point x="174" y="708"/>
			<point x="261" y="708" type="qcurve"/>
			<point x="321" y="708"/>
			<point x="391" y="689"/>
			<point x="406" y="683" type="qcurve"/>
			<point x="390" y="630" type="line"/>
			<point x="373" y="638"/>
			<point x="310" y="657"/>
			<point x="260" y="657" type="qcurve"/>
			<point x="211" y="657"/>
			<point x="147" y="618"/>
			<point x="147" y="576" type="qcurve"/>
			<point x="147" y="535"/>
			<point x="200" y="489"/>
			<point x="262" y="470" type="qcurve"/>
			<point x="295" y="459"/>
			<point x="357" y="435"/>
			<point x="407" y="398"/>
			<point x="437" y="342"/>
			<point x="437" y="300" type="qcurve"/>
			<point x="437" y="275"/>
			<point x="421" y="231"/>
			<point x="394" y="193"/>
			<point x="359" y="164"/>
			<point x="341" y="154" type="qcurve"/>
			<point x="374" y="134"/>
			<point x="411" y="74"/>
			<point x="411" y="37" type="qcurve"/>
			<point x="411" y="-35"/>
			<point x="304" y="-109"/>
			<point x="214" y="-109" type="qcurve"/>
			<point x="154" y="-109"/>
			<point x="79" y="-90"/>
			<point x="56" y="-79" type="qcurve"/>
		</contour>
		<contour>
			<point x="227" y="420" type="qcurve"/>
			<point x="216" y="424"/>
			<point x="195" y="431"/>
			<point x="190" y="433" type="qcurve"/>
			<point x="155" y="415"/>
			<point x="109" y="359"/>
			<point x="109" y="317" type="qcurve"/>
			<point x="109" y="288"/>
			<point x="132" y="250"/>
			<point x="172" y="222"/>
			<point x="226" y="201"/>
			<point x="257" y="191" type="qcurve"/>
			<point x="267" y="188"/>
			<point x="289" y="180"/>
			<point x="296" y="177" type="qcurve"/>
			<point x="334" y="196"/>
			<point x="375" y="260"/>
			<point x="375" y="295" type="qcurve"/>
			<point x="375" y="323"/>
			<point x="349" y="363"/>
			<point x="307" y="391"/>
			<point x="254" y="411"/>
		</contour>
	</outline>
</glyph>
<glyph name="dieresis" format="2">
	<unicode hex="00A8"/>
	<advance width="376"/>
	<outline>
		<contour>
			<point x="148" y="673" type="curve" smooth="yes"/>
			<point x="148" y="702"/>
			<point x="128" y="721"/>
			<point x="102" y="721" type="curve" smooth="yes"/>
			<point x="76" y="721"/>
			<point x="56" y="702"/>
			<point x="56" y="673" type="curve" smooth="yes"/>
			<point x="56" y="644"/>
			<point x="76" y="625"/>
			<point x="102" y="625" type="curve" smooth="yes"/>
			<point x="128" y="625"/>
			<point x="148" y="644"/>
		</contour>
		<contour>
			<point x="320" y="673" type="curve" smooth="yes"/>
			<point x="320" y="702"/>
			<point x="300" y="721"/>
			<point x="274" y="721" type="curve" smooth="yes"/>
			<point x="248" y="721"/>
			<point x="228" y="702"/>
			<point x="228" y="673" type="curve" smooth="yes"/>
			<point x="228" y="644"/>
			<point x="248" y="625"/>
			<point x="274" y="625" type="curve" smooth="yes"/>
			<point x="300" y="625"/>
			<point x="320" y="644"/>
		</contour>
	</outline>
	<guideline y="625"/>
</glyph>
<glyph name="ordfeminine" format="2">
	<unicode hex="00AA"/>
	<advance width="386"/>
	<outline>
		<contour>
			<point x="195" y="379" type="curve" smooth="yes"/>
			<point x="124" y="379"/>
			<point x="101" y="404"/>
			<point x="101" y="447" type="curve" smooth="yes"/>
			<point x="101" y="496"/>
			<point x="148" y="510"/>
			<point x="205" y="510" type="curve" smooth="yes"/>
			<point x="229" y="510"/>
			<point x="253" y="507"/>
			<point x="270" y="504" type="curve"/>
			<point x="270" y="384" type="line"/>
			<point x="256" y="382"/>
			<point x="224" y="379"/>
		</contour>
		<contour>
			<point x="189" y="704" type="curve" smooth="yes"/>
			<point x="146" y="704"/>
			<point x="109" y="697"/>
			<point x="87" y="690" type="curve"/>
			<point x="94" y="644" type="line"/>
			<point x="121" y="653"/>
			<point x="154" y="656"/>
			<point x="189" y="656" type="curve" smooth="yes"/>
			<point x="265" y="656"/>
			<point x="270" y="604"/>
			<point x="270" y="557" type="curve" smooth="yes"/>
			<point x="270" y="548" type="line"/>
			<point x="244" y="553"/>
			<point x="218" y="556"/>
			<point x="203" y="556" type="curve" smooth="yes"/>
			<point x="117" y="556"/>
			<point x="46" y="524"/>
			<point x="46" y="443" type="curve" smooth="yes"/>
			<point x="46" y="366"/>
			<point x="107" y="332"/>
			<point x="196" y="332" type="curve" smooth="yes"/>
			<point x="232" y="332"/>
			<point x="291" y="338"/>
			<point x="324" y="346" type="curve"/>
			<point x="324" y="572" type="line" smooth="yes"/>
			<point x="324" y="650"/>
			<point x="288" y="704"/>
		</contour>
	</outline>
	<guideline y="609"/>
</glyph>
<glyph name="registered" format="2">
	<unicode hex="00AE"/>
	<advance width="826"/>
	<outline>
		<contour>
			<point x="582" y="149" type="line"/>
			<point x="553" y="209"/>
			<point x="498" y="292"/>
			<point x="476" y="315" type="curve"/>
			<point x="528" y="334"/>
			<point x="555" y="374"/>
			<point x="555" y="422" type="curve" smooth="yes"/>
			<point x="555" y="505"/>
			<point x="494" y="547"/>
			<point x="381" y="547" type="curve" smooth="yes"/>
			<point x="348" y="547"/>
			<point x="306" y="543"/>
			<point x="276" y="536" type="curve"/>
			<point x="276" y="149" type="line"/>
			<point x="331" y="149" type="line"/>
			<point x="331" y="305" type="line"/>
			<point x="394" y="305" type="line"/>
			<point x="400" y="305"/>
			<point x="409" y="305"/>
			<point x="418" y="306" type="curve"/>
			<point x="446" y="273"/>
			<point x="487" y="211"/>
			<point x="521" y="149" type="curve"/>
		</contour>
		<contour>
			<point x="331" y="497" type="line"/>
			<point x="345" y="498"/>
			<point x="364" y="499"/>
			<point x="384" y="499" type="curve" smooth="yes"/>
			<point x="442" y="499"/>
			<point x="496" y="480"/>
			<point x="496" y="423" type="curve" smooth="yes"/>
			<point x="496" y="364"/>
			<point x="447" y="350"/>
			<point x="381" y="350" type="curve" smooth="yes"/>
			<point x="331" y="350" type="line"/>
		</contour>
		<contour>
			<point x="752" y="347" type="curve" smooth="yes"/>
			<point x="752" y="575"/>
			<point x="592" y="708"/>
			<point x="413" y="708" type="curve" smooth="yes"/>
			<point x="234" y="708"/>
			<point x="74" y="575"/>
			<point x="74" y="347" type="curve" smooth="yes"/>
			<point x="74" y="119"/>
			<point x="234" y="-15"/>
			<point x="413" y="-15" type="curve" smooth="yes"/>
			<point x="592" y="-15"/>
			<point x="752" y="119"/>
		</contour>
		<contour>
			<point x="693" y="347" type="curve" smooth="yes"/>
			<point x="693" y="162"/>
			<point x="576" y="38"/>
			<point x="413" y="38" type="curve" smooth="yes"/>
			<point x="250" y="38"/>
			<point x="133" y="162"/>
			<point x="133" y="347" type="curve" smooth="yes"/>
			<point x="133" y="532"/>
			<point x="250" y="655"/>
			<point x="413" y="655" type="curve" smooth="yes"/>
			<point x="576" y="655"/>
			<point x="693" y="532"/>
		</contour>
	</outline>
</glyph>
<glyph name="degree" format="2">
	<unicode hex="00B0"/>
	<advance width="318"/>
	<outline>
		<contour>
			<point x="159" y="511" type="qcurve"/>
			<point x="133" y="511"/>
			<point x="86" y="529"/>
			<point x="50" y="562"/>
			<point x="29" y="611"/>
			<point x="29" y="642" type="qcurve"/>
			<point x="29" y="673"/>
			<point x="50" y="722"/>
			<point x="86" y="755"/>
			<point x="133" y="773"/>
			<point x="159" y="773" type="qcurve"/>
			<point x="185" y="773"/>
			<point x="232" y="755"/>
			<point x="268" y="722"/>
			<point x="289" y="673"/>
			<point x="289" y="642" type="qcurve"/>
			<point x="289" y="611"/>
			<point x="268" y="562"/>
			<point x="232" y="529"/>
			<point x="185" y="511"/>
		</contour>
		<contour>
			<point x="159" y="556" type="qcurve"/>
			<point x="194" y="556"/>
			<point x="241" y="602"/>
			<point x="241" y="642" type="qcurve"/>
			<point x="241" y="682"/>
			<point x="194" y="728"/>
			<point x="159" y="728" type="qcurve"/>
			<point x="124" y="728"/>
			<point x="77" y="682"/>
			<point x="77" y="642" type="qcurve"/>
			<point x="77" y="602"/>
			<point x="124" y="556"/>
		</contour>
	</outline>
</glyph>
<glyph name="twosuperior" format="2">
	<unicode hex="00B2"/>
	<advance width="359"/>
	<outline>
		<contour>
			<point x="284" y="600" type="qcurve"/>
			<point x="284" y="579"/>
			<point x="269" y="543"/>
			<point x="245" y="512"/>
			<point x="214" y="484"/>
			<point x="197" y="471" type="qcurve"/>
			<point x="171" y="450"/>
			<point x="138" y="418"/>
			<point x="119" y="394"/>
			<point x="112" y="374"/>
			<point x="112" y="365" type="qcurve"/>
			<point x="303" y="365" type="line"/>
			<point x="303" y="317" type="line"/>
			<point x="55" y="317" type="line"/>
			<point x="54" y="322"/>
			<point x="54" y="332"/>
			<point x="54" y="337" type="qcurve"/>
			<point x="54" y="367"/>
			<point x="74" y="414"/>
			<point x="105" y="453"/>
			<point x="143" y="486"/>
			<point x="161" y="503" type="qcurve"/>
			<point x="175" y="515"/>
			<point x="199" y="536"/>
			<point x="217" y="559"/>
			<point x="228" y="585"/>
			<point x="228" y="602" type="qcurve"/>
			<point x="228" y="635"/>
			<point x="188" y="660"/>
			<point x="161" y="660" type="qcurve"/>
			<point x="144" y="660"/>
			<point x="115" y="651"/>
			<point x="91" y="638"/>
			<point x="74" y="625"/>
			<point x="70" y="621" type="qcurve"/>
			<point x="43" y="659" type="line"/>
			<point x="60" y="677"/>
			<point x="121" y="708"/>
			<point x="166" y="708" type="qcurve"/>
			<point x="222" y="708"/>
			<point x="284" y="654"/>
		</contour>
	</outline>
</glyph>
<glyph name="paragraph" format="2">
	<unicode hex="00B6"/>
	<advance width="616"/>
	<outline>
		<contour>
			<point x="457" y="-185" type="line"/>
			<point x="515" y="-185" type="line"/>
			<point x="515" y="686" type="line"/>
			<point x="468" y="697"/>
			<point x="406" y="699"/>
			<point x="364" y="699" type="curve" smooth="yes"/>
			<point x="177" y="699"/>
			<point x="46" y="627"/>
			<point x="46" y="480" type="curve" smooth="yes"/>
			<point x="46" y="342"/>
			<point x="141" y="276"/>
			<point x="288" y="264" type="curve"/>
			<point x="288" y="-185" type="line"/>
			<point x="346" y="-185" type="line"/>
			<point x="346" y="641" type="line"/>
			<point x="353" y="642"/>
			<point x="366" y="643"/>
			<point x="377" y="643" type="curve" smooth="yes"/>
			<point x="402" y="643"/>
			<point x="439" y="641"/>
			<point x="457" y="638" type="curve"/>
		</contour>
	</outline>
</glyph>
<glyph name="ordmasculine" format="2">
	<unicode hex="00BA"/>
	<advance width="437"/>
	<outline>
		<contour>
			<point x="391" y="518" type="qcurve"/>
			<point x="391" y="476"/>
			<point x="365" y="407"/>
			<point x="319" y="358"/>
			<point x="255" y="331"/>
			<point x="218" y="331" type="qcurve"/>
			<point x="181" y="331"/>
			<point x="118" y="358"/>
			<point x="72" y="407"/>
			<point x="46" y="476"/>
			<point x="46" y="518" type="qcurve"/>
			<point x="46" y="560"/>
			<point x="72" y="629"/>
			<point x="118" y="678"/>
			<point x="181" y="705"/>
			<point x="218" y="705" type="qcurve"/>
			<point x="255" y="705"/>
			<point x="319" y="678"/>
			<point x="365" y="629"/>
			<point x="391" y="560"/>
		</contour>
		<contour>
			<point x="332" y="518" type="qcurve"/>
			<point x="332" y="581"/>
			<point x="270" y="656"/>
			<point x="218" y="656" type="qcurve"/>
			<point x="167" y="656"/>
			<point x="105" y="581"/>
			<point x="105" y="518" type="qcurve"/>
			<point x="105" y="455"/>
			<point x="167" y="380"/>
			<point x="218" y="380" type="qcurve"/>
			<point x="270" y="380"/>
			<point x="332" y="455"/>
		</contour>
	</outline>
</glyph>
<glyph name="AE" format="2">
	<unicode hex="00C6"/>
	<advance width="915"/>
	<outline>
		<contour>
			<point x="464" y="0" type="line"/>
			<point x="464" y="190" type="line"/>
			<point x="177" y="190" type="line"/>
			<point x="151" y="142"/>
			<point x="100" y="48"/>
			<point x="76" y="0" type="qcurve"/>
			<point x="6" y="0" type="line"/>
			<point x="60" y="107"/>
			<point x="167" y="295"/>
			<point x="273" y="464"/>
			<point x="379" y="619"/>
			<point x="433" y="693" type="qcurve"/>
			<point x="850" y="693" type="line"/>
			<point x="850" y="634" type="line"/>
			<point x="532" y="634" type="line"/>
			<point x="532" y="393" type="line"/>
			<point x="814" y="393" type="line"/>
			<point x="814" y="335" type="line"/>
			<point x="532" y="335" type="line"/>
			<point x="532" y="59" type="line"/>
			<point x="876" y="59" type="line"/>
			<point x="876" y="0" type="line"/>
		</contour>
		<contour>
			<point x="464" y="637" type="line"/>
			<point x="395" y="544"/>
			<point x="269" y="351"/>
			<point x="210" y="248" type="qcurve"/>
			<point x="464" y="248" type="line"/>
		</contour>
	</outline>
	<guideline x="532"/>
	<guideline y="634"/>
</glyph>
<glyph name="multiply" format="2">
	<unicode hex="00D7"/>
	<advance width="564"/>
	<outline>
		<contour>
			<point x="90" y="442" type="line"/>
			<point x="244" y="289" type="line"/>
			<point x="90" y="136" type="line"/>
			<point x="129" y="97" type="line"/>
			<point x="282" y="251" type="line"/>
			<point x="435" y="97" type="line"/>
			<point x="474" y="136" type="line"/>
			<point x="320" y="289" type="line"/>
			<point x="474" y="442" type="line"/>
			<point x="435" y="481" type="line"/>
			<point x="282" y="327" type="line"/>
			<point x="129" y="481" type="line"/>
		</contour>
	</outline>
	<guideline y="339"/>
</glyph>
<glyph name="ae" format="2">
	<unicode hex="00E6"/>
	<advance width="854"/>
	<outline>
		<contour>
			<point x="728" y="300" type="line"/>
			<point x="726" y="381"/>
			<point x="654" y="471"/>
			<point x="588" y="471" type="qcurve"/>
			<point x="553" y="471"/>
			<point x="498" y="443"/>
			<point x="457" y="396"/>
			<point x="434" y="334"/>
			<point x="432" y="300" type="qcurve"/>
		</contour>
		<contour>
			<point x="252" y="-11" type="qcurve"/>
			<point x="208" y="-11"/>
			<point x="133" y="7"/>
			<point x="79" y="46"/>
			<point x="48" y="107"/>
			<point x="48" y="151" type="qcurve"/>
			<point x="48" y="193"/>
			<point x="80" y="253"/>
			<point x="138" y="292"/>
			<point x="218" y="310"/>
			<point x="265" y="310" type="qcurve"/>
			<point x="279" y="310"/>
			<point x="310" y="307"/>
			<point x="339" y="302"/>
			<point x="360" y="297"/>
			<point x="364" y="295" type="qcurve"/>
			<point x="364" y="327" type="line"/>
			<point x="364" y="354"/>
			<point x="356" y="405"/>
			<point x="329" y="446"/>
			<point x="280" y="471"/>
			<point x="240" y="471" type="qcurve"/>
			<point x="186" y="471"/>
			<point x="126" y="456"/>
			<point x="113" y="451" type="qcurve"/>
			<point x="105" y="507" type="line"/>
			<point x="122" y="515"/>
			<point x="194" y="529"/>
			<point x="243" y="529" type="qcurve"/>
			<point x="314" y="529"/>
			<point x="395" y="476"/>
			<point x="412" y="431" type="qcurve"/>
			<point x="445" y="480"/>
			<point x="537" y="529"/>
			<point x="587" y="529" type="qcurve"/>
			<point x="682" y="529"/>
			<point x="795" y="405"/>
			<point x="795" y="276" type="qcurve"/>
			<point x="795" y="268"/>
			<point x="794" y="252"/>
			<point x="793" y="245" type="qcurve"/>
			<point x="430" y="245" type="line"/>
			<point x="433" y="150"/>
			<point x="521" y="48"/>
			<point x="617" y="48" type="qcurve"/>
			<point x="670" y="48"/>
			<point x="732" y="68"/>
			<point x="746" y="75" type="qcurve"/>
			<point x="758" y="19" type="line"/>
			<point x="744" y="11"/>
			<point x="667" y="-11"/>
			<point x="615" y="-11" type="qcurve"/>
			<point x="558" y="-11"/>
			<point x="470" y="17"/>
			<point x="437" y="49" type="qcurve"/>
			<point x="426" y="40"/>
			<point x="393" y="19"/>
			<point x="347" y="1"/>
			<point x="289" y="-11"/>
		</contour>
		<contour>
			<point x="365" y="238" type="qcurve"/>
			<point x="354" y="243"/>
			<point x="305" y="254"/>
			<point x="263" y="254" type="qcurve"/>
			<point x="239" y="254"/>
			<point x="187" y="247"/>
			<point x="143" y="224"/>
			<point x="115" y="184"/>
			<point x="115" y="151" type="qcurve"/>
			<point x="115" y="122"/>
			<point x="135" y="82"/>
			<point x="172" y="58"/>
			<point x="222" y="47"/>
			<point x="252" y="47" type="qcurve"/>
			<point x="314" y="47"/>
			<point x="386" y="80"/>
			<point x="400" y="93" type="qcurve"/>
			<point x="384" y="119"/>
			<point x="366" y="190"/>
		</contour>
	</outline>
</glyph>
<glyph name="oslash" format="2">
	<unicode hex="00F8"/>
	<advance width="582"/>
	<outline>
		<contour>
			<point x="527" y="258" type="curve" smooth="yes"/>
			<point x="527" y="334"/>
			<point x="506" y="398"/>
			<point x="469" y="444" type="curve"/>
			<point x="525" y="517" type="line"/>
			<point x="483" y="548" type="line"/>
			<point x="432" y="481" type="line"/>
			<point x="393" y="512"/>
			<point x="345" y="529"/>
			<point x="291" y="529" type="curve" smooth="yes"/>
			<point x="153" y="529"/>
			<point x="55" y="421"/>
			<point x="55" y="258" type="curve" smooth="yes"/>
			<point x="55" y="181"/>
			<point x="76" y="117"/>
			<point x="114" y="70" type="curve"/>
			<point x="58" y="-2" type="line"/>
			<point x="101" y="-34" type="line"/>
			<point x="152" y="33" type="line"/>
			<point x="190" y="4"/>
			<point x="237" y="-12"/>
			<point x="291" y="-12" type="curve" smooth="yes"/>
			<point x="429" y="-12"/>
			<point x="527" y="95"/>
		</contour>
		<contour>
			<point x="124" y="258" type="curve" smooth="yes"/>
			<point x="124" y="387"/>
			<point x="189" y="470"/>
			<point x="291" y="470" type="curve" smooth="yes"/>
			<point x="332" y="470"/>
			<point x="367" y="456"/>
			<point x="394" y="432" type="curve"/>
			<point x="155" y="124" type="line"/>
			<point x="135" y="159"/>
			<point x="124" y="204"/>
		</contour>
		<contour>
			<point x="458" y="258" type="curve" smooth="yes"/>
			<point x="458" y="129"/>
			<point x="393" y="47"/>
			<point x="291" y="47" type="curve" smooth="yes"/>
			<point x="251" y="47"/>
			<point x="217" y="59"/>
			<point x="190" y="82" type="curve"/>
			<point x="427" y="390" type="line"/>
			<point x="447" y="355"/>
			<point x="458" y="310"/>
		</contour>
	</outline>
</glyph>
<glyph name="Aogonek" format="2">
	<unicode hex="0104"/>
	<advance width="641"/>
	<outline>
		<contour>
			<point x="539" y="-15" type="curve"/>
			<point x="510" y="-43"/>
			<point x="483" y="-75"/>
			<point x="483" y="-116" type="curve" smooth="yes"/>
			<point x="483" y="-157"/>
			<point x="510" y="-186"/>
			<point x="581" y="-186" type="curve" smooth="yes"/>
			<point x="601" y="-186"/>
			<point x="625" y="-181"/>
			<point x="635" y="-177" type="curve"/>
			<point x="630" y="-129" type="line"/>
			<point x="619" y="-133"/>
			<point x="604" y="-135"/>
			<point x="592" y="-135" type="curve" smooth="yes"/>
			<point x="568" y="-135"/>
			<point x="550" y="-125"/>
			<point x="550" y="-101" type="curve" smooth="yes"/>
			<point x="550" y="-78"/>
			<point x="564" y="-61"/>
			<point x="585" y="-38" type="curve" smooth="yes"/>
			<point x="601" y="-21"/>
			<point x="616" y="-9"/>
			<point x="630" y="2" type="curve"/>
			<point x="522" y="290"/>
			<point x="448" y="489"/>
			<point x="350" y="693" type="curve"/>
			<point x="290" y="693" type="line"/>
			<point x="192" y="489"/>
			<point x="117" y="289"/>
			<point x="10" y="0" type="curve"/>
			<point x="81" y="0" type="line"/>
			<point x="105" y="68"/>
			<point x="128" y="130"/>
			<point x="150" y="190" type="curve"/>
			<point x="487" y="190" type="line"/>
			<point x="508" y="130"/>
			<point x="531" y="68"/>
			<point x="556" y="0" type="curve"/>
			<point x="551" y="-4"/>
			<point x="546" y="-8"/>
		</contour>
		<contour>
			<point x="318" y="615" type="curve"/>
			<point x="369" y="501"/>
			<point x="415" y="384"/>
			<point x="466" y="248" type="curve"/>
			<point x="171" y="248" type="line"/>
			<point x="221" y="384"/>
			<point x="267" y="501"/>
		</contour>
	</outline>
</glyph>
<glyph name="aogonek" format="2">
	<unicode hex="0105"/>
	<advance width="509"/>
	<outline>
		<contour>
			<point x="243" y="529" type="curve" smooth="yes"/>
			<point x="178" y="529"/>
			<point x="128" y="518"/>
			<point x="105" y="507" type="curve"/>
			<point x="113" y="451" type="line"/>
			<point x="130" y="458"/>
			<point x="168" y="471"/>
			<point x="240" y="471" type="curve" smooth="yes"/>
			<point x="348" y="471"/>
			<point x="364" y="398"/>
			<point x="364" y="327" type="curve" smooth="yes"/>
			<point x="364" y="295" type="line"/>
			<point x="354" y="300"/>
			<point x="302" y="310"/>
			<point x="265" y="310" type="curve" smooth="yes"/>
			<point x="139" y="310"/>
			<point x="48" y="263"/>
			<point x="48" y="151" type="curve" smooth="yes"/>
			<point x="48" y="34"/>
			<point x="130" y="-11"/>
			<point x="238" y="-11" type="curve" smooth="yes"/>
			<point x="279" y="-11"/>
			<point x="319" y="-8"/>
			<point x="352" y="-4" type="curve"/>
			<point x="317" y="-30"/>
			<point x="278" y="-66"/>
			<point x="278" y="-116" type="curve" smooth="yes"/>
			<point x="278" y="-157"/>
			<point x="305" y="-186"/>
			<point x="376" y="-186" type="curve" smooth="yes"/>
			<point x="396" y="-186"/>
			<point x="420" y="-181"/>
			<point x="430" y="-177" type="curve"/>
			<point x="425" y="-129" type="line"/>
			<point x="414" y="-133"/>
			<point x="399" y="-135"/>
			<point x="387" y="-135" type="curve" smooth="yes"/>
			<point x="363" y="-135"/>
			<point x="345" y="-125"/>
			<point x="345" y="-101" type="curve" smooth="yes"/>
			<point x="345" y="-78"/>
			<point x="359" y="-59"/>
			<point x="380" y="-36" type="curve" smooth="yes"/>
			<point x="397" y="-18"/>
			<point x="413" y="-3"/>
			<point x="429" y="10" type="curve"/>
			<point x="429" y="338" type="line" smooth="yes"/>
			<point x="429" y="448"/>
			<point x="380" y="529"/>
		</contour>
		<contour>
			<point x="249" y="47" type="curve" smooth="yes"/>
			<point x="167" y="47"/>
			<point x="115" y="73"/>
			<point x="115" y="151" type="curve" smooth="yes"/>
			<point x="115" y="239"/>
			<point x="199" y="254"/>
			<point x="263" y="254" type="curve" smooth="yes"/>
			<point x="318" y="254"/>
			<point x="350" y="244"/>
			<point x="364" y="238" type="curve"/>
			<point x="364" y="56" type="line"/>
			<point x="337" y="51"/>
			<point x="299" y="47"/>
		</contour>
	</outline>
	<guideline x="-783"/>
	<guideline x="486"/>
	<guideline y="-25"/>
</glyph>
<glyph name="Eogonek" format="2">
	<unicode hex="0118"/>
	<advance width="555"/>
	<outline>
		<contour>
			<point x="90" y="0" type="line"/>
			<point x="90" y="693" type="line"/>
			<point x="490" y="693" type="line"/>
			<point x="490" y="634" type="line"/>
			<point x="158" y="634" type="line"/>
			<point x="158" y="393" type="line"/>
			<point x="454" y="393" type="line"/>
			<point x="454" y="335" type="line"/>
			<point x="158" y="335" type="line"/>
			<point x="158" y="59" type="line"/>
			<point x="516" y="59" type="line"/>
			<point x="516" y="2" type="line"/>
			<point x="505" y="-6"/>
			<point x="483" y="-25"/>
			<point x="471" y="-38" type="qcurve"/>
			<point x="455" y="-55"/>
			<point x="436" y="-84"/>
			<point x="436" y="-101" type="qcurve"/>
			<point x="436" y="-119"/>
			<point x="460" y="-135"/>
			<point x="478" y="-135" type="qcurve"/>
			<point x="487" y="-135"/>
			<point x="508" y="-132"/>
			<point x="516" y="-129" type="qcurve"/>
			<point x="521" y="-177" type="line"/>
			<point x="513" y="-180"/>
			<point x="482" y="-186"/>
			<point x="467" y="-186" type="qcurve"/>
			<point x="413" y="-186"/>
			<point x="369" y="-147"/>
			<point x="369" y="-116" type="qcurve"/>
			<point x="369" y="-85"/>
			<point x="402" y="-37"/>
			<point x="424" y="-17" type="qcurve"/>
			<point x="429" y="-12"/>
			<point x="440" y="-4"/>
			<point x="445" y="0" type="qcurve"/>
		</contour>
	</outline>
	<guideline x="516"/>
</glyph>
<glyph name="eogonek" format="2">
	<unicode hex="0119"/>
	<advance width="548"/>
	<outline>
		<contour>
			<point x="55" y="259" type="curve" smooth="yes"/>
			<point x="55" y="102"/>
			<point x="128" y="-10"/>
			<point x="309" y="-10" type="curve" smooth="yes"/>
			<point x="325" y="-10"/>
			<point x="343" y="-8"/>
			<point x="358" y="-5" type="curve"/>
			<point x="324" y="-29"/>
			<point x="284" y="-68"/>
			<point x="284" y="-116" type="curve" smooth="yes"/>
			<point x="284" y="-157"/>
			<point x="311" y="-186"/>
			<point x="382" y="-186" type="curve" smooth="yes"/>
			<point x="402" y="-186"/>
			<point x="426" y="-181"/>
			<point x="436" y="-177" type="curve"/>
			<point x="431" y="-129" type="line"/>
			<point x="420" y="-133"/>
			<point x="405" y="-135"/>
			<point x="393" y="-135" type="curve" smooth="yes"/>
			<point x="369" y="-135"/>
			<point x="351" y="-125"/>
			<point x="351" y="-101" type="curve" smooth="yes"/>
			<point x="351" y="-80"/>
			<point x="365" y="-60"/>
			<point x="386" y="-38" type="curve" smooth="yes"/>
			<point x="404" y="-20"/>
			<point x="426" y="-1"/>
			<point x="452" y="19" type="curve"/>
			<point x="440" y="75" type="line"/>
			<point x="422" y="66"/>
			<point x="381" y="48"/>
			<point x="311" y="48" type="curve" smooth="yes"/>
			<point x="184" y="48"/>
			<point x="128" y="119"/>
			<point x="124" y="245" type="curve"/>
			<point x="487" y="245" type="line"/>
			<point x="488" y="254"/>
			<point x="489" y="266"/>
			<point x="489" y="276" type="curve" smooth="yes"/>
			<point x="489" y="448"/>
			<point x="408" y="529"/>
			<point x="281" y="529" type="curve" smooth="yes"/>
			<point x="167" y="529"/>
			<point x="55" y="440"/>
		</contour>
		<contour>
			<point x="126" y="300" type="line"/>
			<point x="131" y="390"/>
			<point x="190" y="471"/>
			<point x="282" y="471" type="curve" smooth="yes"/>
			<point x="369" y="471"/>
			<point x="420" y="408"/>
			<point x="422" y="300" type="curve"/>
		</contour>
	</outline>
</glyph>
<glyph name="Lslash" format="2">
	<unicode hex="0141"/>
	<advance width="516"/>
	<outline>
		<contour>
			<point x="285" y="449" type="line"/>
			<point x="308" y="401" type="line"/>
			<point x="172" y="330" type="line"/>
			<point x="172" y="59" type="line"/>
			<point x="498" y="59" type="line"/>
			<point x="498" y="0" type="line"/>
			<point x="104" y="0" type="line"/>
			<point x="104" y="295" type="line"/>
			<point x="26" y="255" type="line"/>
			<point x="1" y="303" type="line"/>
			<point x="104" y="356" type="line"/>
			<point x="104" y="693" type="line"/>
			<point x="172" y="693" type="line"/>
			<point x="172" y="391" type="line"/>
		</contour>
	</outline>
</glyph>
<glyph name="Eng" format="2">
	<unicode hex="014A"/>
	<advance width="709"/>
	<outline>
		<contour>
			<point x="552" y="-37" type="line"/>
			<point x="552" y="-101"/>
			<point x="534" y="-130"/>
			<point x="483" y="-130" type="curve" smooth="yes"/>
			<point x="467" y="-130"/>
			<point x="453" y="-127"/>
			<point x="446" y="-124" type="curve"/>
			<point x="437" y="-178" type="line"/>
			<point x="447" y="-182"/>
			<point x="471" y="-187"/>
			<point x="493" y="-187" type="curve" smooth="yes"/>
			<point x="604" y="-187"/>
			<point x="619" y="-117"/>
			<point x="619" y="-26" type="curve"/>
			<point x="619" y="693" type="line"/>
			<point x="552" y="693" type="line"/>
			<point x="552" y="129" type="line"/>
			<point x="469" y="277"/>
			<point x="281" y="541"/>
			<point x="144" y="693" type="curve"/>
			<point x="90" y="693" type="line"/>
			<point x="90" y="0" type="line"/>
			<point x="157" y="0" type="line"/>
			<point x="157" y="584" type="line"/>
			<point x="270" y="452"/>
			<point x="468" y="163"/>
			<point x="552" y="17" type="curve"/>
		</contour>
	</outline>
	<guideline x="519"/>
	<guideline x="552"/>
</glyph>
<glyph name="oe" format="2">
	<unicode hex="0153"/>
	<advance width="944"/>
	<outline>
		<contour>
			<point x="291" y="529" type="curve" smooth="yes"/>
			<point x="153" y="529"/>
			<point x="55" y="421"/>
			<point x="55" y="258" type="curve" smooth="yes"/>
			<point x="55" y="95"/>
			<point x="153" y="-12"/>
			<point x="291" y="-12" type="curve" smooth="yes"/>
			<point x="383" y="-12"/>
			<point x="449" y="35"/>
			<point x="487" y="113" type="curve"/>
			<point x="521" y="36"/>
			<point x="586" y="-11"/>
			<point x="705" y="-11" type="curve" smooth="yes"/>
			<point x="774" y="-11"/>
			<point x="830" y="9"/>
			<point x="848" y="19" type="curve"/>
			<point x="836" y="75" type="line"/>
			<point x="818" y="66"/>
			<point x="777" y="48"/>
			<point x="707" y="48" type="curve" smooth="yes"/>
			<point x="580" y="48"/>
			<point x="524" y="119"/>
			<point x="520" y="245" type="curve"/>
			<point x="883" y="245" type="line"/>
			<point x="884" y="254"/>
			<point x="885" y="266"/>
			<point x="885" y="276" type="curve" smooth="yes"/>
			<point x="885" y="448"/>
			<point x="804" y="529"/>
			<point x="677" y="529" type="curve" smooth="yes"/>
			<point x="598" y="529"/>
			<point x="527" y="485"/>
			<point x="488" y="399" type="curve"/>
			<point x="451" y="480"/>
			<point x="384" y="529"/>
		</contour>
		<contour>
			<point x="458" y="258" type="curve" smooth="yes"/>
			<point x="458" y="129"/>
			<point x="393" y="47"/>
			<point x="291" y="47" type="curve" smooth="yes"/>
			<point x="189" y="47"/>
			<point x="124" y="129"/>
			<point x="124" y="258" type="curve" smooth="yes"/>
			<point x="124" y="387"/>
			<point x="189" y="470"/>
			<point x="291" y="470" type="curve" smooth="yes"/>
			<point x="393" y="470"/>
			<point x="458" y="387"/>
		</contour>
		<contour>
			<point x="522" y="300" type="line"/>
			<point x="527" y="390"/>
			<point x="586" y="471"/>
			<point x="678" y="471" type="curve" smooth="yes"/>
			<point x="765" y="471"/>
			<point x="816" y="408"/>
			<point x="818" y="300" type="curve"/>
		</contour>
	</outline>
</glyph>
<glyph name="Scedilla" format="2">
	<unicode hex="015E"/>
	<advance width="517"/>
	<outline>
		<contour>
			<point x="264" y="-36" type="qcurve"/>
			<point x="292" y="-48"/>
			<point x="325" y="-83"/>
			<point x="325" y="-112" type="qcurve"/>
			<point x="325" y="-124"/>
			<point x="317" y="-151"/>
			<point x="295" y="-173"/>
			<point x="257" y="-187"/>
			<point x="227" y="-187" type="qcurve"/>
			<point x="207" y="-187"/>
			<point x="165" y="-180"/>
			<point x="156" y="-175" type="qcurve"/>
			<point x="164" y="-132" type="line"/>
			<point x="175" y="-137"/>
			<point x="203" y="-141"/>
			<point x="223" y="-141" type="qcurve"/>
			<point x="264" y="-141"/>
			<point x="264" y="-112" type="qcurve"/>
			<point x="264" y="-95"/>
			<point x="236" y="-77"/>
			<point x="206" y="-65" type="qcurve"/>
			<point x="209" y="-54"/>
			<point x="221" y="-28"/>
			<point x="228" y="-15" type="qcurve"/>
			<point x="190" y="-14"/>
			<point x="127" y="-4"/>
			<point x="78" y="11"/>
			<point x="43" y="26"/>
			<point x="34" y="32" type="qcurve"/>
			<point x="56" y="91" type="line"/>
			<point x="66" y="85"/>
			<point x="100" y="69"/>
			<point x="146" y="54"/>
			<point x="204" y="44"/>
			<point x="239" y="44" type="qcurve"/>
			<point x="320" y="44"/>
			<point x="410" y="103"/>
			<point x="410" y="169" type="qcurve"/>
			<point x="410" y="207"/>
			<point x="381" y="258"/>
			<point x="333" y="293"/>
			<point x="271" y="318"/>
			<point x="237" y="332" type="qcurve"/>
			<point x="194" y="349"/>
			<point x="126" y="385"/>
			<point x="78" y="430"/>
			<point x="53" y="488"/>
			<point x="53" y="527" type="qcurve"/>
			<point x="53" y="616"/>
			<point x="171" y="708"/>
			<point x="276" y="708" type="qcurve"/>
			<point x="304" y="708"/>
			<point x="358" y="700"/>
			<point x="405" y="687"/>
			<point x="444" y="671"/>
			<point x="457" y="662" type="qcurve"/>
			<point x="433" y="605" type="line"/>
			<point x="404" y="625"/>
			<point x="321" y="649"/>
			<point x="273" y="649" type="qcurve"/>
			<point x="240" y="649"/>
			<point x="185" y="636"/>
			<point x="145" y="607"/>
			<point x="122" y="563"/>
			<point x="122" y="532" type="qcurve"/>
			<point x="122" y="500"/>
			<point x="146" y="456"/>
			<point x="189" y="424"/>
			<point x="247" y="398"/>
			<point x="281" y="384" type="qcurve"/>
			<point x="322" y="367"/>
			<point x="395" y="333"/>
			<point x="449" y="287"/>
			<point x="481" y="221"/>
			<point x="481" y="173" type="qcurve"/>
			<point x="481" y="86"/>
			<point x="371" y="-6"/>
			<point x="274" y="-13" type="qcurve"/>
			<point x="271" y="-19"/>
			<point x="266" y="-31"/>
		</contour>
	</outline>
</glyph>
<glyph name="Uogonek" format="2">
	<unicode hex="0172"/>
	<advance width="680"/>
	<outline>
		<contour>
			<point x="361" y="-14" type="curve"/>
			<point x="328" y="-43"/>
			<point x="302" y="-75"/>
			<point x="302" y="-116" type="curve" smooth="yes"/>
			<point x="302" y="-157"/>
			<point x="329" y="-186"/>
			<point x="400" y="-186" type="curve" smooth="yes"/>
			<point x="420" y="-186"/>
			<point x="444" y="-181"/>
			<point x="454" y="-177" type="curve"/>
			<point x="449" y="-129" type="line"/>
			<point x="438" y="-133"/>
			<point x="423" y="-135"/>
			<point x="411" y="-135" type="curve" smooth="yes"/>
			<point x="387" y="-135"/>
			<point x="369" y="-125"/>
			<point x="369" y="-101" type="curve" smooth="yes"/>
			<point x="369" y="-78"/>
			<point x="383" y="-61"/>
			<point x="404" y="-38" type="curve" smooth="yes"/>
			<point x="428" y="-13"/>
			<point x="457" y="4"/>
			<point x="483" y="19" type="curve" smooth="yes"/>
			<point x="561" y="64"/>
			<point x="593" y="154"/>
			<point x="593" y="257" type="curve" smooth="yes"/>
			<point x="593" y="693" type="line"/>
			<point x="525" y="693" type="line"/>
			<point x="525" y="266" type="line" smooth="yes"/>
			<point x="525" y="114"/>
			<point x="451" y="46"/>
			<point x="340" y="46" type="curve" smooth="yes"/>
			<point x="229" y="46"/>
			<point x="155" y="114"/>
			<point x="155" y="266" type="curve" smooth="yes"/>
			<point x="155" y="693" type="line"/>
			<point x="87" y="693" type="line"/>
			<point x="87" y="257" type="line" smooth="yes"/>
			<point x="87" y="105"/>
			<point x="155" y="-15"/>
			<point x="340" y="-15" type="curve" smooth="yes"/>
			<point x="347" y="-15"/>
			<point x="353" y="-15"/>
		</contour>
	</outline>
</glyph>
<glyph name="uogonek" format="2">
	<unicode hex="0173"/>
	<advance width="569"/>
	<outline>
		<contour>
			<point x="412" y="1" type="curve"/>
			<point x="378" y="-4"/>
			<point x="335" y="-10"/>
			<point x="285" y="-10" type="curve" smooth="yes"/>
			<point x="131" y="-10"/>
			<point x="80" y="85"/>
			<point x="80" y="227" type="curve" smooth="yes"/>
			<point x="80" y="517" type="line"/>
			<point x="145" y="517" type="line"/>
			<point x="145" y="248" type="line" smooth="yes"/>
			<point x="145" y="102"/>
			<point x="185" y="49"/>
			<point x="295" y="49" type="curve" smooth="yes"/>
			<point x="356" y="49"/>
			<point x="406" y="58"/>
			<point x="418" y="63" type="curve"/>
			<point x="418" y="517" type="line"/>
			<point x="483" y="517" type="line"/>
			<point x="483" y="13" type="line"/>
			<point x="467" y="0"/>
			<point x="451" y="-17"/>
			<point x="433" y="-36" type="curve" smooth="yes"/>
			<point x="412" y="-59"/>
			<point x="398" y="-78"/>
			<point x="398" y="-101" type="curve" smooth="yes"/>
			<point x="398" y="-125"/>
			<point x="416" y="-135"/>
			<point x="440" y="-135" type="curve" smooth="yes"/>
			<point x="452" y="-135"/>
			<point x="467" y="-133"/>
			<point x="478" y="-129" type="curve"/>
			<point x="483" y="-177" type="line"/>
			<point x="473" y="-181"/>
			<point x="449" y="-186"/>
			<point x="429" y="-186" type="curve" smooth="yes"/>
			<point x="358" y="-186"/>
			<point x="331" y="-157"/>
			<point x="331" y="-116" type="curve"/>
			<point x="331" y="-66"/>
			<point x="369" y="-30"/>
		</contour>
	</outline>
	<guideline x="482"/>
</glyph>
<glyph name="uni0181" format="2">
	<unicode hex="0181"/>
	<advance width="712"/>
	<outline>
		<contour>
			<point x="345" y="699" type="curve" smooth="yes"/>
			<point x="137" y="699"/>
			<point x="20" y="679"/>
			<point x="20" y="543" type="curve" smooth="yes"/>
			<point x="20" y="531"/>
			<point x="23" y="506"/>
			<point x="26" y="495" type="curve"/>
			<point x="82" y="503" type="line"/>
			<point x="80" y="515"/>
			<point x="79" y="528"/>
			<point x="79" y="535" type="curve" smooth="yes"/>
			<point x="79" y="597"/>
			<point x="107" y="631"/>
			<point x="172" y="635" type="curve"/>
			<point x="172" y="13" type="line"/>
			<point x="211" y="2"/>
			<point x="292" y="-6"/>
			<point x="338" y="-6" type="curve" smooth="yes"/>
			<point x="555" y="-6"/>
			<point x="657" y="64"/>
			<point x="657" y="195" type="curve" smooth="yes"/>
			<point x="657" y="304"/>
			<point x="597" y="350"/>
			<point x="518" y="369" type="curve"/>
			<point x="581" y="389"/>
			<point x="623" y="445"/>
			<point x="623" y="519" type="curve" smooth="yes"/>
			<point x="623" y="655"/>
			<point x="495" y="699"/>
		</contour>
		<contour>
			<point x="384" y="332" type="line" smooth="yes"/>
			<point x="508" y="332"/>
			<point x="585" y="303"/>
			<point x="585" y="196" type="curve" smooth="yes"/>
			<point x="585" y="79"/>
			<point x="470" y="52"/>
			<point x="346" y="52" type="curve" smooth="yes"/>
			<point x="305" y="52"/>
			<point x="260" y="56"/>
			<point x="240" y="59" type="curve"/>
			<point x="240" y="332" type="line"/>
		</contour>
		<contour>
			<point x="345" y="641" type="curve" smooth="yes"/>
			<point x="467" y="641"/>
			<point x="552" y="608"/>
			<point x="552" y="517" type="curve" smooth="yes"/>
			<point x="552" y="416"/>
			<point x="472" y="390"/>
			<point x="372" y="390" type="curve" smooth="yes"/>
			<point x="240" y="390" type="line"/>
			<point x="240" y="638" type="line"/>
			<point x="263" y="640"/>
			<point x="308" y="641"/>
		</contour>
	</outline>
	<guideline y="578"/>
	<guideline y="635"/>
</glyph>
<glyph name="uni0184" format="2">
	<unicode hex="0184"/>
	<advance width="583"/>
	<outline>
		<contour>
			<point x="151" y="486" type="line"/>
			<point x="168" y="499"/>
			<point x="243" y="528"/>
			<point x="294" y="528" type="qcurve"/>
			<point x="350" y="528"/>
			<point x="437" y="488"/>
			<point x="497" y="416"/>
			<point x="528" y="317"/>
			<point x="528" y="258" type="qcurve"/>
			<point x="528" y="195"/>
			<point x="491" y="95"/>
			<point x="424" y="25"/>
			<point x="331" y="-12"/>
			<point x="274" y="-12" type="qcurve"/>
			<point x="205" y="-12"/>
			<point x="115" y="6"/>
			<point x="86" y="16" type="qcurve"/>
			<point x="86" y="651" type="line"/>
			<point x="23" y="720" type="line"/>
			<point x="34" y="727"/>
			<point x="66" y="743"/>
			<point x="101" y="759"/>
			<point x="136" y="772"/>
			<point x="151" y="776" type="qcurve"/>
		</contour>
		<contour>
			<point x="151" y="61" type="line"/>
			<point x="166" y="56"/>
			<point x="225" y="47"/>
			<point x="273" y="47" type="qcurve"/>
			<point x="357" y="47"/>
			<point x="459" y="156"/>
			<point x="459" y="258" type="qcurve"/>
			<point x="459" y="301"/>
			<point x="441" y="378"/>
			<point x="401" y="435"/>
			<point x="336" y="469"/>
			<point x="288" y="469" type="qcurve"/>
			<point x="265" y="469"/>
			<point x="223" y="460"/>
			<point x="187" y="446"/>
			<point x="160" y="430"/>
			<point x="151" y="423" type="qcurve"/>
		</contour>
	</outline>
</glyph>
<glyph name="uni018B" format="2">
	<unicode hex="018B"/>
	<advance width="612"/>
	<outline>
		<contour>
			<point x="454" y="366" type="line"/>
			<point x="454" y="59" type="line"/>
			<point x="429" y="56"/>
			<point x="394" y="52"/>
			<point x="344" y="52" type="curve" smooth="yes"/>
			<point x="224" y="52"/>
			<point x="119" y="87"/>
			<point x="119" y="209" type="curve" smooth="yes"/>
			<point x="119" y="336"/>
			<point x="216" y="366"/>
			<point x="368" y="366" type="curve" smooth="yes"/>
		</contour>
		<contour>
			<point x="359" y="424" type="line"/>
			<point x="162" y="424"/>
			<point x="48" y="366"/>
			<point x="48" y="210" type="curve" smooth="yes"/>
			<point x="48" y="66"/>
			<point x="152" y="-7"/>
			<point x="347" y="-7" type="curve" smooth="yes"/>
			<point x="403" y="-7"/>
			<point x="474" y="-1"/>
			<point x="522" y="12" type="curve"/>
			<point x="522" y="693" type="line"/>
			<point x="110" y="693" type="line"/>
			<point x="110" y="634" type="line"/>
			<point x="454" y="634" type="line"/>
			<point x="454" y="424" type="line"/>
		</contour>
	</outline>
</glyph>
<glyph name="uni018E" format="2">
	<unicode hex="018E"/>
	<advance width="555"/>
	<outline>
		<contour>
			<point x="39" y="0" type="line"/>
			<point x="39" y="59" type="line"/>
			<point x="397" y="59" type="line"/>
			<point x="397" y="335" type="line"/>
			<point x="101" y="335" type="line"/>
			<point x="101" y="393" type="line"/>
			<point x="397" y="393" type="line"/>
			<point x="397" y="634" type="line"/>
			<point x="65" y="634" type="line"/>
			<point x="65" y="693" type="line"/>
			<point x="465" y="693" type="line"/>
			<point x="465" y="0" type="line"/>
		</contour>
	</outline>
</glyph>
<glyph name="uni018F" format="2">
	<unicode hex="018F"/>
	<advance width="694"/>
	<outline>
		<contour>
			<point x="131" y="303" type="line"/>
			<point x="131" y="247"/>
			<point x="155" y="153"/>
			<point x="205" y="84"/>
			<point x="280" y="45"/>
			<point x="331" y="45" type="qcurve"/>
			<point x="389" y="45"/>
			<point x="474" y="92"/>
			<point x="529" y="167"/>
			<point x="558" y="258"/>
			<point x="561" y="303" type="qcurve"/>
		</contour>
		<contour>
			<point x="561" y="361" type="line"/>
			<point x="557" y="503"/>
			<point x="424" y="647"/>
			<point x="312" y="647" type="qcurve"/>
			<point x="254" y="647"/>
			<point x="157" y="622"/>
			<point x="129" y="602" type="qcurve"/>
			<point x="107" y="660" type="line"/>
			<point x="130" y="675"/>
			<point x="233" y="708"/>
			<point x="314" y="708" type="qcurve"/>
			<point x="385" y="708"/>
			<point x="502" y="661"/>
			<point x="586" y="570"/>
			<point x="632" y="437"/>
			<point x="632" y="351" type="qcurve"/>
			<point x="632" y="259"/>
			<point x="584" y="122"/>
			<point x="502" y="30"/>
			<point x="391" y="-15"/>
			<point x="328" y="-15" type="qcurve"/>
			<point x="199" y="-15"/>
			<point x="60" y="158"/>
			<point x="60" y="332" type="qcurve"/>
			<point x="60" y="339"/>
			<point x="61" y="356"/>
			<point x="62" y="361" type="qcurve"/>
		</contour>
	</outline>
</glyph>
<glyph name="uni0191" format="2">
	<unicode hex="0191"/>
	<advance width="520"/>
	<outline>
		<contour>
			<point x="158" y="331" type="line"/>
			<point x="448" y="331" type="line"/>
			<point x="448" y="390" type="line"/>
			<point x="158" y="390" type="line"/>
			<point x="158" y="634" type="line"/>
			<point x="485" y="634" type="line"/>
			<point x="485" y="693" type="line"/>
			<point x="90" y="693" type="line"/>
			<point x="90" y="-37" type="line"/>
			<point x="90" y="-101"/>
			<point x="72" y="-130"/>
			<point x="21" y="-130" type="curve" smooth="yes"/>
			<point x="5" y="-130"/>
			<point x="-9" y="-127"/>
			<point x="-16" y="-124" type="curve"/>
			<point x="-25" y="-178" type="line"/>
			<point x="-15" y="-182"/>
			<point x="7" y="-187"/>
			<point x="29" y="-187" type="curve" smooth="yes"/>
			<point x="140" y="-187"/>
			<point x="158" y="-117"/>
			<point x="158" y="-26" type="curve"/>
		</contour>
	</outline>
</glyph>
<glyph name="uni0193" format="2">
	<unicode hex="0193"/>
	<advance width="663"/>
	<outline>
		<contour>
			<point x="388" y="708" type="curve" smooth="yes"/>
			<point x="210" y="708"/>
			<point x="62" y="579"/>
			<point x="62" y="347" type="curve" smooth="yes"/>
			<point x="62" y="115"/>
			<point x="197" y="-14"/>
			<point x="379" y="-14" type="curve" smooth="yes"/>
			<point x="487" y="-14"/>
			<point x="565" y="8"/>
			<point x="590" y="19" type="curve"/>
			<point x="590" y="328" type="line"/>
			<point x="522" y="328" type="line"/>
			<point x="522" y="62" type="line"/>
			<point x="506" y="56"/>
			<point x="458" y="46"/>
			<point x="390" y="46" type="curve" smooth="yes"/>
			<point x="221" y="46"/>
			<point x="134" y="163"/>
			<point x="134" y="347" type="curve" smooth="yes"/>
			<point x="134" y="544"/>
			<point x="242" y="647"/>
			<point x="394" y="647" type="curve"/>
			<point x="482" y="647"/>
			<point x="546" y="619"/>
			<point x="565" y="608" type="curve"/>
			<point x="579" y="658" type="line" smooth="yes"/>
			<point x="589" y="694"/>
			<point x="602" y="734"/>
			<point x="656" y="734" type="curve" smooth="yes"/>
			<point x="675" y="734"/>
			<point x="691" y="730"/>
			<point x="699" y="727" type="curve"/>
			<point x="710" y="775" type="line"/>
			<point x="698" y="780"/>
			<point x="676" y="783"/>
			<point x="655" y="783" type="curve" smooth="yes"/>
			<point x="580" y="783"/>
			<point x="541" y="751"/>
			<point x="524" y="683" type="curve"/>
			<point x="497" y="695"/>
			<point x="453" y="708"/>
		</contour>
	</outline>
</glyph>
<glyph name="uni019A" format="2">
	<unicode hex="019A"/>
	<advance width="260"/>
	<outline>
		<contour>
			<point x="235" y="44" type="line"/>
			<point x="182" y="53"/>
			<point x="159" y="60"/>
			<point x="159" y="125" type="curve" smooth="yes"/>
			<point x="159" y="376" type="line"/>
			<point x="252" y="376" type="line"/>
			<point x="252" y="429" type="line"/>
			<point x="159" y="429" type="line"/>
			<point x="159" y="776" type="line"/>
			<point x="94" y="764" type="line"/>
			<point x="94" y="429" type="line"/>
			<point x="17" y="429" type="line"/>
			<point x="17" y="376" type="line"/>
			<point x="94" y="376" type="line"/>
			<point x="94" y="123" type="line" smooth="yes"/>
			<point x="94" y="25"/>
			<point x="139" y="-4"/>
			<point x="226" y="-10" type="curve"/>
		</contour>
	</outline>
</glyph>
<glyph name="uni019F" format="2">
	<unicode hex="019F"/>
	<advance width="774"/>
	<outline>
		<contour>
			<point x="712" y="347" type="curve" smooth="yes"/>
			<point x="712" y="585"/>
			<point x="562" y="708"/>
			<point x="387" y="708" type="curve" smooth="yes"/>
			<point x="212" y="708"/>
			<point x="62" y="585"/>
			<point x="62" y="347" type="curve" smooth="yes"/>
			<point x="62" y="109"/>
			<point x="212" y="-15"/>
			<point x="387" y="-15" type="curve" smooth="yes"/>
			<point x="562" y="-15"/>
			<point x="712" y="109"/>
		</contour>
		<contour>
			<point x="387" y="46" type="curve" smooth="yes"/>
			<point x="240" y="46"/>
			<point x="143" y="150"/>
			<point x="134" y="321" type="curve"/>
			<point x="639" y="321" type="line"/>
			<point x="630" y="150"/>
			<point x="533" y="46"/>
		</contour>
		<contour>
			<point x="387" y="647" type="curve" smooth="yes"/>
			<point x="532" y="647"/>
			<point x="628" y="546"/>
			<point x="639" y="379" type="curve"/>
			<point x="135" y="379" type="line"/>
			<point x="146" y="546"/>
			<point x="242" y="647"/>
		</contour>
	</outline>
</glyph>
<glyph name="uni01A2" format="2">
	<unicode hex="01A2"/>
	<advance width="1002"/>
	<outline>
		<contour>
			<point x="374" y="708" type="qcurve"/>
			<point x="428" y="708"/>
			<point x="526" y="674"/>
			<point x="567" y="640" type="qcurve"/>
			<point x="575" y="647"/>
			<point x="603" y="670"/>
			<point x="644" y="692"/>
			<point x="698" y="707"/>
			<point x="731" y="707" type="qcurve"/>
			<point x="788" y="707"/>
			<point x="858" y="672"/>
			<point x="898" y="607"/>
			<point x="912" y="514"/>
			<point x="912" y="456" type="qcurve"/>
			<point x="912" y="0" type="line"/>
			<point x="844" y="0" type="line"/>
			<point x="844" y="450" type="line"/>
			<point x="844" y="500"/>
			<point x="834" y="575"/>
			<point x="807" y="624"/>
			<point x="761" y="648"/>
			<point x="724" y="648" type="qcurve"/>
			<point x="703" y="648"/>
			<point x="667" y="637"/>
			<point x="638" y="622"/>
			<point x="615" y="605"/>
			<point x="608" y="599" type="qcurve"/>
			<point x="644" y="554"/>
			<point x="686" y="428"/>
			<point x="686" y="347" type="qcurve"/>
			<point x="686" y="258"/>
			<point x="636" y="122"/>
			<point x="550" y="31"/>
			<point x="437" y="-15"/>
			<point x="374" y="-15" type="qcurve"/>
			<point x="311" y="-15"/>
			<point x="198" y="31"/>
			<point x="112" y="122"/>
			<point x="62" y="258"/>
			<point x="62" y="347" type="qcurve"/>
			<point x="62" y="436"/>
			<point x="112" y="571"/>
			<point x="198" y="662"/>
			<point x="311" y="708"/>
		</contour>
		<contour>
			<point x="374" y="46" type="qcurve"/>
			<point x="429" y="46"/>
			<point x="518" y="88"/>
			<point x="581" y="166"/>
			<point x="614" y="277"/>
			<point x="614" y="347" type="qcurve"/>
			<point x="614" y="417"/>
			<point x="581" y="528"/>
			<point x="518" y="606"/>
			<point x="429" y="647"/>
			<point x="374" y="647" type="qcurve"/>
			<point x="318" y="647"/>
			<point x="230" y="606"/>
			<point x="167" y="528"/>
			<point x="134" y="417"/>
			<point x="134" y="347" type="qcurve"/>
			<point x="134" y="277"/>
			<point x="167" y="166"/>
			<point x="230" y="88"/>
			<point x="318" y="46"/>
		</contour>
	</outline>
	<guideline x="62"/>
	<guideline x="683"/>
	<guideline y="417"/>
</glyph>
<glyph name="uni01AE" format="2">
	<unicode hex="01AE"/>
	<advance width="548"/>
	<outline>
		<contour>
			<point x="308" y="634" type="line"/>
			<point x="530" y="634" type="line"/>
			<point x="530" y="693" type="line"/>
			<point x="18" y="693" type="line"/>
			<point x="18" y="634" type="line"/>
			<point x="240" y="634" type="line"/>
			<point x="240" y="-26" type="line"/>
			<point x="240" y="-117"/>
			<point x="258" y="-187"/>
			<point x="369" y="-187" type="curve" smooth="yes"/>
			<point x="391" y="-187"/>
			<point x="413" y="-182"/>
			<point x="423" y="-178" type="curve"/>
			<point x="414" y="-124" type="line"/>
			<point x="407" y="-127"/>
			<point x="393" y="-130"/>
			<point x="377" y="-130" type="curve" smooth="yes"/>
			<point x="326" y="-130"/>
			<point x="308" y="-101"/>
			<point x="308" y="-37" type="curve"/>
		</contour>
	</outline>
</glyph>
<glyph name="uni01B2" format="2">
	<unicode hex="01B2"/>
	<advance width="681"/>
	<outline>
		<contour>
			<point x="606" y="362" type="curve" smooth="yes"/>
			<point x="606" y="216"/>
			<point x="575" y="-15"/>
			<point x="330" y="-15" type="curve" smooth="yes"/>
			<point x="151" y="-15"/>
			<point x="87" y="104"/>
			<point x="87" y="251" type="curve" smooth="yes"/>
			<point x="87" y="693" type="line"/>
			<point x="155" y="693" type="line"/>
			<point x="155" y="261" type="line" smooth="yes"/>
			<point x="155" y="114"/>
			<point x="228" y="46"/>
			<point x="324" y="46" type="curve" smooth="yes"/>
			<point x="460" y="46"/>
			<point x="537" y="132"/>
			<point x="537" y="351" type="curve" smooth="yes"/>
			<point x="537" y="548"/>
			<point x="489" y="637"/>
			<point x="383" y="637" type="curve" smooth="yes"/>
			<point x="369" y="637"/>
			<point x="355" y="635"/>
			<point x="349" y="634" type="curve"/>
			<point x="343" y="688" type="line"/>
			<point x="352" y="691"/>
			<point x="375" y="694"/>
			<point x="398" y="694" type="curve" smooth="yes"/>
			<point x="562" y="694"/>
			<point x="606" y="537"/>
		</contour>
	</outline>
</glyph>
<glyph name="uni01B6" format="2">
	<unicode hex="01B6"/>
	<advance width="455"/>
	<outline>
		<contour>
			<point x="407" y="517" type="line"/>
			<point x="53" y="517" type="line"/>
			<point x="53" y="462" type="line"/>
			<point x="328" y="462" type="line"/>
			<point x="297" y="425"/>
			<point x="251" y="366"/>
			<point x="203" y="301" type="curve"/>
			<point x="67" y="301" type="line"/>
			<point x="67" y="248" type="line"/>
			<point x="165" y="248" type="line"/>
			<point x="116" y="178"/>
			<point x="69" y="105"/>
			<point x="38" y="47" type="curve"/>
			<point x="38" y="0" type="line"/>
			<point x="416" y="0" type="line"/>
			<point x="416" y="55" type="line"/>
			<point x="113" y="55" type="line"/>
			<point x="146" y="115"/>
			<point x="191" y="184"/>
			<point x="237" y="248" type="curve"/>
			<point x="402" y="248" type="line"/>
			<point x="402" y="301" type="line"/>
			<point x="276" y="301" type="line"/>
			<point x="329" y="371"/>
			<point x="378" y="432"/>
			<point x="407" y="464" type="curve"/>
		</contour>
	</outline>
</glyph>
<glyph name="uni01B8" format="2">
	<unicode hex="01B8"/>
	<advance width="546"/>
	<outline>
		<contour>
			<point x="49" y="189" type="qcurve"/>
			<point x="49" y="243"/>
			<point x="91" y="317"/>
			<point x="157" y="364"/>
			<point x="240" y="387"/>
			<point x="281" y="390" type="qcurve"/>
			<point x="251" y="423"/>
			<point x="189" y="494"/>
			<point x="131" y="563"/>
			<point x="82" y="626"/>
			<point x="64" y="652" type="qcurve"/>
			<point x="64" y="693" type="line"/>
			<point x="487" y="693" type="line"/>
			<point x="487" y="634" type="line"/>
			<point x="149" y="634" type="line"/>
			<point x="165" y="613"/>
			<point x="215" y="551"/>
			<point x="273" y="482"/>
			<point x="335" y="412"/>
			<point x="363" y="384" type="qcurve"/>
			<point x="363" y="341" type="line"/>
			<point x="353" y="341" type="line"/>
			<point x="305" y="341"/>
			<point x="221" y="328"/>
			<point x="158" y="294"/>
			<point x="121" y="235"/>
			<point x="121" y="189" type="qcurve"/>
			<point x="121" y="149"/>
			<point x="150" y="94"/>
			<point x="202" y="59"/>
			<point x="274" y="44"/>
			<point x="317" y="44" type="qcurve"/>
			<point x="351" y="44"/>
			<point x="407" y="54"/>
			<point x="452" y="69"/>
			<point x="485" y="85"/>
			<point x="495" y="91" type="qcurve"/>
			<point x="518" y="33" type="line"/>
			<point x="491" y="18"/>
			<point x="393" y="-15"/>
			<point x="318" y="-15" type="qcurve"/>
			<point x="259" y="-15"/>
			<point x="160" y="7"/>
			<point x="89" y="56"/>
			<point x="49" y="133"/>
		</contour>
	</outline>
</glyph>
<glyph name="uni01BE" format="2">
	<unicode hex="01BE"/>
	<advance width="449"/>
	<outline>
		<contour>
			<point x="143" y="462" type="line"/>
			<point x="143" y="412" type="line" smooth="yes"/>
			<point x="143" y="335"/>
			<point x="199" y="311"/>
			<point x="261" y="286" type="curve"/>
			<point x="336" y="256"/>
			<point x="409" y="224"/>
			<point x="409" y="130" type="curve" smooth="yes"/>
			<point x="409" y="37"/>
			<point x="334" y="-12"/>
			<point x="208" y="-12" type="curve" smooth="yes"/>
			<point x="114" y="-12"/>
			<point x="67" y="9"/>
			<point x="51" y="17" type="curve"/>
			<point x="68" y="76" type="line"/>
			<point x="77" y="72"/>
			<point x="124" y="46"/>
			<point x="208" y="46" type="curve" smooth="yes"/>
			<point x="287" y="46"/>
			<point x="342" y="68"/>
			<point x="342" y="127" type="curve" smooth="yes"/>
			<point x="342" y="184"/>
			<point x="303" y="202"/>
			<point x="207" y="242" type="curve" smooth="yes"/>
			<point x="132" y="273"/>
			<point x="78" y="297"/>
			<point x="78" y="413" type="curve" smooth="yes"/>
			<point x="78" y="669" type="line"/>
			<point x="143" y="681" type="line"/>
			<point x="143" y="517" type="line"/>
			<point x="349" y="517" type="line"/>
			<point x="349" y="462" type="line"/>
		</contour>
	</outline>
</glyph>
<glyph name="uni01C2" format="2">
	<unicode hex="01C2"/>
	<advance width="569"/>
	<outline>
		<contour>
			<point x="253" y="783" type="line"/>
			<point x="315" y="783" type="line"/>
			<point x="315" y="425" type="line"/>
			<point x="519" y="425" type="line"/>
			<point x="519" y="368" type="line"/>
			<point x="315" y="368" type="line"/>
			<point x="315" y="236" type="line"/>
			<point x="519" y="236" type="line"/>
			<point x="519" y="179" type="line"/>
			<point x="315" y="179" type="line"/>
			<point x="315" y="-185" type="line"/>
			<point x="253" y="-185" type="line"/>
			<point x="253" y="179" type="line"/>
			<point x="50" y="179" type="line"/>
			<point x="50" y="236" type="line"/>
			<point x="253" y="236" type="line"/>
			<point x="253" y="368" type="line"/>
			<point x="50" y="368" type="line"/>
			<point x="50" y="425" type="line"/>
			<point x="253" y="425" type="line"/>
		</contour>
	</outline>
	<guideline y="299"/>
</glyph>
<glyph name="uni01DD" format="2">
	<unicode hex="01DD"/>
	<advance width="548"/>
	<outline>
		<contour>
			<point x="493" y="259" type="curve" smooth="yes"/>
			<point x="493" y="416"/>
			<point x="420" y="529"/>
			<point x="239" y="529" type="curve" smooth="yes"/>
			<point x="170" y="529"/>
			<point x="114" y="509"/>
			<point x="96" y="499" type="curve"/>
			<point x="108" y="443" type="line"/>
			<point x="126" y="452"/>
			<point x="167" y="470"/>
			<point x="237" y="470" type="curve" smooth="yes"/>
			<point x="364" y="470"/>
			<point x="420" y="399"/>
			<point x="424" y="273" type="curve"/>
			<point x="61" y="273" type="line"/>
			<point x="60" y="264"/>
			<point x="59" y="252"/>
			<point x="59" y="242" type="curve" smooth="yes"/>
			<point x="59" y="70"/>
			<point x="140" y="-11"/>
			<point x="267" y="-11" type="curve" smooth="yes"/>
			<point x="381" y="-11"/>
			<point x="493" y="78"/>
		</contour>
		<contour>
			<point x="422" y="218" type="line"/>
			<point x="417" y="128"/>
			<point x="358" y="47"/>
			<point x="266" y="47" type="curve" smooth="yes"/>
			<point x="179" y="47"/>
			<point x="128" y="110"/>
			<point x="126" y="218" type="curve"/>
		</contour>
	</outline>
</glyph>
<glyph name="uni0222" format="2">
	<unicode hex="0222"/>
	<advance width="654"/>
	<outline>
		<contour>
			<point x="327" y="54" type="qcurve"/>
			<point x="372" y="54"/>
			<point x="447" y="71"/>
			<point x="501" y="106"/>
			<point x="531" y="162"/>
			<point x="531" y="201" type="qcurve"/>
			<point x="531" y="240"/>
			<point x="501" y="296"/>
			<point x="447" y="332"/>
			<point x="372" y="349"/>
			<point x="327" y="349" type="qcurve"/>
			<point x="282" y="349"/>
			<point x="207" y="332"/>
			<point x="153" y="296"/>
			<point x="123" y="240"/>
			<point x="123" y="201" type="qcurve"/>
			<point x="123" y="162"/>
			<point x="153" y="106"/>
			<point x="207" y="71"/>
			<point x="282" y="54"/>
		</contour>
		<contour>
			<point x="327" y="-4" type="qcurve"/>
			<point x="186" y="-4"/>
			<point x="51" y="107"/>
			<point x="51" y="201" type="qcurve"/>
			<point x="51" y="243"/>
			<point x="79" y="305"/>
			<point x="123" y="349"/>
			<point x="176" y="376"/>
			<point x="200" y="381" type="qcurve"/>
			<point x="151" y="397"/>
			<point x="98" y="475"/>
			<point x="98" y="545" type="qcurve"/>
			<point x="98" y="590"/>
			<point x="109" y="661"/>
			<point x="117" y="693" type="qcurve"/>
			<point x="181" y="693" type="line"/>
			<point x="176" y="667"/>
			<point x="164" y="594"/>
			<point x="164" y="552" type="qcurve"/>
			<point x="164" y="479"/>
			<point x="241" y="406"/>
			<point x="327" y="406" type="qcurve"/>
			<point x="413" y="406"/>
			<point x="490" y="479"/>
			<point x="490" y="552" type="qcurve"/>
			<point x="490" y="594"/>
			<point x="478" y="667"/>
			<point x="473" y="693" type="qcurve"/>
			<point x="537" y="693" type="line"/>
			<point x="545" y="661"/>
			<point x="556" y="590"/>
			<point x="556" y="545" type="qcurve"/>
			<point x="556" y="475"/>
			<point x="503" y="397"/>
			<point x="454" y="381" type="qcurve"/>
			<point x="478" y="376"/>
			<point x="531" y="349"/>
			<point x="575" y="305"/>
			<point x="603" y="243"/>
			<point x="603" y="201" type="qcurve"/>
			<point x="603" y="107"/>
			<point x="468" y="-4"/>
		</contour>
	</outline>
	<guideline x="327"/>
	<guideline y="201"/>
</glyph>
<glyph name="uni0228" format="2">
	<unicode hex="0228"/>
	<advance width="555"/>
	<outline>
		<contour>
			<point x="317" y="-36" type="qcurve"/>
			<point x="345" y="-48"/>
			<point x="378" y="-83"/>
			<point x="378" y="-112" type="qcurve"/>
			<point x="378" y="-124"/>
			<point x="370" y="-151"/>
			<point x="348" y="-173"/>
			<point x="310" y="-187"/>
			<point x="280" y="-187" type="qcurve"/>
			<point x="260" y="-187"/>
			<point x="218" y="-180"/>
			<point x="209" y="-175" type="qcurve"/>
			<point x="217" y="-132" type="line"/>
			<point x="228" y="-137"/>
			<point x="256" y="-141"/>
			<point x="276" y="-141" type="qcurve"/>
			<point x="317" y="-141"/>
			<point x="317" y="-112" type="qcurve"/>
			<point x="317" y="-95"/>
			<point x="289" y="-77"/>
			<point x="259" y="-65" type="qcurve"/>
			<point x="264" y="-51"/>
			<point x="280" y="-14"/>
			<point x="288" y="0" type="qcurve"/>
			<point x="90" y="0" type="line"/>
			<point x="90" y="693" type="line"/>
			<point x="490" y="693" type="line"/>
			<point x="490" y="634" type="line"/>
			<point x="158" y="634" type="line"/>
			<point x="158" y="393" type="line"/>
			<point x="454" y="393" type="line"/>
			<point x="454" y="335" type="line"/>
			<point x="158" y="335" type="line"/>
			<point x="158" y="59" type="line"/>
			<point x="516" y="59" type="line"/>
			<point x="516" y="0" type="line"/>
			<point x="334" y="0" type="line"/>
			<point x="329" y="-9"/>
			<point x="320" y="-28"/>
		</contour>
	</outline>
</glyph>
<glyph name="uni0234" format="2">
	<unicode hex="0234"/>
	<advance width="357"/>
	<outline>
		<contour>
			<point x="230" y="39" type="qcurve"/>
			<point x="201" y="39"/>
			<point x="165" y="11"/>
			<point x="148" y="-10" type="qcurve"/>
			<point x="148" y="-36" type="line"/>
			<point x="148" y="-83"/>
			<point x="194" y="-129"/>
			<point x="231" y="-129" type="qcurve"/>
			<point x="271" y="-129"/>
			<point x="308" y="-80"/>
			<point x="308" y="-45" type="qcurve"/>
			<point x="308" y="-12"/>
			<point x="270" y="39"/>
		</contour>
		<contour>
			<point x="16" y="-171" type="line"/>
			<point x="-18" y="-141" type="line"/>
			<point x="84" y="-19" type="line"/>
			<point x="83" y="-9"/>
			<point x="83" y="3"/>
			<point x="83" y="12" type="qcurve"/>
			<point x="83" y="764" type="line"/>
			<point x="148" y="776" type="line"/>
			<point x="148" y="56" type="line"/>
			<point x="168" y="76"/>
			<point x="215" y="94"/>
			<point x="241" y="94" type="qcurve"/>
			<point x="271" y="94"/>
			<point x="318" y="73"/>
			<point x="351" y="35"/>
			<point x="369" y="-15"/>
			<point x="369" y="-45" type="qcurve"/>
			<point x="369" y="-111"/>
			<point x="293" y="-185"/>
			<point x="231" y="-185" type="qcurve"/>
			<point x="168" y="-185"/>
			<point x="102" y="-129"/>
			<point x="90" y="-83" type="qcurve"/>
		</contour>
	</outline>
	<guideline x="148"/>
	<guideline x="227"/>
</glyph>
<glyph name="uni0236" format="2">
	<unicode hex="0236"/>
	<advance width="388"/>
	<outline>
		<contour>
			<point x="148" y="462" type="line"/>
			<point x="354" y="462" type="line"/>
			<point x="354" y="517" type="line"/>
			<point x="148" y="517" type="line"/>
			<point x="148" y="681" type="line"/>
			<point x="83" y="669" type="line"/>
			<point x="83" y="12" type="line"/>
			<point x="83" y="0"/>
			<point x="83" y="-6"/>
			<point x="84" y="-19" type="curve"/>
			<point x="-18" y="-141" type="line"/>
			<point x="16" y="-171" type="line"/>
			<point x="90" y="-83" type="line"/>
			<point x="106" y="-144"/>
			<point x="147" y="-185"/>
			<point x="231" y="-185" type="curve" smooth="yes"/>
			<point x="313" y="-185"/>
			<point x="369" y="-133"/>
			<point x="369" y="-45" type="curve" smooth="yes"/>
			<point x="369" y="34"/>
			<point x="320" y="94"/>
			<point x="241" y="94" type="curve" smooth="yes"/>
			<point x="207" y="94"/>
			<point x="174" y="82"/>
			<point x="148" y="56" type="curve"/>
		</contour>
		<contour>
			<point x="230" y="39" type="curve" smooth="yes"/>
			<point x="283" y="39"/>
			<point x="308" y="-1"/>
			<point x="308" y="-45" type="curve" smooth="yes"/>
			<point x="308" y="-91"/>
			<point x="284" y="-129"/>
			<point x="231" y="-129" type="curve" smooth="yes"/>
			<point x="182" y="-129"/>
			<point x="148" y="-98"/>
			<point x="148" y="-36" type="curve" smooth="yes"/>
			<point x="148" y="-10" type="line"/>
			<point x="171" y="18"/>
			<point x="191" y="39"/>
		</contour>
	</outline>
</glyph>
<glyph name="uni0239" format="2">
	<unicode hex="0239"/>
	<advance width="929"/>
	<outline>
		<contour>
			<point x="497" y="454" type="line"/>
			<point x="517" y="460"/>
			<point x="556" y="468"/>
			<point x="619" y="468" type="curve" smooth="yes"/>
			<point x="730" y="468"/>
			<point x="805" y="392"/>
			<point x="805" y="257" type="curve" smooth="yes"/>
			<point x="805" y="142"/>
			<point x="761" y="47"/>
			<point x="634" y="47" type="curve" smooth="yes"/>
			<point x="572" y="47"/>
			<point x="520" y="74"/>
			<point x="497" y="93" type="curve"/>
		</contour>
		<contour>
			<point x="497" y="30" type="line"/>
			<point x="520" y="13"/>
			<point x="573" y="-12"/>
			<point x="640" y="-12" type="curve" smooth="yes"/>
			<point x="789" y="-12"/>
			<point x="874" y="99"/>
			<point x="874" y="257" type="curve" smooth="yes"/>
			<point x="874" y="425"/>
			<point x="771" y="527"/>
			<point x="620" y="527" type="curve" smooth="yes"/>
			<point x="553" y="527"/>
			<point x="497" y="513"/>
			<point x="464" y="503" type="curve"/>
			<point x="431" y="513"/>
			<point x="376" y="527"/>
			<point x="309" y="527" type="curve" smooth="yes"/>
			<point x="158" y="527"/>
			<point x="55" y="425"/>
			<point x="55" y="257" type="curve" smooth="yes"/>
			<point x="55" y="99"/>
			<point x="140" y="-12"/>
			<point x="289" y="-12" type="curve" smooth="yes"/>
			<point x="356" y="-12"/>
			<point x="409" y="13"/>
			<point x="432" y="30" type="curve"/>
			<point x="432" y="-185" type="line"/>
			<point x="497" y="-185" type="line"/>
		</contour>
		<contour>
			<point x="432" y="93" type="line"/>
			<point x="409" y="74"/>
			<point x="357" y="47"/>
			<point x="295" y="47" type="curve" smooth="yes"/>
			<point x="168" y="47"/>
			<point x="124" y="142"/>
			<point x="124" y="257" type="curve" smooth="yes"/>
			<point x="124" y="392"/>
			<point x="199" y="468"/>
			<point x="310" y="468" type="curve" smooth="yes"/>
			<point x="373" y="468"/>
			<point x="412" y="460"/>
			<point x="432" y="454" type="curve"/>
		</contour>
	</outline>
</glyph>
<glyph name="uni023C" format="2">
	<unicode hex="023C"/>
	<advance width="473"/>
	<outline>
		<contour>
			<point x="300" y="-11" type="curve" smooth="yes"/>
			<point x="355" y="-11"/>
			<point x="413" y="5"/>
			<point x="437" y="18" type="curve"/>
			<point x="423" y="73" type="line"/>
			<point x="406" y="64"/>
			<point x="366" y="48"/>
			<point x="311" y="48" type="curve" smooth="yes"/>
			<point x="281" y="48"/>
			<point x="256" y="52"/>
			<point x="234" y="59" type="curve"/>
			<point x="363" y="464" type="line"/>
			<point x="385" y="459"/>
			<point x="405" y="451"/>
			<point x="422" y="443" type="curve"/>
			<point x="439" y="498" type="line"/>
			<point x="426" y="505"/>
			<point x="405" y="512"/>
			<point x="381" y="518" type="curve"/>
			<point x="406" y="597" type="line"/>
			<point x="354" y="613" type="line"/>
			<point x="326" y="527" type="line"/>
			<point x="315" y="528"/>
			<point x="304" y="529"/>
			<point x="293" y="529" type="curve" smooth="yes"/>
			<point x="146" y="529"/>
			<point x="55" y="419"/>
			<point x="55" y="257" type="curve" smooth="yes"/>
			<point x="55" y="150"/>
			<point x="92" y="66"/>
			<point x="165" y="23" type="curve"/>
			<point x="136" y="-68" type="line"/>
			<point x="188" y="-84" type="line"/>
			<point x="215" y="1" type="line"/>
			<point x="240" y="-6"/>
			<point x="269" y="-11"/>
		</contour>
		<contour>
			<point x="124" y="257" type="curve" smooth="yes"/>
			<point x="124" y="392"/>
			<point x="185" y="470"/>
			<point x="299" y="470" type="curve" smooth="yes"/>
			<point x="308" y="470" type="line"/>
			<point x="185" y="87" type="line"/>
			<point x="142" y="123"/>
			<point x="124" y="184"/>
		</contour>
	</outline>
</glyph>
<glyph name="uni023E" format="2">
	<unicode hex="023E"/>
	<advance width="579"/>
	<outline>
		<contour>
			<point x="18" y="693" type="line"/>
			<point x="18" y="634" type="line"/>
			<point x="240" y="634" type="line"/>
			<point x="240" y="295" type="line"/>
			<point x="27" y="-5" type="line"/>
			<point x="74" y="-37" type="line"/>
			<point x="240" y="197" type="line"/>
			<point x="240" y="0" type="line"/>
			<point x="307" y="0" type="line"/>
			<point x="307" y="283" type="line"/>
			<point x="619" y="724" type="line"/>
			<point x="571" y="756" type="line"/>
			<point x="526" y="693" type="line"/>
		</contour>
		<contour>
			<point x="307" y="634" type="line"/>
			<point x="485" y="634" type="line"/>
			<point x="307" y="382" type="line"/>
		</contour>
	</outline>
</glyph>
<glyph name="uni023F" format="2">
	<unicode hex="023F"/>
	<advance width="428"/>
	<outline>
		<contour>
			<point x="328" y="-130" type="qcurve"/>
			<point x="338" y="-130"/>
			<point x="352" y="-129"/>
			<point x="361" y="-127" type="qcurve"/>
			<point x="369" y="-179" type="line"/>
			<point x="362" y="-181"/>
			<point x="332" y="-185"/>
			<point x="318" y="-185" type="qcurve"/>
			<point x="290" y="-185"/>
			<point x="247" y="-176"/>
			<point x="210" y="-157"/>
			<point x="173" y="-124"/>
			<point x="150" y="-100" type="qcurve"/>
			<point x="127" y="-75"/>
			<point x="97" y="-36"/>
			<point x="73" y="-6"/>
			<point x="49" y="16"/>
			<point x="33" y="24" type="qcurve"/>
			<point x="55" y="77" type="line"/>
			<point x="81" y="63"/>
			<point x="149" y="47"/>
			<point x="191" y="47" type="qcurve"/>
			<point x="247" y="47"/>
			<point x="321" y="83"/>
			<point x="321" y="127" type="qcurve"/>
			<point x="321" y="148"/>
			<point x="308" y="177"/>
			<point x="278" y="201"/>
			<point x="229" y="223"/>
			<point x="193" y="238" type="qcurve"/>
			<point x="164" y="250"/>
			<point x="112" y="275"/>
			<point x="72" y="308"/>
			<point x="48" y="354"/>
			<point x="48" y="387" type="qcurve"/>
			<point x="48" y="450"/>
			<point x="143" y="527"/>
			<point x="226" y="527" type="qcurve"/>
			<point x="279" y="527"/>
			<point x="348" y="510"/>
			<point x="362" y="503" type="qcurve"/>
			<point x="347" y="445" type="line"/>
			<point x="335" y="451"/>
			<point x="278" y="470"/>
			<point x="223" y="470" type="qcurve"/>
			<point x="201" y="470"/>
			<point x="162" y="461"/>
			<point x="132" y="443"/>
			<point x="114" y="414"/>
			<point x="114" y="393" type="qcurve"/>
			<point x="114" y="372"/>
			<point x="130" y="342"/>
			<point x="161" y="319"/>
			<point x="206" y="299"/>
			<point x="235" y="287" type="qcurve"/>
			<point x="265" y="275"/>
			<point x="320" y="250"/>
			<point x="362" y="216"/>
			<point x="388" y="167"/>
			<point x="388" y="130" type="qcurve"/>
			<point x="388" y="60"/>
			<point x="283" y="-5"/>
			<point x="192" y="-5" type="qcurve"/>
			<point x="181" y="-5"/>
			<point x="151" y="-2"/>
			<point x="138" y="1" type="qcurve"/>
			<point x="146" y="-7"/>
			<point x="177" y="-43"/>
			<point x="200" y="-69" type="qcurve"/>
			<point x="213" y="-83"/>
			<point x="238" y="-106"/>
			<point x="267" y="-122"/>
			<point x="304" y="-130"/>
		</contour>
	</outline>
</glyph>
<glyph name="uni0243" format="2">
	<unicode hex="0243"/>
	<advance width="644"/>
	<outline>
		<contour>
			<point x="270" y="-6" type="qcurve"/>
			<point x="253" y="-6"/>
			<point x="208" y="-3"/>
			<point x="161" y="2"/>
			<point x="119" y="9"/>
			<point x="104" y="13" type="qcurve"/>
			<point x="104" y="168" type="line"/>
			<point x="24" y="168" type="line"/>
			<point x="24" y="221" type="line"/>
			<point x="104" y="221" type="line"/>
			<point x="104" y="680" type="line"/>
			<point x="122" y="685"/>
			<point x="166" y="692"/>
			<point x="213" y="697"/>
			<point x="258" y="699"/>
			<point x="277" y="699" type="qcurve"/>
			<point x="333" y="699"/>
			<point x="434" y="681"/>
			<point x="510" y="639"/>
			<point x="555" y="570"/>
			<point x="555" y="519" type="qcurve"/>
			<point x="555" y="463"/>
			<point x="498" y="384"/>
			<point x="450" y="369" type="qcurve"/>
			<point x="480" y="362"/>
			<point x="530" y="336"/>
			<point x="568" y="295"/>
			<point x="589" y="236"/>
			<point x="589" y="195" type="qcurve"/>
			<point x="589" y="97"/>
			<point x="433" y="-6"/>
		</contour>
		<contour>
			<point x="172" y="332" type="line"/>
			<point x="172" y="221" type="line"/>
			<point x="302" y="221" type="line"/>
			<point x="302" y="168" type="line"/>
			<point x="172" y="168" type="line"/>
			<point x="172" y="59" type="line"/>
			<point x="187" y="57"/>
			<point x="247" y="52"/>
			<point x="278" y="52" type="qcurve"/>
			<point x="324" y="52"/>
			<point x="411" y="64"/>
			<point x="477" y="96"/>
			<point x="517" y="152"/>
			<point x="517" y="196" type="qcurve"/>
			<point x="517" y="236"/>
			<point x="489" y="289"/>
			<point x="437" y="320"/>
			<point x="362" y="332"/>
			<point x="316" y="332" type="qcurve"/>
		</contour>
		<contour>
			<point x="172" y="390" type="line"/>
			<point x="304" y="390" type="line"/>
			<point x="341" y="390"/>
			<point x="407" y="401"/>
			<point x="456" y="430"/>
			<point x="484" y="479"/>
			<point x="484" y="517" type="qcurve"/>
			<point x="484" y="551"/>
			<point x="454" y="598"/>
			<point x="399" y="628"/>
			<point x="323" y="641"/>
			<point x="277" y="641" type="qcurve"/>
			<point x="240" y="641"/>
			<point x="189" y="637"/>
			<point x="172" y="634" type="qcurve"/>
		</contour>
	</outline>
</glyph>
<glyph name="uni0244" format="2">
	<unicode hex="0244"/>
	<advance width="698"/>
	<outline>
		<contour>
			<point x="349" y="-15" type="curve" smooth="yes"/>
			<point x="534" y="-15"/>
			<point x="602" y="105"/>
			<point x="602" y="257" type="curve" smooth="yes"/>
			<point x="602" y="351" type="line"/>
			<point x="674" y="351" type="line"/>
			<point x="674" y="405" type="line"/>
			<point x="602" y="405" type="line"/>
			<point x="602" y="693" type="line"/>
			<point x="534" y="693" type="line"/>
			<point x="534" y="405" type="line"/>
			<point x="164" y="405" type="line"/>
			<point x="164" y="693" type="line"/>
			<point x="96" y="693" type="line"/>
			<point x="96" y="405" type="line"/>
			<point x="24" y="405" type="line"/>
			<point x="24" y="351" type="line"/>
			<point x="96" y="351" type="line"/>
			<point x="96" y="257" type="line" smooth="yes"/>
			<point x="96" y="105"/>
			<point x="164" y="-15"/>
		</contour>
		<contour>
			<point x="349" y="46" type="curve" smooth="yes"/>
			<point x="238" y="46"/>
			<point x="164" y="114"/>
			<point x="164" y="266" type="curve" smooth="yes"/>
			<point x="164" y="351" type="line"/>
			<point x="534" y="351" type="line"/>
			<point x="534" y="266" type="line" smooth="yes"/>
			<point x="534" y="114"/>
			<point x="460" y="46"/>
		</contour>
	</outline>
</glyph>
<glyph name="uni0249" format="2">
	<unicode hex="0249"/>
	<advance width="267"/>
	<outline>
		<contour>
			<point x="5" y="-187" type="curve" smooth="yes"/>
			<point x="122" y="-187"/>
			<point x="167" y="-125"/>
			<point x="167" y="5" type="curve" smooth="yes"/>
			<point x="167" y="248" type="line"/>
			<point x="250" y="248" type="line"/>
			<point x="250" y="301" type="line"/>
			<point x="167" y="301" type="line"/>
			<point x="167" y="517" type="line"/>
			<point x="102" y="517" type="line"/>
			<point x="102" y="301" type="line"/>
			<point x="7" y="301" type="line"/>
			<point x="7" y="248" type="line"/>
			<point x="102" y="248" type="line"/>
			<point x="102" y="2" type="line" smooth="yes"/>
			<point x="102" y="-86"/>
			<point x="83" y="-130"/>
			<point x="4" y="-130" type="curve" smooth="yes"/>
			<point x="-11" y="-130"/>
			<point x="-29" y="-127"/>
			<point x="-38" y="-124" type="curve"/>
			<point x="-47" y="-177" type="line"/>
			<point x="-36" y="-182"/>
			<point x="-9" y="-187"/>
		</contour>
		<contour>
			<point x="182" y="673" type="curve" smooth="yes"/>
			<point x="182" y="703"/>
			<point x="161" y="723"/>
			<point x="134" y="723" type="curve" smooth="yes"/>
			<point x="107" y="723"/>
			<point x="86" y="703"/>
			<point x="86" y="673" type="curve" smooth="yes"/>
			<point x="86" y="643"/>
			<point x="107" y="623"/>
			<point x="134" y="623" type="curve" smooth="yes"/>
			<point x="161" y="623"/>
			<point x="182" y="643"/>
		</contour>
	</outline>
	<guideline y="301"/>
</glyph>
<glyph name="uni024E" format="2">
	<unicode hex="024E"/>
	<advance width="589"/>
	<outline>
		<contour>
			<point x="261" y="0" type="line"/>
			<point x="261" y="285" type="line"/>
			<point x="229" y="333"/>
			<point x="171" y="427"/>
			<point x="143" y="474" type="qcurve"/>
			<point x="20" y="474" type="line"/>
			<point x="20" y="528" type="line"/>
			<point x="111" y="528" type="line"/>
			<point x="87" y="570"/>
			<point x="41" y="652"/>
			<point x="20" y="693" type="qcurve"/>
			<point x="99" y="693" type="line"/>
			<point x="118" y="652"/>
			<point x="161" y="570"/>
			<point x="184" y="528" type="qcurve"/>
			<point x="408" y="528" type="line"/>
			<point x="431" y="570"/>
			<point x="475" y="652"/>
			<point x="495" y="693" type="qcurve"/>
			<point x="569" y="693" type="line"/>
			<point x="476" y="528" type="line"/>
			<point x="568" y="528" type="line"/>
			<point x="568" y="474" type="line"/>
			<point x="445" y="474" type="line"/>
			<point x="418" y="427"/>
			<point x="360" y="335"/>
			<point x="329" y="287" type="qcurve"/>
			<point x="329" y="0" type="line"/>
		</contour>
		<contour>
			<point x="297" y="342" type="qcurve"/>
			<point x="317" y="374"/>
			<point x="357" y="439"/>
			<point x="377" y="474" type="qcurve"/>
			<point x="214" y="474" type="line"/>
			<point x="234" y="439"/>
			<point x="276" y="374"/>
		</contour>
	</outline>
</glyph>
<glyph name="apostrophe" format="2">
	<unicode hex="02BC"/>
	<advance width="376"/>
	<outline>
		<contour>
			<point x="235" y="776" type="line"/>
			<point x="235" y="713"/>
			<point x="199" y="619"/>
			<point x="169" y="569" type="qcurve"/>
			<point x="124" y="590" type="line"/>
			<point x="141" y="625"/>
			<point x="164" y="703"/>
			<point x="164" y="741" type="qcurve"/>
			<point x="164" y="750"/>
			<point x="163" y="771"/>
			<point x="162" y="776" type="qcurve"/>
		</contour>
	</outline>
</glyph>
<glyph name="breve" format="2">
	<unicode hex="02D8"/>
	<advance width="376"/>
	<outline>
		<contour>
			<point x="188" y="613" type="qcurve"/>
			<point x="164" y="613"/>
			<point x="119" y="629"/>
			<point x="84" y="661"/>
			<point x="65" y="711"/>
			<point x="66" y="746" type="qcurve"/>
			<point x="109" y="746" type="line"/>
			<point x="109" y="739"/>
			<point x="114" y="713"/>
			<point x="130" y="688"/>
			<point x="161" y="669"/>
			<point x="188" y="669" type="qcurve"/>
			<point x="215" y="669"/>
			<point x="246" y="688"/>
			<point x="262" y="713"/>
			<point x="267" y="739"/>
			<point x="267" y="746" type="qcurve"/>
			<point x="310" y="746" type="line"/>
			<point x="311" y="711"/>
			<point x="292" y="661"/>
			<point x="257" y="629"/>
			<point x="212" y="613"/>
		</contour>
	</outline>
</glyph>
<glyph name="dotaccent" format="2">
	<unicode hex="02D9"/>
	<advance width="376"/>
	<outline>
		<contour>
			<point x="188" y="623" type="curve" smooth="yes"/>
			<point x="215" y="623"/>
			<point x="236" y="643"/>
			<point x="236" y="673" type="curve" smooth="yes"/>
			<point x="236" y="703"/>
			<point x="215" y="723"/>
			<point x="188" y="723" type="curve" smooth="yes"/>
			<point x="161" y="723"/>
			<point x="140" y="703"/>
			<point x="140" y="673" type="curve" smooth="yes"/>
			<point x="140" y="643"/>
			<point x="161" y="623"/>
		</contour>
	</outline>
</glyph>
<glyph name="tilde" format="2">
	<unicode hex="02DC"/>
	<advance width="376"/>
	<outline>
		<contour>
			<point x="251" y="629" type="curve" smooth="yes"/>
			<point x="304" y="629"/>
			<point x="333" y="677"/>
			<point x="347" y="709" type="curve"/>
			<point x="309" y="727" type="line"/>
			<point x="296" y="704"/>
			<point x="282" y="682"/>
			<point x="254" y="682" type="curve" smooth="yes"/>
			<point x="241" y="682"/>
			<point x="226" y="686"/>
			<point x="201" y="699" type="curve" smooth="yes"/>
			<point x="179" y="710"/>
			<point x="155" y="721"/>
			<point x="126" y="721" type="curve"/>
			<point x="73" y="721"/>
			<point x="44" y="673"/>
			<point x="30" y="641" type="curve"/>
			<point x="68" y="623" type="line"/>
			<point x="81" y="646"/>
			<point x="95" y="668"/>
			<point x="123" y="668" type="curve" smooth="yes"/>
			<point x="136" y="668"/>
			<point x="151" y="664"/>
			<point x="176" y="651" type="curve" smooth="yes"/>
			<point x="198" y="640"/>
			<point x="222" y="629"/>
		</contour>
	</outline>
</glyph>
<glyph name="eta" format="2">
	<unicode hex="03B7"/>
	<advance width="568"/>
	<outline>
		<contour>
			<point x="86" y="0" type="line"/>
			<point x="151" y="0" type="line"/>
			<point x="151" y="454" type="line"/>
			<point x="164" y="459"/>
			<point x="213" y="468"/>
			<point x="274" y="468" type="curve" smooth="yes"/>
			<point x="388" y="468"/>
			<point x="424" y="414"/>
			<point x="424" y="268" type="curve" smooth="yes"/>
			<point x="424" y="-185" type="line"/>
			<point x="489" y="-185" type="line"/>
			<point x="489" y="289" type="line" smooth="yes"/>
			<point x="489" y="431"/>
			<point x="442" y="527"/>
			<point x="284" y="527" type="curve" smooth="yes"/>
			<point x="190" y="527"/>
			<point x="125" y="510"/>
			<point x="86" y="499" type="curve"/>
		</contour>
	</outline>
</glyph>
<glyph name="lambda" format="2">
	<unicode hex="03BB"/>
	<advance width="492"/>
	<outline>
		<contour>
			<point x="260" y="455" type="qcurve"/>
			<point x="192" y="327"/>
			<point x="107" y="90"/>
			<point x="85" y="0" type="qcurve"/>
			<point x="19" y="0" type="line"/>
			<point x="31" y="49"/>
			<point x="74" y="178"/>
			<point x="131" y="319"/>
			<point x="198" y="462"/>
			<point x="233" y="526" type="qcurve"/>
			<point x="225" y="546"/>
			<point x="211" y="584"/>
			<point x="204" y="600" type="qcurve"/>
			<point x="188" y="636"/>
			<point x="164" y="683"/>
			<point x="138" y="710"/>
			<point x="106" y="720"/>
			<point x="82" y="720" type="qcurve"/>
			<point x="68" y="720"/>
			<point x="49" y="715"/>
			<point x="44" y="713" type="qcurve"/>
			<point x="33" y="767" type="line"/>
			<point x="41" y="770"/>
			<point x="73" y="776"/>
			<point x="95" y="776" type="qcurve"/>
			<point x="130" y="776"/>
			<point x="181" y="753"/>
			<point x="217" y="715"/>
			<point x="243" y="668"/>
			<point x="253" y="643" type="qcurve"/>
			<point x="328" y="458"/>
			<point x="431" y="143"/>
			<point x="471" y="0" type="qcurve"/>
			<point x="403" y="0" type="line"/>
			<point x="377" y="105"/>
			<point x="302" y="341"/>
		</contour>
	</outline>
</glyph>
<glyph name="sigma" format="2">
	<unicode hex="03C3"/>
	<advance width="607"/>
	<outline>
		<contour>
			<point x="522" y="236" type="curve" smooth="yes"/>
			<point x="522" y="334"/>
			<point x="476" y="413"/>
			<point x="432" y="462" type="curve"/>
			<point x="587" y="462" type="line"/>
			<point x="587" y="517" type="line"/>
			<point x="330" y="517" type="line" smooth="yes"/>
			<point x="197" y="517"/>
			<point x="55" y="449"/>
			<point x="55" y="239" type="curve" smooth="yes"/>
			<point x="55" y="82"/>
			<point x="158" y="-12"/>
			<point x="289" y="-12" type="curve" smooth="yes"/>
			<point x="427" y="-12"/>
			<point x="522" y="79"/>
		</contour>
		<contour>
			<point x="454" y="234" type="curve"/>
			<point x="454" y="114"/>
			<point x="391" y="47"/>
			<point x="289" y="47" type="curve" smooth="yes"/>
			<point x="194" y="47"/>
			<point x="124" y="119"/>
			<point x="124" y="239" type="curve" smooth="yes"/>
			<point x="124" y="437"/>
			<point x="262" y="462"/>
			<point x="325" y="462" type="curve" smooth="yes"/>
			<point x="356" y="462" type="line"/>
			<point x="414" y="411"/>
			<point x="454" y="324"/>
		</contour>
	</outline>
	<guideline y="239"/>
</glyph>
<glyph name="phi" format="2">
	<unicode hex="03C6"/>
	<advance width="758"/>
	<outline>
		<contour>
			<point x="379" y="529" type="curve" smooth="yes"/>
			<point x="570" y="529"/>
			<point x="704" y="429"/>
			<point x="704" y="260" type="curve" smooth="yes"/>
			<point x="704" y="93"/>
			<point x="583" y="-2"/>
			<point x="411" y="-8" type="curve"/>
			<point x="411" y="-185" type="line"/>
			<point x="347" y="-185" type="line"/>
			<point x="347" y="-8" type="line"/>
			<point x="175" y="-2"/>
			<point x="54" y="93"/>
			<point x="54" y="260" type="curve" smooth="yes"/>
			<point x="54" y="429"/>
			<point x="187" y="529"/>
		</contour>
		<contour>
			<point x="637" y="260" type="curve" smooth="yes"/>
			<point x="637" y="375"/>
			<point x="560" y="466"/>
			<point x="411" y="474" type="curve"/>
			<point x="411" y="47" type="line"/>
			<point x="567" y="58"/>
			<point x="637" y="140"/>
		</contour>
		<contour>
			<point x="121" y="260" type="curve" smooth="yes"/>
			<point x="121" y="140"/>
			<point x="191" y="58"/>
			<point x="347" y="47" type="curve"/>
			<point x="347" y="474" type="line"/>
			<point x="198" y="466"/>
			<point x="121" y="375"/>
		</contour>
	</outline>
	<guideline x="390"/>
	<guideline y="260"/>
</glyph>
<glyph name="omega" format="2">
	<unicode hex="03C9"/>
	<advance width="835"/>
	<outline>
		<contour>
			<point x="385" y="420" type="line"/>
			<point x="385" y="271" type="line"/>
			<point x="385" y="192"/>
			<point x="380" y="52"/>
			<point x="263" y="52" type="curve" smooth="yes"/>
			<point x="177" y="52"/>
			<point x="130" y="114"/>
			<point x="130" y="250" type="curve" smooth="yes"/>
			<point x="130" y="387"/>
			<point x="203" y="482"/>
			<point x="216" y="502" type="curve"/>
			<point x="157" y="527" type="line"/>
			<point x="138" y="502"/>
			<point x="62" y="394"/>
			<point x="62" y="248" type="curve" smooth="yes"/>
			<point x="62" y="62"/>
			<point x="145" y="-9"/>
			<point x="262" y="-9" type="curve" smooth="yes"/>
			<point x="331" y="-9"/>
			<point x="385" y="18"/>
			<point x="417" y="93" type="curve"/>
			<point x="449" y="18"/>
			<point x="504" y="-9"/>
			<point x="573" y="-9" type="curve" smooth="yes"/>
			<point x="690" y="-9"/>
			<point x="773" y="62"/>
			<point x="773" y="248" type="curve" smooth="yes"/>
			<point x="773" y="394"/>
			<point x="697" y="502"/>
			<point x="678" y="527" type="curve"/>
			<point x="619" y="502" type="line"/>
			<point x="632" y="482"/>
			<point x="705" y="387"/>
			<point x="705" y="250" type="curve" smooth="yes"/>
			<point x="705" y="114"/>
			<point x="658" y="52"/>
			<point x="572" y="52" type="curve" smooth="yes"/>
			<point x="455" y="52"/>
			<point x="450" y="192"/>
			<point x="450" y="271" type="curve" smooth="yes"/>
			<point x="450" y="420" type="line"/>
		</contour>
	</outline>
	<guideline x="263"/>
	<guideline x="571"/>
</glyph>
<glyph name="afii10051" format="2">
	<unicode hex="0402"/>
	<advance width="724"/>
	<outline>
		<contour>
			<point x="433" y="374" type="curve" smooth="yes"/>
			<point x="546" y="374"/>
			<point x="624" y="322"/>
			<point x="624" y="208" type="curve" smooth="yes"/>
			<point x="624" y="118"/>
			<point x="578" y="55"/>
			<point x="497" y="55" type="curve" smooth="yes"/>
			<point x="476" y="55"/>
			<point x="470" y="56"/>
			<point x="460" y="57" type="curve"/>
			<point x="456" y="2" type="line"/>
			<point x="469" y="-1"/>
			<point x="488" y="-2"/>
			<point x="499" y="-2" type="curve" smooth="yes"/>
			<point x="636" y="-2"/>
			<point x="695" y="100"/>
			<point x="695" y="208" type="curve" smooth="yes"/>
			<point x="695" y="348"/>
			<point x="605" y="434"/>
			<point x="439" y="434" type="curve" smooth="yes"/>
			<point x="371" y="434"/>
			<point x="315" y="420"/>
			<point x="295" y="413" type="curve"/>
			<point x="295" y="634" type="line"/>
			<point x="541" y="634" type="line"/>
			<point x="541" y="693" type="line"/>
			<point x="18" y="693" type="line"/>
			<point x="18" y="634" type="line"/>
			<point x="227" y="634" type="line"/>
			<point x="227" y="0" type="line"/>
			<point x="295" y="0" type="line"/>
			<point x="295" y="354" type="line"/>
			<point x="310" y="359"/>
			<point x="369" y="374"/>
		</contour>
	</outline>
	<guideline x="438"/>
</glyph>
<glyph name="afii10060" format="2">
	<unicode hex="040B"/>
	<advance width="729"/>
	<outline>
		<contour>
			<point x="439" y="434" type="qcurve"/>
			<point x="502" y="434"/>
			<point x="587" y="403"/>
			<point x="639" y="345"/>
			<point x="661" y="263"/>
			<point x="661" y="212" type="qcurve"/>
			<point x="661" y="0" type="line"/>
			<point x="593" y="0" type="line"/>
			<point x="593" y="211" type="line"/>
			<point x="593" y="295"/>
			<point x="520" y="374"/>
			<point x="433" y="374" type="qcurve"/>
			<point x="409" y="374"/>
			<point x="364" y="369"/>
			<point x="327" y="363"/>
			<point x="301" y="356"/>
			<point x="295" y="354" type="qcurve"/>
			<point x="295" y="0" type="line"/>
			<point x="227" y="0" type="line"/>
			<point x="227" y="634" type="line"/>
			<point x="18" y="634" type="line"/>
			<point x="18" y="693" type="line"/>
			<point x="541" y="693" type="line"/>
			<point x="541" y="634" type="line"/>
			<point x="295" y="634" type="line"/>
			<point x="295" y="413" type="line"/>
			<point x="310" y="418"/>
			<point x="388" y="434"/>
		</contour>
	</outline>
</glyph>
<glyph name="afii10026" format="2">
	<unicode hex="0418"/>
	<advance width="709"/>
	<outline>
		<contour>
			<point x="90" y="0" type="line"/>
			<point x="90" y="693" type="line"/>
			<point x="157" y="693" type="line"/>
			<point x="157" y="129" type="line"/>
			<point x="240" y="277"/>
			<point x="428" y="541"/>
			<point x="565" y="693" type="curve"/>
			<point x="619" y="693" type="line"/>
			<point x="619" y="0" type="line"/>
			<point x="552" y="0" type="line"/>
			<point x="552" y="584" type="line"/>
			<point x="434" y="447"/>
			<point x="224" y="139"/>
			<point x="147" y="0" type="curve"/>
		</contour>
	</outline>
</glyph>
<glyph name="afii10029" format="2">
	<unicode hex="041B"/>
	<advance width="680"/>
	<outline>
		<contour>
			<point x="522" y="634" type="line"/>
			<point x="522" y="0" type="line"/>
			<point x="590" y="0" type="line"/>
			<point x="590" y="693" type="line"/>
			<point x="229" y="693" type="line"/>
			<point x="229" y="631" type="line" smooth="yes"/>
			<point x="229" y="463"/>
			<point x="221" y="326"/>
			<point x="186" y="219" type="curve" smooth="yes"/>
			<point x="152" y="115"/>
			<point x="106" y="61"/>
			<point x="14" y="50" type="curve"/>
			<point x="21" y="-8" type="line"/>
			<point x="151" y="-2"/>
			<point x="219" y="93"/>
			<point x="253" y="207" type="curve"/>
			<point x="290" y="330"/>
			<point x="296" y="468"/>
			<point x="296" y="614" type="curve" smooth="yes"/>
			<point x="296" y="634" type="line"/>
		</contour>
	</outline>
</glyph>
<glyph name="afii10033" format="2">
	<unicode hex="041F"/>
	<advance width="685"/>
	<outline>
		<contour>
			<point x="90" y="693" type="line"/>
			<point x="90" y="0" type="line"/>
			<point x="158" y="0" type="line"/>
			<point x="158" y="634" type="line"/>
			<point x="527" y="634" type="line"/>
			<point x="527" y="0" type="line"/>
			<point x="595" y="0" type="line"/>
			<point x="595" y="693" type="line"/>
		</contour>
	</outline>
</glyph>
<glyph name="afii10037" format="2">
	<unicode hex="0423"/>
	<advance width="551"/>
	<outline>
		<contour>
			<point x="311" y="243" type="qcurve"/>
			<point x="332" y="290"/>
			<point x="376" y="401"/>
			<point x="418" y="520"/>
			<point x="455" y="639"/>
			<point x="469" y="693" type="qcurve"/>
			<point x="541" y="693" type="line"/>
			<point x="521" y="624"/>
			<point x="480" y="501"/>
			<point x="437" y="386"/>
			<point x="391" y="275"/>
			<point x="366" y="219" type="qcurve"/>
			<point x="350" y="183"/>
			<point x="312" y="103"/>
			<point x="256" y="36"/>
			<point x="175" y="-7"/>
			<point x="116" y="-7" type="qcurve"/>
			<point x="90" y="-7"/>
			<point x="51" y="4"/>
			<point x="42" y="9" type="qcurve"/>
			<point x="55" y="65" type="line"/>
			<point x="62" y="61"/>
			<point x="94" y="50"/>
			<point x="120" y="50" type="qcurve"/>
			<point x="154" y="50"/>
			<point x="205" y="71"/>
			<point x="242" y="105"/>
			<point x="270" y="151"/>
			<point x="281" y="176" type="qcurve"/>
			<point x="235" y="246"/>
			<point x="156" y="388"/>
			<point x="91" y="522"/>
			<point x="38" y="643"/>
			<point x="18" y="693" type="qcurve"/>
			<point x="94" y="693" type="line"/>
			<point x="128" y="601"/>
			<point x="237" y="365"/>
		</contour>
	</outline>
</glyph>
<glyph name="afii10038" format="2">
	<unicode hex="0424"/>
	<advance width="860"/>
	<outline>
		<contour>
			<point x="463" y="600" type="line"/>
			<point x="607" y="600"/>
			<point x="726" y="529"/>
			<point x="726" y="371" type="curve" smooth="yes"/>
			<point x="726" y="213"/>
			<point x="607" y="142"/>
			<point x="463" y="142" type="curve"/>
		</contour>
		<contour>
			<point x="397" y="0" type="line"/>
			<point x="463" y="0" type="line"/>
			<point x="463" y="86" type="line"/>
			<point x="615" y="86"/>
			<point x="798" y="165"/>
			<point x="798" y="371" type="curve"/>
			<point x="798" y="577"/>
			<point x="615" y="656"/>
			<point x="463" y="656" type="curve"/>
			<point x="463" y="738" type="line"/>
			<point x="397" y="738" type="line"/>
			<point x="397" y="656" type="line"/>
			<point x="245" y="656"/>
			<point x="62" y="577"/>
			<point x="62" y="371" type="curve" smooth="yes"/>
			<point x="62" y="165"/>
			<point x="245" y="86"/>
			<point x="397" y="86" type="curve"/>
		</contour>
		<contour>
			<point x="397" y="142" type="line"/>
			<point x="253" y="142"/>
			<point x="134" y="213"/>
			<point x="134" y="371" type="curve" smooth="yes"/>
			<point x="134" y="529"/>
			<point x="253" y="600"/>
			<point x="397" y="600" type="curve"/>
		</contour>
	</outline>
	<guideline y="375"/>
</glyph>
<glyph name="afii10042" format="2">
	<unicode hex="0428"/>
	<advance width="966"/>
	<outline>
		<contour>
			<point x="876" y="0" type="line"/>
			<point x="90" y="0" type="line"/>
			<point x="90" y="693" type="line"/>
			<point x="158" y="693" type="line"/>
			<point x="158" y="59" type="line"/>
			<point x="449" y="59" type="line"/>
			<point x="449" y="693" type="line"/>
			<point x="517" y="693" type="line"/>
			<point x="517" y="59" type="line"/>
			<point x="808" y="59" type="line"/>
			<point x="808" y="693" type="line"/>
			<point x="876" y="693" type="line"/>
		</contour>
	</outline>
</glyph>
<glyph name="afii10045" format="2">
	<unicode hex="042B"/>
	<advance width="822"/>
	<outline>
		<contour>
			<point x="664" y="0" type="line"/>
			<point x="732" y="0" type="line"/>
			<point x="732" y="693" type="line"/>
			<point x="664" y="693" type="line"/>
		</contour>
		<contour>
			<point x="263" y="375" type="curve" smooth="yes"/>
			<point x="385" y="375"/>
			<point x="480" y="341"/>
			<point x="480" y="215" type="curve" smooth="yes"/>
			<point x="480" y="85"/>
			<point x="380" y="53"/>
			<point x="264" y="53" type="curve" smooth="yes"/>
			<point x="218" y="53"/>
			<point x="183" y="57"/>
			<point x="158" y="60" type="curve"/>
			<point x="158" y="369" type="line"/>
			<point x="181" y="372"/>
			<point x="219" y="375"/>
		</contour>
		<contour>
			<point x="259" y="434" type="curve" smooth="yes"/>
			<point x="230" y="434"/>
			<point x="180" y="431"/>
			<point x="158" y="428" type="curve"/>
			<point x="158" y="693" type="line"/>
			<point x="90" y="693" type="line"/>
			<point x="90" y="13" type="line"/>
			<point x="138" y="0"/>
			<point x="209" y="-6"/>
			<point x="261" y="-6" type="curve" smooth="yes"/>
			<point x="460" y="-6"/>
			<point x="551" y="75"/>
			<point x="551" y="215" type="curve" smooth="yes"/>
			<point x="551" y="359"/>
			<point x="453" y="434"/>
		</contour>
	</outline>
	<guideline x="90"/>
</glyph>
<glyph name="afii10046" format="2">
	<unicode hex="042C"/>
	<advance width="596"/>
	<outline>
		<contour>
			<point x="267" y="375" type="qcurve"/>
			<point x="231" y="375"/>
			<point x="175" y="371"/>
			<point x="158" y="369" type="qcurve"/>
			<point x="158" y="60" type="line"/>
			<point x="177" y="58"/>
			<point x="230" y="53"/>
			<point x="268" y="53" type="qcurve"/>
			<point x="313" y="53"/>
			<point x="394" y="67"/>
			<point x="454" y="103"/>
			<point x="489" y="166"/>
			<point x="489" y="215" type="qcurve"/>
			<point x="489" y="262"/>
			<point x="456" y="324"/>
			<point x="397" y="360"/>
			<point x="315" y="375"/>
		</contour>
		<contour>
			<point x="263" y="434" type="qcurve"/>
			<point x="413" y="434"/>
			<point x="560" y="324"/>
			<point x="560" y="215" type="qcurve"/>
			<point x="560" y="110"/>
			<point x="419" y="-6"/>
			<point x="265" y="-6" type="qcurve"/>
			<point x="223" y="-6"/>
			<point x="126" y="3"/>
			<point x="90" y="13" type="qcurve"/>
			<point x="90" y="693" type="line"/>
			<point x="158" y="693" type="line"/>
			<point x="158" y="428" type="line"/>
			<point x="175" y="430"/>
			<point x="238" y="434"/>
		</contour>
	</outline>
	<guideline x="503"/>
</glyph>
<glyph name="afii10047" format="2">
	<unicode hex="042D"/>
	<advance width="604"/>
	<outline>
		<contour>
			<point x="213" y="46" type="curve" smooth="yes"/>
			<point x="133" y="46"/>
			<point x="79" y="67"/>
			<point x="48" y="84" type="curve"/>
			<point x="29" y="26" type="line"/>
			<point x="53" y="12"/>
			<point x="126" y="-15"/>
			<point x="219" y="-15" type="curve" smooth="yes"/>
			<point x="408" y="-15"/>
			<point x="542" y="113"/>
			<point x="542" y="346" type="curve" smooth="yes"/>
			<point x="542" y="579"/>
			<point x="406" y="708"/>
			<point x="228" y="708" type="curve" smooth="yes"/>
			<point x="125" y="708"/>
			<point x="52" y="680"/>
			<point x="31" y="666" type="curve"/>
			<point x="49" y="609" type="line"/>
			<point x="80" y="626"/>
			<point x="138" y="647"/>
			<point x="220" y="647" type="curve" smooth="yes"/>
			<point x="369" y="647"/>
			<point x="457" y="545"/>
			<point x="468" y="384" type="curve"/>
			<point x="156" y="384" type="line"/>
			<point x="156" y="326" type="line"/>
			<point x="469" y="326" type="line"/>
			<point x="463" y="159"/>
			<point x="384" y="46"/>
		</contour>
	</outline>
</glyph>
<glyph name="afii10048" format="2">
	<unicode hex="042E"/>
	<advance width="1012"/>
	<outline>
		<contour>
			<point x="638" y="708" type="curve" smooth="yes"/>
			<point x="481" y="708"/>
			<point x="345" y="600"/>
			<point x="328" y="392" type="curve"/>
			<point x="158" y="392" type="line"/>
			<point x="158" y="693" type="line"/>
			<point x="90" y="693" type="line"/>
			<point x="90" y="0" type="line"/>
			<point x="158" y="0" type="line"/>
			<point x="158" y="333" type="line"/>
			<point x="326" y="333" type="line"/>
			<point x="332" y="104"/>
			<point x="473" y="-15"/>
			<point x="638" y="-15" type="curve" smooth="yes"/>
			<point x="806" y="-15"/>
			<point x="950" y="109"/>
			<point x="950" y="347" type="curve" smooth="yes"/>
			<point x="950" y="585"/>
			<point x="806" y="708"/>
		</contour>
		<contour>
			<point x="638" y="46" type="curve" smooth="yes"/>
			<point x="490" y="46"/>
			<point x="398" y="161"/>
			<point x="398" y="347" type="curve" smooth="yes"/>
			<point x="398" y="533"/>
			<point x="490" y="647"/>
			<point x="638" y="647" type="curve" smooth="yes"/>
			<point x="786" y="647"/>
			<point x="878" y="533"/>
			<point x="878" y="347" type="curve" smooth="yes"/>
			<point x="878" y="161"/>
			<point x="786" y="46"/>
		</contour>
	</outline>
</glyph>
<glyph name="afii10072" format="2">
	<unicode hex="0436"/>
	<advance width="727"/>
	<outline>
		<contour>
			<point x="605" y="517" type="line"/>
			<point x="551" y="451"/>
			<point x="479" y="367"/>
			<point x="395" y="276" type="curve"/>
			<point x="395" y="517" type="line"/>
			<point x="331" y="517" type="line"/>
			<point x="331" y="276" type="line"/>
			<point x="247" y="367"/>
			<point x="175" y="451"/>
			<point x="121" y="517" type="curve"/>
			<point x="46" y="517" type="line"/>
			<point x="106" y="446"/>
			<point x="198" y="341"/>
			<point x="259" y="275" type="curve"/>
			<point x="168" y="209"/>
			<point x="70" y="91"/>
			<point x="18" y="0" type="curve"/>
			<point x="90" y="0" type="line"/>
			<point x="150" y="95"/>
			<point x="264" y="221"/>
			<point x="331" y="256" type="curve"/>
			<point x="331" y="0" type="line"/>
			<point x="395" y="0" type="line"/>
			<point x="395" y="256" type="line"/>
			<point x="462" y="221"/>
			<point x="576" y="95"/>
			<point x="636" y="0" type="curve"/>
			<point x="709" y="0" type="line"/>
			<point x="657" y="91"/>
			<point x="558" y="210"/>
			<point x="467" y="276" type="curve"/>
			<point x="528" y="342"/>
			<point x="620" y="447"/>
			<point x="679" y="517" type="curve"/>
		</contour>
	</outline>
	<guideline x="401"/>
	<guideline x="786"/>
	<guideline y="282"/>
</glyph>
<glyph name="afii10073" format="2">
	<unicode hex="0437"/>
	<advance width="477"/>
	<outline>
		<contour>
			<point x="206" y="47" type="curve" smooth="yes"/>
			<point x="112" y="47"/>
			<point x="63" y="73"/>
			<point x="55" y="77" type="curve"/>
			<point x="38" y="18" type="line"/>
			<point x="54" y="10"/>
			<point x="113" y="-12"/>
			<point x="207" y="-12" type="curve"/>
			<point x="347" y="-12"/>
			<point x="423" y="39"/>
			<point x="423" y="141" type="curve" smooth="yes"/>
			<point x="423" y="212"/>
			<point x="381" y="257"/>
			<point x="316" y="275" type="curve"/>
			<point x="363" y="290"/>
			<point x="403" y="327"/>
			<point x="403" y="385" type="curve" smooth="yes"/>
			<point x="403" y="479"/>
			<point x="333" y="528"/>
			<point x="202" y="528" type="curve" smooth="yes"/>
			<point x="125" y="528"/>
			<point x="70" y="509"/>
			<point x="52" y="500" type="curve"/>
			<point x="67" y="442" type="line"/>
			<point x="83" y="450"/>
			<point x="126" y="471"/>
			<point x="202" y="471" type="curve"/>
			<point x="269" y="471"/>
			<point x="337" y="453"/>
			<point x="337" y="383" type="curve" smooth="yes"/>
			<point x="337" y="311"/>
			<point x="253" y="299"/>
			<point x="204" y="299" type="curve" smooth="yes"/>
			<point x="137" y="299" type="line"/>
			<point x="137" y="244" type="line"/>
			<point x="209" y="244" type="line"/>
			<point x="265" y="244"/>
			<point x="356" y="231"/>
			<point x="356" y="141" type="curve" smooth="yes"/>
			<point x="356" y="79"/>
			<point x="299" y="47"/>
		</contour>
	</outline>
	<guideline y="-12"/>
</glyph>
<glyph name="afii10076" format="2">
	<unicode hex="043A"/>
	<advance width="506"/>
	<outline>
		<contour>
			<point x="151" y="0" type="line"/>
			<point x="151" y="255" type="line"/>
			<point x="229" y="210"/>
			<point x="348" y="99"/>
			<point x="411" y="0" type="curve"/>
			<point x="488" y="0" type="line"/>
			<point x="433" y="94"/>
			<point x="317" y="217"/>
			<point x="225" y="276" type="curve"/>
			<point x="288" y="335"/>
			<point x="404" y="449"/>
			<point x="466" y="517" type="curve"/>
			<point x="388" y="517" type="line"/>
			<point x="343" y="467"/>
			<point x="226" y="349"/>
			<point x="151" y="278" type="curve"/>
			<point x="151" y="517" type="line"/>
			<point x="86" y="517" type="line"/>
			<point x="86" y="0" type="line"/>
		</contour>
	</outline>
</glyph>
<glyph name="afii10077" format="2">
	<unicode hex="043B"/>
	<advance width="580"/>
	<outline>
		<contour>
			<point x="429" y="462" type="line"/>
			<point x="429" y="0" type="line"/>
			<point x="494" y="0" type="line"/>
			<point x="494" y="517" type="line"/>
			<point x="176" y="517" type="line"/>
			<point x="176" y="454" type="line" smooth="yes"/>
			<point x="176" y="342"/>
			<point x="171" y="244"/>
			<point x="145" y="171" type="curve" smooth="yes"/>
			<point x="119" y="98"/>
			<point x="80" y="59"/>
			<point x="14" y="45" type="curve"/>
			<point x="23" y="-9" type="line"/>
			<point x="122" y="1"/>
			<point x="179" y="73"/>
			<point x="208" y="161" type="curve" smooth="yes"/>
			<point x="236" y="246"/>
			<point x="239" y="362"/>
			<point x="239" y="441" type="curve" smooth="yes"/>
			<point x="239" y="462" type="line"/>
		</contour>
	</outline>
	<guideline x="349"/>
	<guideline y="535"/>
</glyph>
<glyph name="afii10078" format="2">
	<unicode hex="043C"/>
	<advance width="723"/>
	<outline>
		<contour>
			<point x="331" y="72" type="line"/>
			<point x="306" y="131"/>
			<point x="209" y="347"/>
			<point x="164" y="425" type="curve"/>
			<point x="147" y="272"/>
			<point x="140" y="137"/>
			<point x="135" y="0" type="curve"/>
			<point x="74" y="0" type="line"/>
			<point x="79" y="171"/>
			<point x="92" y="350"/>
			<point x="112" y="517" type="curve"/>
			<point x="179" y="517" type="line"/>
			<point x="215" y="460"/>
			<point x="291" y="302"/>
			<point x="362" y="145" type="curve"/>
			<point x="433" y="302"/>
			<point x="509" y="460"/>
			<point x="545" y="517" type="curve"/>
			<point x="611" y="517" type="line"/>
			<point x="631" y="350"/>
			<point x="644" y="171"/>
			<point x="649" y="0" type="curve"/>
			<point x="587" y="0" type="line"/>
			<point x="582" y="137"/>
			<point x="575" y="272"/>
			<point x="558" y="425" type="curve"/>
			<point x="513" y="347"/>
			<point x="416" y="131"/>
			<point x="391" y="72" type="curve"/>
		</contour>
	</outline>
	<guideline y="413"/>
</glyph>
<glyph name="afii10081" format="2">
	<unicode hex="043F"/>
	<advance width="571"/>
	<outline>
		<contour>
			<point x="485" y="0" type="line"/>
			<point x="420" y="0" type="line"/>
			<point x="420" y="462" type="line"/>
			<point x="151" y="462" type="line"/>
			<point x="151" y="0" type="line"/>
			<point x="86" y="0" type="line"/>
			<point x="86" y="517" type="line"/>
			<point x="485" y="517" type="line"/>
		</contour>
	</outline>
	<guideline x="602"/>
</glyph>
<glyph name="afii10086" format="2">
	<unicode hex="0444"/>
	<advance width="754"/>
	<outline>
		<contour>
			<point x="409" y="776" type="line"/>
			<point x="345" y="764" type="line"/>
			<point x="345" y="520" type="line"/>
			<point x="207" y="520"/>
			<point x="54" y="439"/>
			<point x="54" y="258" type="curve" smooth="yes"/>
			<point x="54" y="77"/>
			<point x="207" y="-4"/>
			<point x="345" y="-4" type="curve"/>
			<point x="345" y="-185" type="line"/>
			<point x="409" y="-185" type="line"/>
			<point x="409" y="-4" type="line"/>
			<point x="547" y="-4"/>
			<point x="700" y="77"/>
			<point x="700" y="258" type="curve" smooth="yes"/>
			<point x="700" y="439"/>
			<point x="547" y="520"/>
			<point x="409" y="520" type="curve"/>
		</contour>
		<contour>
			<point x="345" y="51" type="line"/>
			<point x="219" y="52"/>
			<point x="122" y="129"/>
			<point x="122" y="258" type="curve"/>
			<point x="122" y="387"/>
			<point x="219" y="464"/>
			<point x="345" y="465" type="curve"/>
		</contour>
		<contour>
			<point x="409" y="465" type="line"/>
			<point x="535" y="464"/>
			<point x="632" y="387"/>
			<point x="632" y="258" type="curve" smooth="yes"/>
			<point x="632" y="129"/>
			<point x="535" y="52"/>
			<point x="409" y="51" type="curve"/>
		</contour>
	</outline>
	<guideline y="258"/>
</glyph>
<glyph name="afii10092" format="2">
	<unicode hex="044A"/>
	<advance width="579"/>
	<outline>
		<contour>
			<point x="218" y="517" type="line"/>
			<point x="218" y="310" type="line"/>
			<point x="242" y="317"/>
			<point x="295" y="326"/>
			<point x="345" y="326" type="curve" smooth="yes"/>
			<point x="456" y="326"/>
			<point x="550" y="281"/>
			<point x="550" y="158" type="curve" smooth="yes"/>
			<point x="550" y="35"/>
			<point x="457" y="-11"/>
			<point x="336" y="-11" type="curve" smooth="yes"/>
			<point x="263" y="-11"/>
			<point x="188" y="0"/>
			<point x="153" y="12" type="curve"/>
			<point x="153" y="462" type="line"/>
			<point x="16" y="462" type="line"/>
			<point x="16" y="517" type="line"/>
		</contour>
		<contour>
			<point x="336" y="47" type="curve" smooth="yes"/>
			<point x="425" y="47"/>
			<point x="483" y="79"/>
			<point x="483" y="158" type="curve" smooth="yes"/>
			<point x="483" y="234"/>
			<point x="422" y="268"/>
			<point x="343" y="268" type="curve" smooth="yes"/>
			<point x="299" y="268"/>
			<point x="252" y="265"/>
			<point x="218" y="253" type="curve"/>
			<point x="218" y="57" type="line"/>
			<point x="235" y="53"/>
			<point x="284" y="47"/>
		</contour>
	</outline>
</glyph>
<glyph name="afii10094" format="2">
	<unicode hex="044C"/>
	<advance width="512"/>
	<outline>
		<contour>
			<point x="86" y="517" type="line"/>
			<point x="151" y="517" type="line"/>
			<point x="151" y="310" type="line"/>
			<point x="169" y="315"/>
			<point x="240" y="326"/>
			<point x="278" y="326" type="qcurve"/>
			<point x="320" y="326"/>
			<point x="394" y="308"/>
			<point x="450" y="268"/>
			<point x="483" y="204"/>
			<point x="483" y="158" type="qcurve"/>
			<point x="483" y="112"/>
			<point x="450" y="48"/>
			<point x="393" y="7"/>
			<point x="314" y="-11"/>
			<point x="269" y="-11" type="qcurve"/>
			<point x="242" y="-11"/>
			<point x="187" y="-7"/>
			<point x="139" y="-1"/>
			<point x="99" y="7"/>
			<point x="86" y="12" type="qcurve"/>
		</contour>
		<contour>
			<point x="269" y="47" type="qcurve"/>
			<point x="336" y="47"/>
			<point x="416" y="98"/>
			<point x="416" y="158" type="qcurve"/>
			<point x="416" y="186"/>
			<point x="394" y="228"/>
			<point x="357" y="255"/>
			<point x="306" y="268"/>
			<point x="276" y="268" type="qcurve"/>
			<point x="243" y="268"/>
			<point x="177" y="262"/>
			<point x="151" y="253" type="qcurve"/>
			<point x="151" y="57" type="line"/>
			<point x="164" y="54"/>
			<point x="230" y="47"/>
		</contour>
	</outline>
	<guideline y="47"/>
</glyph>
<glyph name="afii10095" format="2">
	<unicode hex="044D"/>
	<advance width="477"/>
	<outline>
		<contour>
			<point x="353" y="240" type="line"/>
			<point x="346" y="126"/>
			<point x="297" y="48"/>
			<point x="167" y="48" type="curve" smooth="yes"/>
			<point x="107" y="48"/>
			<point x="59" y="66"/>
			<point x="43" y="76" type="curve"/>
			<point x="29" y="18" type="line"/>
			<point x="53" y="5"/>
			<point x="109" y="-11"/>
			<point x="171" y="-11" type="curve" smooth="yes"/>
			<point x="349" y="-11"/>
			<point x="422" y="111"/>
			<point x="422" y="260" type="curve" smooth="yes"/>
			<point x="422" y="400"/>
			<point x="349" y="529"/>
			<point x="176" y="529" type="curve" smooth="yes"/>
			<point x="125" y="529"/>
			<point x="62" y="514"/>
			<point x="46" y="501" type="curve"/>
			<point x="62" y="446" type="line"/>
			<point x="76" y="455"/>
			<point x="112" y="470"/>
			<point x="174" y="470" type="curve" smooth="yes"/>
			<point x="291" y="470"/>
			<point x="341" y="395"/>
			<point x="352" y="295" type="curve"/>
			<point x="135" y="295" type="line"/>
			<point x="135" y="240" type="line"/>
		</contour>
	</outline>
</glyph>
<glyph name="afii10096" format="2">
	<unicode hex="044E"/>
	<advance width="782"/>
	<outline>
		<contour>
			<point x="727" y="258" type="curve" smooth="yes"/>
			<point x="727" y="421"/>
			<point x="631" y="529"/>
			<point x="496" y="529" type="curve" smooth="yes"/>
			<point x="371" y="529"/>
			<point x="280" y="437"/>
			<point x="266" y="295" type="curve"/>
			<point x="151" y="295" type="line"/>
			<point x="151" y="517" type="line"/>
			<point x="86" y="517" type="line"/>
			<point x="86" y="0" type="line"/>
			<point x="151" y="0" type="line"/>
			<point x="151" y="241" type="line"/>
			<point x="265" y="241" type="line"/>
			<point x="271" y="87"/>
			<point x="366" y="-12"/>
			<point x="496" y="-12" type="curve" smooth="yes"/>
			<point x="631" y="-12"/>
			<point x="727" y="95"/>
		</contour>
		<contour>
			<point x="658" y="258" type="curve" smooth="yes"/>
			<point x="658" y="129"/>
			<point x="596" y="47"/>
			<point x="496" y="47" type="curve" smooth="yes"/>
			<point x="396" y="47"/>
			<point x="334" y="129"/>
			<point x="334" y="258" type="curve" smooth="yes"/>
			<point x="334" y="387"/>
			<point x="396" y="470"/>
			<point x="496" y="470" type="curve" smooth="yes"/>
			<point x="596" y="470"/>
			<point x="658" y="387"/>
		</contour>
	</outline>
</glyph>
<glyph name="afii10099" format="2">
	<unicode hex="0452"/>
	<advance width="569"/>
	<outline>
		<contour>
			<point x="489" y="-26" type="line"/>
			<point x="489" y="-60"/>
			<point x="481" y="-119"/>
			<point x="455" y="-162"/>
			<point x="406" y="-186"/>
			<point x="364" y="-186" type="qcurve"/>
			<point x="347" y="-186"/>
			<point x="319" y="-181"/>
			<point x="311" y="-178" type="qcurve"/>
			<point x="320" y="-125" type="line"/>
			<point x="332" y="-130"/>
			<point x="356" y="-130" type="qcurve"/>
			<point x="394" y="-130"/>
			<point x="424" y="-85"/>
			<point x="424" y="-37" type="qcurve"/>
			<point x="424" y="268" type="line"/>
			<point x="424" y="323"/>
			<point x="409" y="399"/>
			<point x="374" y="447"/>
			<point x="316" y="468"/>
			<point x="272" y="468" type="qcurve"/>
			<point x="255" y="468"/>
			<point x="216" y="462"/>
			<point x="182" y="455"/>
			<point x="155" y="447"/>
			<point x="151" y="445" type="qcurve"/>
			<point x="151" y="0" type="line"/>
			<point x="86" y="0" type="line"/>
			<point x="86" y="628" type="line"/>
			<point x="6" y="628" type="line"/>
			<point x="6" y="680" type="line"/>
			<point x="86" y="680" type="line"/>
			<point x="86" y="764" type="line"/>
			<point x="151" y="776" type="line"/>
			<point x="151" y="680" type="line"/>
			<point x="338" y="680" type="line"/>
			<point x="338" y="628" type="line"/>
			<point x="151" y="628" type="line"/>
			<point x="151" y="502" type="line"/>
			<point x="183" y="514"/>
			<point x="249" y="527"/>
			<point x="282" y="527" type="qcurve"/>
			<point x="342" y="527"/>
			<point x="422" y="493"/>
			<point x="470" y="430"/>
			<point x="489" y="342"/>
			<point x="489" y="289" type="qcurve"/>
		</contour>
	</outline>
</glyph>
<glyph name="afii10193" format="2">
	<unicode hex="045F"/>
	<advance width="571"/>
	<outline>
		<contour>
			<point x="254" y="0" type="line"/>
			<point x="86" y="0" type="line"/>
			<point x="86" y="517" type="line"/>
			<point x="151" y="517" type="line"/>
			<point x="151" y="55" type="line"/>
			<point x="420" y="55" type="line"/>
			<point x="420" y="517" type="line"/>
			<point x="485" y="517" type="line"/>
			<point x="485" y="0" type="line"/>
			<point x="317" y="0" type="line"/>
			<point x="317" y="-145" type="line"/>
			<point x="254" y="-145" type="line"/>
		</contour>
	</outline>
	<guideline y="-145"/>
</glyph>
<glyph name="uni0472" format="2">
	<unicode hex="0472"/>
	<advance width="774"/>
	<outline>
		<contour>
			<point x="712" y="347" type="curve" smooth="yes"/>
			<point x="712" y="585"/>
			<point x="562" y="708"/>
			<point x="387" y="708" type="curve" smooth="yes"/>
			<point x="212" y="708"/>
			<point x="62" y="585"/>
			<point x="62" y="347" type="curve" smooth="yes"/>
			<point x="62" y="109"/>
			<point x="212" y="-15"/>
			<point x="387" y="-15" type="curve" smooth="yes"/>
			<point x="562" y="-15"/>
			<point x="712" y="109"/>
		</contour>
		<contour>
			<point x="387" y="647" type="curve" smooth="yes"/>
			<point x="530" y="647"/>
			<point x="626" y="548"/>
			<point x="638" y="385" type="curve"/>
			<point x="615" y="361"/>
			<point x="575" y="337"/>
			<point x="526" y="337" type="curve" smooth="yes"/>
			<point x="425" y="337"/>
			<point x="379" y="408"/>
			<point x="277" y="408" type="curve" smooth="yes"/>
			<point x="206" y="408"/>
			<point x="163" y="381"/>
			<point x="134" y="350" type="curve"/>
			<point x="135" y="535"/>
			<point x="234" y="647"/>
		</contour>
		<contour>
			<point x="515" y="276" type="curve" smooth="yes"/>
			<point x="572" y="276"/>
			<point x="611" y="293"/>
			<point x="639" y="317" type="curve"/>
			<point x="628" y="148"/>
			<point x="532" y="46"/>
			<point x="387" y="46" type="curve" smooth="yes"/>
			<point x="252" y="46"/>
			<point x="160" y="133"/>
			<point x="138" y="279" type="curve"/>
			<point x="154" y="307"/>
			<point x="203" y="347"/>
			<point x="266" y="347" type="curve" smooth="yes"/>
			<point x="367" y="347"/>
			<point x="413" y="276"/>
		</contour>
	</outline>
	<guideline x="387"/>
	<guideline y="347"/>
</glyph>
<glyph name="uni0473" format="2">
	<unicode hex="0473"/>
	<advance width="582"/>
	<outline>
		<contour>
			<point x="527" y="258" type="qcurve"/>
			<point x="527" y="197"/>
			<point x="492" y="97"/>
			<point x="429" y="27"/>
			<point x="343" y="-12"/>
			<point x="291" y="-12" type="qcurve"/>
			<point x="239" y="-12"/>
			<point x="153" y="27"/>
			<point x="90" y="97"/>
			<point x="55" y="197"/>
			<point x="55" y="258" type="qcurve"/>
			<point x="55" y="319"/>
			<point x="90" y="419"/>
			<point x="153" y="490"/>
			<point x="239" y="529"/>
			<point x="291" y="529" type="qcurve"/>
			<point x="343" y="529"/>
			<point x="429" y="490"/>
			<point x="492" y="419"/>
			<point x="527" y="319"/>
		</contour>
		<contour>
			<point x="217" y="262" type="qcurve"/>
			<point x="187" y="262"/>
			<point x="136" y="230"/>
			<point x="127" y="210" type="qcurve"/>
			<point x="138" y="134"/>
			<point x="224" y="47"/>
			<point x="291" y="47" type="qcurve"/>
			<point x="366" y="47"/>
			<point x="453" y="152"/>
			<point x="458" y="241" type="qcurve"/>
			<point x="447" y="230"/>
			<point x="410" y="211"/>
			<point x="385" y="211" type="qcurve"/>
			<point x="359" y="211"/>
			<point x="319" y="227"/>
			<point x="281" y="246"/>
			<point x="242" y="262"/>
		</contour>
		<contour>
			<point x="382" y="265" type="qcurve"/>
			<point x="406" y="265"/>
			<point x="445" y="284"/>
			<point x="456" y="298" type="qcurve"/>
			<point x="446" y="378"/>
			<point x="360" y="470"/>
			<point x="291" y="470" type="qcurve"/>
			<point x="255" y="470"/>
			<point x="195" y="443"/>
			<point x="152" y="392"/>
			<point x="126" y="320"/>
			<point x="124" y="275" type="qcurve"/>
			<point x="137" y="289"/>
			<point x="181" y="316"/>
			<point x="214" y="316" type="qcurve"/>
			<point x="240" y="316"/>
			<point x="280" y="300"/>
			<point x="318" y="281"/>
			<point x="357" y="265"/>
		</contour>
	</outline>
	<guideline y="258"/>
</glyph>
<glyph name="uni0474" format="2">
	<unicode hex="0474"/>
	<advance width="736"/>
	<outline>
		<contour>
			<point x="345" y="0" type="line"/>
			<point x="281" y="0" type="line"/>
			<point x="199" y="184"/>
			<point x="133" y="343"/>
			<point x="10" y="693" type="curve"/>
			<point x="86" y="693" type="line"/>
			<point x="167" y="456"/>
			<point x="230" y="275"/>
			<point x="315" y="78" type="curve"/>
			<point x="510" y="592" type="line" smooth="yes"/>
			<point x="547" y="690"/>
			<point x="591" y="703"/>
			<point x="642" y="703" type="curve" smooth="yes"/>
			<point x="697" y="703"/>
			<point x="731" y="672"/>
			<point x="747" y="653" type="curve"/>
			<point x="715" y="608" type="line"/>
			<point x="701" y="625"/>
			<point x="675" y="644"/>
			<point x="645" y="644" type="curve" smooth="yes"/>
			<point x="618" y="644"/>
			<point x="595" y="635"/>
			<point x="568" y="566" type="curve" smooth="yes"/>
		</contour>
	</outline>
</glyph>
<glyph name="uni048B" format="2">
	<unicode hex="048B"/>
	<advance width="592"/>
	<outline>
		<contour>
			<point x="438" y="0" type="line"/>
			<point x="498" y="0" type="line"/>
			<point x="493" y="-56"/>
			<point x="445" y="-116"/>
			<point x="427" y="-133" type="curve"/>
			<point x="472" y="-166" type="line"/>
			<point x="517" y="-127"/>
			<point x="570" y="-43"/>
			<point x="564" y="55" type="curve"/>
			<point x="502" y="55" type="line"/>
			<point x="502" y="517" type="line"/>
			<point x="441" y="517" type="line"/>
			<point x="348" y="418"/>
			<point x="215" y="219"/>
			<point x="150" y="103" type="curve"/>
			<point x="150" y="517" type="line"/>
			<point x="86" y="517" type="line"/>
			<point x="86" y="0" type="line"/>
			<point x="147" y="0" type="line"/>
			<point x="218" y="124"/>
			<point x="357" y="337"/>
			<point x="438" y="434" type="curve"/>
		</contour>
		<contour>
			<point x="294" y="605" type="curve" smooth="yes"/>
			<point x="368" y="605"/>
			<point x="419" y="648"/>
			<point x="432" y="724" type="curve"/>
			<point x="379" y="738" type="line"/>
			<point x="371" y="693"/>
			<point x="345" y="661"/>
			<point x="294" y="661" type="curve" smooth="yes"/>
			<point x="243" y="661"/>
			<point x="217" y="693"/>
			<point x="209" y="738" type="curve"/>
			<point x="156" y="724" type="line"/>
			<point x="169" y="648"/>
			<point x="220" y="605"/>
		</contour>
	</outline>
	<guideline y="-166"/>
</glyph>
<glyph name="afii10098" format="2">
	<unicode hex="0491"/>
	<advance width="397"/>
	<outline>
		<contour>
			<point x="382" y="462" type="line"/>
			<point x="151" y="462" type="line"/>
			<point x="151" y="0" type="line"/>
			<point x="86" y="0" type="line"/>
			<point x="86" y="517" type="line"/>
			<point x="321" y="517" type="line"/>
			<point x="321" y="650" type="line"/>
			<point x="382" y="650" type="line"/>
		</contour>
	</outline>
</glyph>
<glyph name="uni0493" format="2">
	<unicode hex="0493"/>
	<advance width="398"/>
	<outline>
		<contour>
			<point x="383" y="517" type="line"/>
			<point x="87" y="517" type="line"/>
			<point x="87" y="267" type="line"/>
			<point x="17" y="267" type="line"/>
			<point x="17" y="214" type="line"/>
			<point x="87" y="214" type="line"/>
			<point x="87" y="0" type="line"/>
			<point x="152" y="0" type="line"/>
			<point x="152" y="214" type="line"/>
			<point x="304" y="214" type="line"/>
			<point x="304" y="267" type="line"/>
			<point x="152" y="267" type="line"/>
			<point x="152" y="462" type="line"/>
			<point x="383" y="462" type="line"/>
		</contour>
	</outline>
</glyph>
<glyph name="uni0494" format="2">
	<unicode hex="0494"/>
	<advance width="601"/>
	<outline>
		<contour>
			<point x="297" y="374" type="curve" smooth="yes"/>
			<point x="423" y="374"/>
			<point x="493" y="282"/>
			<point x="493" y="124" type="curve" smooth="yes"/>
			<point x="493" y="-42"/>
			<point x="408" y="-125"/>
			<point x="300" y="-125" type="curve" smooth="yes"/>
			<point x="285" y="-125"/>
			<point x="265" y="-124"/>
			<point x="258" y="-122" type="curve"/>
			<point x="253" y="-181" type="line"/>
			<point x="261" y="-183"/>
			<point x="287" y="-185"/>
			<point x="307" y="-185" type="curve" smooth="yes"/>
			<point x="471" y="-185"/>
			<point x="564" y="-55"/>
			<point x="564" y="124" type="curve" smooth="yes"/>
			<point x="564" y="312"/>
			<point x="483" y="434"/>
			<point x="300" y="434" type="curve" smooth="yes"/>
			<point x="235" y="434"/>
			<point x="178" y="419"/>
			<point x="158" y="410" type="curve"/>
			<point x="158" y="634" type="line"/>
			<point x="478" y="634" type="line"/>
			<point x="478" y="693" type="line"/>
			<point x="90" y="693" type="line"/>
			<point x="90" y="0" type="line"/>
			<point x="158" y="0" type="line"/>
			<point x="158" y="351" type="line"/>
			<point x="173" y="358"/>
			<point x="233" y="374"/>
		</contour>
	</outline>
</glyph>
<glyph name="uni0496" format="2">
	<unicode hex="0496"/>
	<advance width="864"/>
	<outline>
		<contour>
			<point x="22" y="0" type="line"/>
			<point x="88" y="123"/>
			<point x="215" y="272"/>
			<point x="318" y="366" type="curve"/>
			<point x="248" y="445"/>
			<point x="102" y="613"/>
			<point x="37" y="693" type="curve"/>
			<point x="116" y="693" type="line"/>
			<point x="167" y="629"/>
			<point x="304" y="467"/>
			<point x="391" y="368" type="curve"/>
			<point x="391" y="693" type="line"/>
			<point x="455" y="693" type="line"/>
			<point x="455" y="368" type="line"/>
			<point x="542" y="467"/>
			<point x="679" y="629"/>
			<point x="730" y="693" type="curve"/>
			<point x="808" y="693" type="line"/>
			<point x="744" y="614"/>
			<point x="598" y="446"/>
			<point x="528" y="367" type="curve"/>
			<point x="615" y="287"/>
			<point x="720" y="168"/>
			<point x="790" y="59" type="curve"/>
			<point x="858" y="59" type="line"/>
			<point x="858" y="-185" type="line"/>
			<point x="793" y="-185" type="line"/>
			<point x="793" y="0" type="line"/>
			<point x="749" y="0" type="line"/>
			<point x="682" y="121"/>
			<point x="539" y="279"/>
			<point x="455" y="345" type="curve"/>
			<point x="455" y="0" type="line"/>
			<point x="391" y="0" type="line"/>
			<point x="391" y="345" type="line"/>
			<point x="307" y="279"/>
			<point x="164" y="121"/>
			<point x="97" y="0" type="curve"/>
		</contour>
	</outline>
</glyph>
<glyph name="uni049A" format="2">
	<unicode hex="049A"/>
	<advance width="628"/>
	<outline>
		<contour>
			<point x="513" y="0" type="line"/>
			<point x="423" y="139"/>
			<point x="278" y="277"/>
			<point x="158" y="343" type="curve"/>
			<point x="158" y="0" type="line"/>
			<point x="90" y="0" type="line"/>
			<point x="90" y="693" type="line"/>
			<point x="158" y="693" type="line"/>
			<point x="158" y="370" type="line"/>
			<point x="259" y="462"/>
			<point x="419" y="619"/>
			<point x="484" y="693" type="curve"/>
			<point x="566" y="693" type="line"/>
			<point x="490" y="611"/>
			<point x="333" y="455"/>
			<point x="236" y="367" type="curve"/>
			<point x="334" y="307"/>
			<point x="475" y="168"/>
			<point x="552" y="59" type="curve"/>
			<point x="622" y="59" type="line"/>
			<point x="622" y="-185" type="line"/>
			<point x="557" y="-185" type="line"/>
			<point x="557" y="0" type="line"/>
		</contour>
	</outline>
</glyph>
<glyph name="uni049E" format="2">
	<unicode hex="049E"/>
	<advance width="613"/>
	<outline>
		<contour>
			<point x="603" y="0" type="line"/>
			<point x="545" y="111"/>
			<point x="367" y="296"/>
			<point x="250" y="367" type="curve"/>
			<point x="347" y="455"/>
			<point x="504" y="611"/>
			<point x="580" y="693" type="curve"/>
			<point x="498" y="693" type="line"/>
			<point x="433" y="619"/>
			<point x="273" y="462"/>
			<point x="172" y="370" type="curve"/>
			<point x="172" y="555" type="line"/>
			<point x="273" y="555" type="line"/>
			<point x="273" y="609" type="line"/>
			<point x="172" y="609" type="line"/>
			<point x="172" y="693" type="line"/>
			<point x="104" y="693" type="line"/>
			<point x="104" y="609" type="line"/>
			<point x="25" y="609" type="line"/>
			<point x="25" y="555" type="line"/>
			<point x="104" y="555" type="line"/>
			<point x="104" y="0" type="line"/>
			<point x="172" y="0" type="line"/>
			<point x="172" y="343" type="line"/>
			<point x="292" y="277"/>
			<point x="437" y="139"/>
			<point x="527" y="0" type="curve"/>
		</contour>
	</outline>
</glyph>
<glyph name="uni049F" format="2">
	<unicode hex="049F"/>
	<advance width="522"/>
	<outline>
		<contour>
			<point x="162" y="258" type="line"/>
			<point x="245" y="209"/>
			<point x="364" y="99"/>
			<point x="427" y="0" type="curve"/>
			<point x="504" y="0" type="line"/>
			<point x="449" y="94"/>
			<point x="333" y="217"/>
			<point x="241" y="276" type="curve"/>
			<point x="304" y="335"/>
			<point x="420" y="449"/>
			<point x="482" y="517" type="curve"/>
			<point x="404" y="517" type="line"/>
			<point x="359" y="467"/>
			<point x="242" y="350"/>
			<point x="162" y="274" type="curve"/>
			<point x="162" y="422" type="line"/>
			<point x="241" y="422" type="line"/>
			<point x="241" y="475" type="line"/>
			<point x="162" y="475" type="line"/>
			<point x="162" y="546" type="line"/>
			<point x="97" y="546" type="line"/>
			<point x="97" y="475" type="line"/>
			<point x="21" y="475" type="line"/>
			<point x="21" y="422" type="line"/>
			<point x="97" y="422" type="line"/>
			<point x="97" y="0" type="line"/>
			<point x="162" y="0" type="line"/>
		</contour>
	</outline>
</glyph>
<glyph name="uni04A1" format="2">
	<unicode hex="04A1"/>
	<advance width="573"/>
	<outline>
		<contour>
			<point x="218" y="517" type="line"/>
			<point x="16" y="517" type="line"/>
			<point x="16" y="462" type="line"/>
			<point x="153" y="462" type="line"/>
			<point x="153" y="0" type="line"/>
			<point x="218" y="0" type="line"/>
			<point x="218" y="255" type="line"/>
			<point x="296" y="210"/>
			<point x="415" y="99"/>
			<point x="478" y="0" type="curve"/>
			<point x="555" y="0" type="line"/>
			<point x="500" y="94"/>
			<point x="384" y="217"/>
			<point x="292" y="276" type="curve"/>
			<point x="355" y="335"/>
			<point x="471" y="449"/>
			<point x="533" y="517" type="curve"/>
			<point x="455" y="517" type="line"/>
			<point x="410" y="467"/>
			<point x="293" y="349"/>
			<point x="218" y="278" type="curve"/>
		</contour>
	</outline>
</glyph>
<glyph name="uni04A8" format="2">
	<unicode hex="04A8"/>
	<advance width="770"/>
	<outline>
		<contour>
			<point x="644" y="284" type="qcurve"/>
			<point x="644" y="318"/>
			<point x="634" y="383"/>
			<point x="608" y="434"/>
			<point x="560" y="466"/>
			<point x="523" y="466" type="qcurve"/>
			<point x="488" y="466"/>
			<point x="438" y="436"/>
			<point x="407" y="380"/>
			<point x="393" y="302"/>
			<point x="393" y="253" type="qcurve"/>
			<point x="393" y="181"/>
			<point x="410" y="79"/>
			<point x="427" y="41" type="qcurve"/>
			<point x="470" y="46"/>
			<point x="548" y="84"/>
			<point x="608" y="146"/>
			<point x="644" y="231"/>
		</contour>
		<contour>
			<point x="558" y="679" type="qcurve"/>
			<point x="540" y="623" type="line"/>
			<point x="517" y="633"/>
			<point x="449" y="648"/>
			<point x="404" y="648" type="qcurve"/>
			<point x="350" y="648"/>
			<point x="252" y="611"/>
			<point x="177" y="537"/>
			<point x="133" y="423"/>
			<point x="133" y="347" type="qcurve"/>
			<point x="133" y="284"/>
			<point x="164" y="179"/>
			<point x="223" y="101"/>
			<point x="306" y="52"/>
			<point x="358" y="45" type="qcurve"/>
			<point x="342" y="92"/>
			<point x="325" y="193"/>
			<point x="325" y="258" type="qcurve"/>
			<point x="325" y="309"/>
			<point x="346" y="404"/>
			<point x="393" y="479"/>
			<point x="469" y="524"/>
			<point x="523" y="524" type="qcurve"/>
			<point x="575" y="524"/>
			<point x="648" y="482"/>
			<point x="692" y="415"/>
			<point x="712" y="328"/>
			<point x="712" y="283" type="qcurve"/>
			<point x="712" y="226"/>
			<point x="672" y="127"/>
			<point x="602" y="51"/>
			<point x="506" y="0"/>
			<point x="449" y="-9" type="qcurve"/>
			<point x="467" y="-46"/>
			<point x="536" y="-93"/>
			<point x="608" y="-120"/>
			<point x="670" y="-130"/>
			<point x="681" y="-130" type="qcurve"/>
			<point x="673" y="-184" type="line"/>
			<point x="645" y="-184"/>
			<point x="566" y="-169"/>
			<point x="483" y="-131"/>
			<point x="406" y="-65"/>
			<point x="381" y="-13" type="qcurve"/>
			<point x="320" y="-9"/>
			<point x="205" y="33"/>
			<point x="116" y="118"/>
			<point x="62" y="251"/>
			<point x="62" y="347" type="qcurve"/>
			<point x="62" y="444"/>
			<point x="124" y="581"/>
			<point x="221" y="668"/>
			<point x="337" y="708"/>
			<point x="391" y="708" type="qcurve"/>
			<point x="451" y="708"/>
			<point x="535" y="690"/>
		</contour>
	</outline>
	<guideline x="398"/>
	<guideline y="-184"/>
	<guideline y="284"/>
</glyph>
<glyph name="uni04AC" format="2">
	<unicode hex="04AC"/>
	<advance width="548"/>
	<outline>
		<contour>
			<point x="18" y="693" type="line"/>
			<point x="18" y="634" type="line"/>
			<point x="240" y="634" type="line"/>
			<point x="240" y="0" type="line"/>
			<point x="308" y="0" type="line"/>
			<point x="308" y="-185" type="line"/>
			<point x="373" y="-185" type="line"/>
			<point x="373" y="59" type="line"/>
			<point x="308" y="59" type="line"/>
			<point x="308" y="634" type="line"/>
			<point x="530" y="634" type="line"/>
			<point x="530" y="693" type="line"/>
		</contour>
	</outline>
</glyph>
<glyph name="uni04AF" format="2">
	<unicode hex="04AF"/>
	<advance width="480"/>
	<outline>
		<contour>
			<point x="242" y="70" type="curve"/>
			<point x="187" y="185"/>
			<point x="121" y="375"/>
			<point x="89" y="517" type="curve"/>
			<point x="20" y="517" type="line"/>
			<point x="66" y="331"/>
			<point x="139" y="147"/>
			<point x="207" y="4" type="curve"/>
			<point x="207" y="-185" type="line"/>
			<point x="272" y="-185" type="line"/>
			<point x="272" y="2" type="line"/>
			<point x="339" y="144"/>
			<point x="413" y="330"/>
			<point x="460" y="517" type="curve"/>
			<point x="395" y="517" type="line"/>
			<point x="363" y="375"/>
			<point x="297" y="185"/>
		</contour>
	</outline>
</glyph>
<glyph name="uni04B2" format="2">
	<unicode hex="04B2"/>
	<advance width="618"/>
	<outline>
		<contour>
			<point x="547" y="-185" type="line"/>
			<point x="612" y="-185" type="line"/>
			<point x="612" y="59" type="line"/>
			<point x="546" y="59" type="line"/>
			<point x="488" y="161"/>
			<point x="415" y="266"/>
			<point x="343" y="368" type="curve"/>
			<point x="566" y="693" type="line"/>
			<point x="490" y="693" type="line"/>
			<point x="303" y="414" type="line"/>
			<point x="116" y="693" type="line"/>
			<point x="38" y="693" type="line"/>
			<point x="261" y="366" type="line"/>
			<point x="176" y="246"/>
			<point x="88" y="121"/>
			<point x="27" y="0" type="curve"/>
			<point x="98" y="0" type="line"/>
			<point x="137" y="79"/>
			<point x="230" y="218"/>
			<point x="301" y="318" type="curve"/>
			<point x="372" y="218"/>
			<point x="465" y="79"/>
			<point x="504" y="0" type="curve"/>
			<point x="547" y="0" type="line"/>
		</contour>
	</outline>
</glyph>
<glyph name="uni04B3" format="2">
	<unicode hex="04B3"/>
	<advance width="500"/>
	<outline>
		<contour>
			<point x="242" y="234" type="curve"/>
			<point x="299" y="157"/>
			<point x="364" y="59"/>
			<point x="395" y="0" type="curve"/>
			<point x="431" y="0" type="line"/>
			<point x="431" y="-143" type="line"/>
			<point x="494" y="-143" type="line"/>
			<point x="494" y="55" type="line"/>
			<point x="435" y="55" type="line"/>
			<point x="388" y="136"/>
			<point x="330" y="216"/>
			<point x="284" y="278" type="curve"/>
			<point x="449" y="517" type="line"/>
			<point x="378" y="517" type="line"/>
			<point x="242" y="319" type="line"/>
			<point x="108" y="517" type="line"/>
			<point x="32" y="517" type="line"/>
			<point x="200" y="274" type="line"/>
			<point x="138" y="189"/>
			<point x="76" y="102"/>
			<point x="22" y="0" type="curve"/>
			<point x="89" y="0" type="line"/>
			<point x="120" y="59"/>
			<point x="184" y="157"/>
		</contour>
	</outline>
</glyph>
<glyph name="uni04B8" format="2">
	<unicode hex="04B8"/>
	<advance width="625"/>
	<outline>
		<contour>
			<point x="136" y="693" type="line"/>
			<point x="136" y="499" type="line" smooth="yes"/>
			<point x="136" y="390"/>
			<point x="160" y="325"/>
			<point x="274" y="313" type="curve"/>
			<point x="274" y="447" type="line"/>
			<point x="330" y="447" type="line"/>
			<point x="330" y="311" type="line"/>
			<point x="391" y="313"/>
			<point x="453" y="327"/>
			<point x="467" y="332" type="curve"/>
			<point x="467" y="693" type="line"/>
			<point x="535" y="693" type="line"/>
			<point x="535" y="0" type="line"/>
			<point x="467" y="0" type="line"/>
			<point x="467" y="273" type="line"/>
			<point x="449" y="266"/>
			<point x="392" y="254"/>
			<point x="330" y="252" type="curve"/>
			<point x="330" y="121" type="line"/>
			<point x="274" y="121" type="line"/>
			<point x="274" y="253" type="line"/>
			<point x="89" y="265"/>
			<point x="68" y="374"/>
			<point x="68" y="499" type="curve" smooth="yes"/>
			<point x="68" y="693" type="line"/>
		</contour>
	</outline>
</glyph>
<glyph name="uni04B9" format="2">
	<unicode hex="04B9"/>
	<advance width="518"/>
	<outline>
		<contour>
			<point x="48" y="517" type="line"/>
			<point x="113" y="517" type="line"/>
			<point x="113" y="374" type="line"/>
			<point x="113" y="309"/>
			<point x="165" y="253"/>
			<point x="214" y="248" type="qcurve"/>
			<point x="214" y="344" type="line"/>
			<point x="268" y="344" type="line"/>
			<point x="268" y="247" type="line"/>
			<point x="305" y="249"/>
			<point x="350" y="258"/>
			<point x="367" y="264" type="qcurve"/>
			<point x="367" y="517" type="line"/>
			<point x="432" y="517" type="line"/>
			<point x="432" y="0" type="line"/>
			<point x="367" y="0" type="line"/>
			<point x="367" y="210" type="line"/>
			<point x="356" y="206"/>
			<point x="301" y="194"/>
			<point x="268" y="191" type="qcurve"/>
			<point x="268" y="98" type="line"/>
			<point x="214" y="98" type="line"/>
			<point x="214" y="190" type="line"/>
			<point x="176" y="192"/>
			<point x="114" y="213"/>
			<point x="71" y="256"/>
			<point x="48" y="322"/>
			<point x="48" y="370" type="qcurve"/>
		</contour>
	</outline>
</glyph>
<glyph name="uni04BF" format="2">
	<unicode hex="04BF"/>
	<advance width="655"/>
	<outline>
		<contour>
			<point x="418" y="-143" type="line"/>
			<point x="418" y="-11" type="line"/>
			<point x="486" y="-10"/>
			<point x="541" y="9"/>
			<point x="559" y="19" type="curve"/>
			<point x="547" y="75" type="line"/>
			<point x="529" y="66"/>
			<point x="488" y="48"/>
			<point x="418" y="48" type="curve" smooth="yes"/>
			<point x="291" y="48"/>
			<point x="235" y="119"/>
			<point x="231" y="245" type="curve"/>
			<point x="594" y="245" type="line"/>
			<point x="595" y="254"/>
			<point x="596" y="266"/>
			<point x="596" y="276" type="curve" smooth="yes"/>
			<point x="596" y="448"/>
			<point x="515" y="529"/>
			<point x="388" y="529" type="curve" smooth="yes"/>
			<point x="283" y="529"/>
			<point x="180" y="454"/>
			<point x="164" y="301" type="curve"/>
			<point x="107" y="307"/>
			<point x="79" y="338"/>
			<point x="79" y="393" type="curve" smooth="yes"/>
			<point x="79" y="400"/>
			<point x="80" y="413"/>
			<point x="82" y="425" type="curve"/>
			<point x="28" y="433" type="line"/>
			<point x="25" y="422"/>
			<point x="22" y="403"/>
			<point x="22" y="387" type="curve" smooth="yes"/>
			<point x="22" y="288"/>
			<point x="80" y="252"/>
			<point x="162" y="245" type="curve"/>
			<point x="165" y="114"/>
			<point x="223" y="16"/>
			<point x="355" y="-6" type="curve"/>
			<point x="355" y="-143" type="line"/>
		</contour>
		<contour>
			<point x="233" y="300" type="line"/>
			<point x="238" y="390"/>
			<point x="297" y="471"/>
			<point x="389" y="471" type="curve" smooth="yes"/>
			<point x="476" y="471"/>
			<point x="527" y="408"/>
			<point x="529" y="300" type="curve"/>
		</contour>
	</outline>
</glyph>
<glyph name="uni04C4" format="2">
	<unicode hex="04C4"/>
	<advance width="531"/>
	<outline>
		<contour>
			<point x="248" y="289" type="curve" smooth="yes"/>
			<point x="320" y="356"/>
			<point x="426" y="456"/>
			<point x="482" y="517" type="curve"/>
			<point x="405" y="517" type="line"/>
			<point x="360" y="467"/>
			<point x="236" y="349"/>
			<point x="155" y="273" type="curve"/>
			<point x="155" y="517" type="line"/>
			<point x="90" y="517" type="line"/>
			<point x="90" y="0" type="line"/>
			<point x="155" y="0" type="line"/>
			<point x="155" y="236" type="line"/>
			<point x="165" y="238"/>
			<point x="191" y="242"/>
			<point x="215" y="242" type="curve" smooth="yes"/>
			<point x="357" y="242"/>
			<point x="430" y="190"/>
			<point x="430" y="53" type="curve" smooth="yes"/>
			<point x="430" y="-69"/>
			<point x="368" y="-129"/>
			<point x="282" y="-129" type="curve" smooth="yes"/>
			<point x="269" y="-129"/>
			<point x="257" y="-127"/>
			<point x="254" y="-126" type="curve"/>
			<point x="249" y="-182" type="line"/>
			<point x="255" y="-184"/>
			<point x="274" y="-186"/>
			<point x="286" y="-186" type="curve" smooth="yes"/>
			<point x="443" y="-186"/>
			<point x="498" y="-53"/>
			<point x="498" y="51" type="curve" smooth="yes"/>
			<point x="498" y="204"/>
			<point x="413" y="289"/>
		</contour>
	</outline>
</glyph>
<glyph name="uni04C7" format="2">
	<unicode hex="04C7"/>
	<advance width="692"/>
	<outline>
		<contour>
			<point x="602" y="693" type="line"/>
			<point x="534" y="693" type="line"/>
			<point x="534" y="392" type="line"/>
			<point x="158" y="392" type="line"/>
			<point x="158" y="693" type="line"/>
			<point x="90" y="693" type="line"/>
			<point x="90" y="0" type="line"/>
			<point x="158" y="0" type="line"/>
			<point x="158" y="333" type="line"/>
			<point x="534" y="333" type="line"/>
			<point x="534" y="-37" type="line"/>
			<point x="534" y="-101"/>
			<point x="516" y="-130"/>
			<point x="465" y="-130" type="curve" smooth="yes"/>
			<point x="449" y="-130"/>
			<point x="435" y="-127"/>
			<point x="428" y="-124" type="curve"/>
			<point x="419" y="-178" type="line"/>
			<point x="429" y="-182"/>
			<point x="451" y="-187"/>
			<point x="473" y="-187" type="curve" smooth="yes"/>
			<point x="584" y="-187"/>
			<point x="602" y="-117"/>
			<point x="602" y="-26" type="curve"/>
		</contour>
	</outline>
</glyph>
<glyph name="uni04CA" format="2">
	<unicode hex="04CA"/>
	<advance width="587"/>
	<outline>
		<contour>
			<point x="497" y="55" type="line"/>
			<point x="559" y="55" type="line"/>
			<point x="561" y="18"/>
			<point x="546" y="-49"/>
			<point x="519" y="-106"/>
			<point x="484" y="-151"/>
			<point x="467" y="-166" type="qcurve"/>
			<point x="422" y="-133" type="line"/>
			<point x="429" y="-127"/>
			<point x="451" y="-99"/>
			<point x="474" y="-63"/>
			<point x="491" y="-21"/>
			<point x="493" y="0" type="qcurve"/>
			<point x="432" y="0" type="line"/>
			<point x="432" y="241" type="line"/>
			<point x="151" y="241" type="line"/>
			<point x="151" y="0" type="line"/>
			<point x="86" y="0" type="line"/>
			<point x="86" y="517" type="line"/>
			<point x="151" y="517" type="line"/>
			<point x="151" y="296" type="line"/>
			<point x="432" y="296" type="line"/>
			<point x="432" y="517" type="line"/>
			<point x="497" y="517" type="line"/>
		</contour>
	</outline>
	<guideline y="-166"/>
</glyph>
<glyph name="uni04CE" format="2">
	<unicode hex="04CE"/>
	<advance width="726"/>
	<outline>
		<contour>
			<point x="331" y="72" type="line"/>
			<point x="325" y="87"/>
			<point x="301" y="140"/>
			<point x="272" y="205"/>
			<point x="238" y="278"/>
			<point x="205" y="346"/>
			<point x="175" y="406"/>
			<point x="164" y="425" type="qcurve"/>
			<point x="151" y="310"/>
			<point x="139" y="103"/>
			<point x="135" y="0" type="qcurve"/>
			<point x="74" y="0" type="line"/>
			<point x="78" y="129"/>
			<point x="97" y="391"/>
			<point x="112" y="517" type="qcurve"/>
			<point x="179" y="517" type="line"/>
			<point x="192" y="496"/>
			<point x="233" y="418"/>
			<point x="282" y="319"/>
			<point x="335" y="204"/>
			<point x="362" y="145" type="qcurve"/>
			<point x="389" y="204"/>
			<point x="442" y="319"/>
			<point x="491" y="418"/>
			<point x="531" y="496"/>
			<point x="545" y="517" type="qcurve"/>
			<point x="611" y="517" type="line"/>
			<point x="625" y="405"/>
			<point x="642" y="171"/>
			<point x="647" y="55" type="qcurve"/>
			<point x="709" y="55" type="line"/>
			<point x="711" y="18"/>
			<point x="696" y="-49"/>
			<point x="669" y="-106"/>
			<point x="634" y="-151"/>
			<point x="617" y="-166" type="qcurve"/>
			<point x="572" y="-133" type="line"/>
			<point x="579" y="-127"/>
			<point x="601" y="-99"/>
			<point x="624" y="-63"/>
			<point x="641" y="-21"/>
			<point x="643" y="0" type="qcurve"/>
			<point x="587" y="0" type="line"/>
			<point x="583" y="103"/>
			<point x="571" y="310"/>
			<point x="558" y="425" type="qcurve"/>
			<point x="547" y="405"/>
			<point x="517" y="346"/>
			<point x="484" y="278"/>
			<point x="450" y="205"/>
			<point x="421" y="140"/>
			<point x="397" y="87"/>
			<point x="391" y="72" type="qcurve"/>
		</contour>
	</outline>
</glyph>
<glyph name="uni04F6" format="2">
	<unicode hex="04F6"/>
	<advance width="482"/>
	<outline>
		<contour>
			<point x="464" y="693" type="line"/>
			<point x="464" y="634" type="line"/>
			<point x="158" y="634" type="line"/>
			<point x="158" y="59" type="line"/>
			<point x="223" y="59" type="line"/>
			<point x="223" y="-185" type="line"/>
			<point x="158" y="-185" type="line"/>
			<point x="158" y="0" type="line"/>
			<point x="90" y="0" type="line"/>
			<point x="90" y="693" type="line"/>
		</contour>
	</outline>
</glyph>
<glyph name="uni04F7" format="2">
	<unicode hex="04F7"/>
	<advance width="397"/>
	<outline>
		<contour>
			<point x="146" y="0" type="line"/>
			<point x="146" y="-143" type="line"/>
			<point x="209" y="-143" type="line"/>
			<point x="209" y="55" type="line"/>
			<point x="151" y="55" type="line"/>
			<point x="151" y="462" type="line"/>
			<point x="382" y="462" type="line"/>
			<point x="382" y="517" type="line"/>
			<point x="86" y="517" type="line"/>
			<point x="86" y="0" type="line"/>
		</contour>
	</outline>
</glyph>
<glyph name="uni1FBE" format="2">
	<unicode hex="1FBE"/>
	<advance width="376"/>
	<outline>
		<contour>
			<point x="204" y="-68" type="line"/>
			<point x="204" y="-105"/>
			<point x="235" y="-139"/>
			<point x="278" y="-139" type="qcurve"/>
			<point x="278" y="-182" type="line"/>
			<point x="273" y="-184"/>
			<point x="255" y="-186"/>
			<point x="247" y="-186" type="qcurve"/>
			<point x="199" y="-186"/>
			<point x="139" y="-126"/>
			<point x="139" y="-72" type="qcurve"/>
			<point x="139" y="-69"/>
			<point x="139" y="-59"/>
			<point x="140" y="-55" type="qcurve"/>
			<point x="204" y="-55" type="line"/>
		</contour>
	</outline>
</glyph>
<glyph name="uni1FC1" format="2">
	<unicode hex="1FC1"/>
	<advance width="376"/>
	<outline>
		<contour>
			<point x="188" y="811" type="qcurve"/>
			<point x="162" y="811"/>
			<point x="131" y="794"/>
			<point x="114" y="771"/>
			<point x="107" y="748"/>
			<point x="107" y="741" type="qcurve"/>
			<point x="64" y="741" type="line"/>
			<point x="63" y="773"/>
			<point x="83" y="820"/>
			<point x="118" y="850"/>
			<point x="164" y="865"/>
			<point x="188" y="865" type="qcurve"/>
			<point x="212" y="865"/>
			<point x="258" y="850"/>
			<point x="293" y="820"/>
			<point x="313" y="773"/>
			<point x="312" y="741" type="qcurve"/>
			<point x="269" y="741" type="line"/>
			<point x="269" y="748"/>
			<point x="262" y="771"/>
			<point x="245" y="794"/>
			<point x="213" y="811"/>
		</contour>
		<contour>
			<point x="236" y="642" type="qcurve"/>
			<point x="236" y="664"/>
			<point x="262" y="690"/>
			<point x="282" y="690" type="qcurve"/>
			<point x="302" y="690"/>
			<point x="328" y="664"/>
			<point x="328" y="642" type="qcurve"/>
			<point x="328" y="620"/>
			<point x="302" y="594"/>
			<point x="282" y="594" type="qcurve"/>
			<point x="262" y="594"/>
			<point x="236" y="620"/>
		</contour>
		<contour>
			<point x="48" y="642" type="qcurve"/>
			<point x="48" y="664"/>
			<point x="74" y="690"/>
			<point x="94" y="690" type="qcurve"/>
			<point x="114" y="690"/>
			<point x="140" y="664"/>
			<point x="140" y="642" type="qcurve"/>
			<point x="140" y="620"/>
			<point x="114" y="594"/>
			<point x="94" y="594" type="qcurve"/>
			<point x="74" y="594"/>
			<point x="48" y="620"/>
		</contour>
	</outline>
</glyph>
<glyph name="uni1FCE" format="2">
	<unicode hex="1FCE"/>
	<advance width="376"/>
	<outline>
		<contour>
			<point x="23" y="604" type="line"/>
			<point x="54" y="628"/>
			<point x="79" y="655"/>
			<point x="91" y="680" type="curve"/>
			<point x="70" y="687"/>
			<point x="56" y="705"/>
			<point x="56" y="726" type="curve" smooth="yes"/>
			<point x="56" y="753"/>
			<point x="74" y="776"/>
			<point x="106" y="776" type="curve" smooth="yes"/>
			<point x="139" y="776"/>
			<point x="161" y="754"/>
			<point x="161" y="719" type="curve" smooth="yes"/>
			<point x="161" y="671"/>
			<point x="106" y="613"/>
			<point x="50" y="575" type="curve"/>
		</contour>
		<contour>
			<point x="285" y="777" type="line"/>
			<point x="342" y="738" type="line"/>
			<point x="213" y="575" type="line"/>
			<point x="173" y="604" type="line"/>
		</contour>
	</outline>
</glyph>
<glyph name="uni1FCF" format="2">
	<unicode hex="1FCF"/>
	<advance width="376"/>
	<outline>
		<contour>
			<point x="112" y="604" type="line"/>
			<point x="140" y="622"/>
			<point x="161" y="643"/>
			<point x="168" y="660" type="curve"/>
			<point x="152" y="670"/>
			<point x="142" y="684"/>
			<point x="142" y="703" type="curve" smooth="yes"/>
			<point x="142" y="727"/>
			<point x="156" y="748"/>
			<point x="188" y="748" type="curve" smooth="yes"/>
			<point x="216" y="748"/>
			<point x="236" y="730"/>
			<point x="236" y="694" type="curve" smooth="yes"/>
			<point x="236" y="636"/>
			<point x="162" y="590"/>
			<point x="134" y="575" type="curve"/>
		</contour>
		<contour>
			<point x="188" y="827" type="curve" smooth="yes"/>
			<point x="120" y="827"/>
			<point x="108" y="775"/>
			<point x="107" y="757" type="curve"/>
			<point x="64" y="757" type="line"/>
			<point x="61" y="843"/>
			<point x="124" y="881"/>
			<point x="188" y="881" type="curve"/>
			<point x="252" y="881"/>
			<point x="315" y="843"/>
			<point x="312" y="757" type="curve"/>
			<point x="269" y="757" type="line"/>
			<point x="268" y="775"/>
			<point x="256" y="827"/>
		</contour>
	</outline>
</glyph>
<glyph name="quoteleft" format="2">
	<unicode hex="2018"/>
	<advance width="230"/>
	<outline>
		<contour>
			<point x="74" y="542" type="line"/>
			<point x="74" y="599"/>
			<point x="108" y="702"/>
			<point x="142" y="753" type="qcurve"/>
			<point x="190" y="731" type="line"/>
			<point x="165" y="683"/>
			<point x="146" y="603"/>
			<point x="146" y="568" type="qcurve"/>
			<point x="146" y="557"/>
			<point x="146" y="541"/>
			<point x="147" y="532" type="qcurve"/>
			<point x="74" y="532" type="line"/>
		</contour>
	</outline>
</glyph>
<glyph name="quotesinglbase" format="2">
	<unicode hex="201A"/>
	<advance width="230"/>
	<outline>
		<contour>
			<point x="156" y="95" type="line"/>
			<point x="83" y="95" type="line"/>
			<point x="84" y="83"/>
			<point x="84" y="74"/>
			<point x="84" y="59" type="curve" smooth="yes"/>
			<point x="84" y="13"/>
			<point x="73" y="-40"/>
			<point x="40" y="-104" type="curve"/>
			<point x="88" y="-126" type="line"/>
			<point x="133" y="-59"/>
			<point x="156" y="9"/>
			<point x="156" y="85" type="curve" smooth="yes"/>
		</contour>
	</outline>
</glyph>
<glyph name="sixsuperior" format="2">
	<unicode hex="2076"/>
	<advance width="359"/>
	<outline>
		<contour>
			<point x="108" y="536" type="qcurve"/>
			<point x="129" y="546"/>
			<point x="168" y="552"/>
			<point x="182" y="552" type="qcurve"/>
			<point x="220" y="552"/>
			<point x="273" y="533"/>
			<point x="305" y="500"/>
			<point x="319" y="458"/>
			<point x="319" y="435" type="qcurve"/>
			<point x="319" y="413"/>
			<point x="303" y="368"/>
			<point x="271" y="331"/>
			<point x="220" y="308"/>
			<point x="186" y="308" type="qcurve"/>
			<point x="114" y="308"/>
			<point x="46" y="396"/>
			<point x="46" y="471" type="qcurve"/>
			<point x="46" y="583"/>
			<point x="175" y="698"/>
			<point x="286" y="702" type="qcurve"/>
			<point x="292" y="655" type="line"/>
			<point x="217" y="653"/>
			<point x="118" y="591"/>
		</contour>
		<contour>
			<point x="102" y="493" type="qcurve"/>
			<point x="101" y="488"/>
			<point x="101" y="479"/>
			<point x="101" y="475" type="qcurve"/>
			<point x="101" y="449"/>
			<point x="109" y="405"/>
			<point x="128" y="372"/>
			<point x="160" y="354"/>
			<point x="185" y="354" type="qcurve"/>
			<point x="206" y="354"/>
			<point x="235" y="368"/>
			<point x="254" y="390"/>
			<point x="263" y="418"/>
			<point x="263" y="432" type="qcurve"/>
			<point x="263" y="472"/>
			<point x="224" y="507"/>
			<point x="183" y="507" type="qcurve"/>
			<point x="161" y="507"/>
			<point x="117" y="500"/>
		</contour>
	</outline>
</glyph>
<glyph name="afii61289" format="2">
	<unicode hex="2113"/>
	<advance width="418"/>
	<outline>
		<contour>
			<point x="110" y="257" type="line"/>
			<point x="110" y="548" type="line"/>
			<point x="110" y="594"/>
			<point x="123" y="677"/>
			<point x="155" y="740"/>
			<point x="211" y="776"/>
			<point x="255" y="776" type="qcurve"/>
			<point x="298" y="776"/>
			<point x="349" y="742"/>
			<point x="377" y="691"/>
			<point x="386" y="632"/>
			<point x="386" y="607" type="qcurve"/>
			<point x="386" y="495"/>
			<point x="280" y="321"/>
			<point x="175" y="243" type="qcurve"/>
			<point x="175" y="198" type="line"/>
			<point x="175" y="172"/>
			<point x="181" y="118"/>
			<point x="204" y="73"/>
			<point x="246" y="45"/>
			<point x="282" y="45" type="qcurve"/>
			<point x="311" y="45"/>
			<point x="349" y="61"/>
			<point x="368" y="75" type="qcurve"/>
			<point x="394" y="22" type="line"/>
			<point x="376" y="8"/>
			<point x="318" y="-15"/>
			<point x="276" y="-15" type="qcurve"/>
			<point x="228" y="-15"/>
			<point x="164" y="12"/>
			<point x="126" y="61"/>
			<point x="110" y="132"/>
			<point x="110" y="176" type="qcurve"/>
			<point x="110" y="197" type="line"/>
			<point x="30" y="139" type="line"/>
			<point x="3" y="179" type="line"/>
		</contour>
		<contour>
			<point x="175" y="304" type="line"/>
			<point x="211" y="335"/>
			<point x="266" y="398"/>
			<point x="304" y="469"/>
			<point x="323" y="552"/>
			<point x="323" y="602" type="qcurve"/>
			<point x="323" y="621"/>
			<point x="318" y="661"/>
			<point x="303" y="695"/>
			<point x="276" y="717"/>
			<point x="255" y="717" type="qcurve"/>
			<point x="240" y="717"/>
			<point x="211" y="702"/>
			<point x="188" y="665"/>
			<point x="175" y="600"/>
			<point x="175" y="550" type="qcurve"/>
		</contour>
	</outline>
</glyph>
<glyph name="afii61352" format="2">
	<unicode hex="2116"/>
	<advance width="1097"/>
	<outline>
		<contour>
			<point x="529" y="693" type="line"/>
			<point x="595" y="693" type="line"/>
			<point x="595" y="0" type="line"/>
			<point x="539" y="0" type="line"/>
			<point x="520" y="36"/>
			<point x="464" y="133"/>
			<point x="398" y="241"/>
			<point x="325" y="355"/>
			<point x="252" y="462"/>
			<point x="184" y="556"/>
			<point x="156" y="591" type="qcurve"/>
			<point x="156" y="0" type="line"/>
			<point x="90" y="0" type="line"/>
			<point x="90" y="693" type="line"/>
			<point x="152" y="693" type="line"/>
			<point x="200" y="635"/>
			<point x="307" y="489"/>
			<point x="410" y="337"/>
			<point x="499" y="192"/>
			<point x="529" y="135" type="qcurve"/>
		</contour>
		<contour>
			<point x="1046" y="518" type="qcurve"/>
			<point x="1046" y="476"/>
			<point x="1020" y="407"/>
			<point x="974" y="358"/>
			<point x="910" y="331"/>
			<point x="873" y="331" type="qcurve"/>
			<point x="836" y="331"/>
			<point x="773" y="358"/>
			<point x="727" y="407"/>
			<point x="701" y="476"/>
			<point x="701" y="518" type="qcurve"/>
			<point x="701" y="560"/>
			<point x="727" y="629"/>
			<point x="773" y="678"/>
			<point x="836" y="705"/>
			<point x="873" y="705" type="qcurve"/>
			<point x="910" y="705"/>
			<point x="974" y="678"/>
			<point x="1020" y="629"/>
			<point x="1046" y="560"/>
		</contour>
		<contour>
			<point x="987" y="518" type="qcurve"/>
			<point x="987" y="581"/>
			<point x="925" y="656"/>
			<point x="873" y="656" type="qcurve"/>
			<point x="822" y="656"/>
			<point x="760" y="581"/>
			<point x="760" y="518" type="qcurve"/>
			<point x="760" y="455"/>
			<point x="822" y="380"/>
			<point x="873" y="380" type="qcurve"/>
			<point x="925" y="380"/>
			<point x="987" y="455"/>
		</contour>
		<contour>
			<point x="708" y="221" type="line"/>
			<point x="1039" y="221" type="line"/>
			<point x="1039" y="156" type="line"/>
			<point x="708" y="156" type="line"/>
		</contour>
	</outline>
</glyph>
<glyph name="Delta" format="2">
	<unicode hex="2206"/>
	<advance width="630"/>
	<outline>
		<contour>
			<point x="525" y="59" type="line"/>
			<point x="450" y="282"/>
			<point x="386" y="451"/>
			<point x="313" y="615" type="curve"/>
			<point x="240" y="451"/>
			<point x="175" y="282"/>
			<point x="100" y="59" type="curve"/>
		</contour>
		<contour>
			<point x="10" y="0" type="line"/>
			<point x="109" y="289"/>
			<point x="187" y="489"/>
			<point x="285" y="693" type="curve"/>
			<point x="345" y="693" type="line"/>
			<point x="443" y="489"/>
			<point x="521" y="289"/>
			<point x="620" y="0" type="curve"/>
		</contour>
	</outline>
</glyph>
<glyph name="infinity" format="2">
	<unicode hex="221E"/>
	<advance width="572"/>
	<outline>
		<contour>
			<point x="263" y="294" type="curve"/>
			<point x="236" y="237"/>
			<point x="203" y="206"/>
			<point x="157" y="206" type="curve" smooth="yes"/>
			<point x="118" y="206"/>
			<point x="81" y="232"/>
			<point x="81" y="294" type="curve" smooth="yes"/>
			<point x="81" y="356"/>
			<point x="118" y="382"/>
			<point x="157" y="382" type="curve" smooth="yes"/>
			<point x="203" y="382"/>
			<point x="236" y="351"/>
		</contour>
		<contour>
			<point x="286" y="244" type="curve"/>
			<point x="311" y="203"/>
			<point x="347" y="161"/>
			<point x="419" y="161" type="curve" smooth="yes"/>
			<point x="463" y="161"/>
			<point x="542" y="193"/>
			<point x="542" y="294" type="curve" smooth="yes"/>
			<point x="542" y="395"/>
			<point x="463" y="427"/>
			<point x="419" y="427" type="curve" smooth="yes"/>
			<point x="347" y="427"/>
			<point x="311" y="385"/>
			<point x="286" y="344" type="curve"/>
			<point x="261" y="385"/>
			<point x="225" y="427"/>
			<point x="153" y="427" type="curve" smooth="yes"/>
			<point x="109" y="427"/>
			<point x="30" y="395"/>
			<point x="30" y="294" type="curve" smooth="yes"/>
			<point x="30" y="193"/>
			<point x="109" y="161"/>
			<point x="153" y="161" type="curve" smooth="yes"/>
			<point x="225" y="161"/>
			<point x="261" y="203"/>
		</contour>
		<contour>
			<point x="309" y="294" type="curve"/>
			<point x="336" y="351"/>
			<point x="369" y="382"/>
			<point x="415" y="382" type="curve" smooth="yes"/>
			<point x="454" y="382"/>
			<point x="491" y="356"/>
			<point x="491" y="294" type="curve" smooth="yes"/>
			<point x="491" y="232"/>
			<point x="454" y="206"/>
			<point x="415" y="206" type="curve" smooth="yes"/>
			<point x="369" y="206"/>
			<point x="336" y="237"/>
		</contour>
	</outline>
	<guideline x="493"/>
</glyph>
<glyph name="integral" format="2">
	<unicode hex="222B"/>
	<advance width="355"/>
	<outline>
		<contour>
			<point x="145" y="579" type="line" smooth="yes"/>
			<point x="145" y="711"/>
			<point x="213" y="776"/>
			<point x="323" y="776" type="curve"/>
			<point x="332" y="776"/>
			<point x="341" y="775"/>
			<point x="345" y="774" type="curve"/>
			<point x="345" y="720" type="line"/>
			<point x="340" y="720" type="line"/>
			<point x="238" y="720"/>
			<point x="210" y="666"/>
			<point x="210" y="579" type="curve" smooth="yes"/>
			<point x="210" y="12" type="line" smooth="yes"/>
			<point x="210" y="-120"/>
			<point x="142" y="-185"/>
			<point x="32" y="-185" type="curve" smooth="yes"/>
			<point x="23" y="-185"/>
			<point x="14" y="-184"/>
			<point x="10" y="-183" type="curve"/>
			<point x="10" y="-129" type="line"/>
			<point x="15" y="-129" type="line" smooth="yes"/>
			<point x="117" y="-129"/>
			<point x="145" y="-75"/>
			<point x="145" y="12" type="curve"/>
		</contour>
	</outline>
</glyph>
<glyph name="notequal" format="2">
	<unicode hex="2260"/>
	<advance width="564"/>
	<outline>
		<contour>
			<point x="378" y="427" type="line"/>
			<point x="508" y="427" type="line"/>
			<point x="508" y="371" type="line"/>
			<point x="350" y="371" type="line"/>
			<point x="274" y="217" type="line"/>
			<point x="508" y="217" type="line"/>
			<point x="508" y="161" type="line"/>
			<point x="247" y="161" type="line"/>
			<point x="183" y="32" type="line"/>
			<point x="134" y="57" type="line"/>
			<point x="185" y="161" type="line"/>
			<point x="56" y="161" type="line"/>
			<point x="56" y="217" type="line"/>
			<point x="213" y="217" type="line"/>
			<point x="289" y="371" type="line"/>
			<point x="56" y="371" type="line"/>
			<point x="56" y="427" type="line"/>
			<point x="316" y="427" type="line"/>
			<point x="381" y="557" type="line"/>
			<point x="430" y="532" type="line"/>
		</contour>
	</outline>
</glyph>
<glyph name="uniF0FF" format="2">
	<unicode hex="F0FF"/>
	<advance width="455"/>
	<outline>
		<contour>
			<point x="441" y="560" type="qcurve"/>
			<point x="441" y="515"/>
			<point x="407" y="437"/>
			<point x="349" y="379"/>
			<point x="270" y="345"/>
			<point x="225" y="345" type="qcurve"/>
			<point x="180" y="345"/>
			<point x="102" y="379"/>
			<point x="44" y="437"/>
			<point x="10" y="515"/>
			<point x="10" y="560" type="qcurve"/>
			<point x="10" y="605"/>
			<point x="44" y="684"/>
			<point x="102" y="742"/>
			<point x="180" y="776"/>
			<point x="225" y="776" type="qcurve"/>
			<point x="270" y="776"/>
			<point x="349" y="742"/>
			<point x="407" y="684"/>
			<point x="441" y="605"/>
		</contour>
		<contour>
			<point x="79" y="589" type="qcurve"/>
			<point x="68" y="589"/>
			<point x="50" y="572"/>
			<point x="50" y="560" type="qcurve"/>
			<point x="50" y="549"/>
			<point x="68" y="532"/>
			<point x="79" y="532" type="qcurve"/>
			<point x="91" y="532"/>
			<point x="108" y="549"/>
			<point x="108" y="560" type="qcurve"/>
			<point x="108" y="572"/>
			<point x="91" y="589"/>
		</contour>
		<contour>
			<point x="270" y="432" type="qcurve"/>
			<point x="270" y="419"/>
			<point x="288" y="404"/>
			<point x="298" y="404" type="qcurve"/>
			<point x="311" y="404"/>
			<point x="327" y="423"/>
			<point x="327" y="434" type="qcurve"/>
			<point x="327" y="448"/>
			<point x="309" y="462"/>
			<point x="299" y="462" type="qcurve"/>
			<point x="285" y="462"/>
			<point x="270" y="443"/>
		</contour>
		<contour>
			<point x="141" y="560" type="qcurve"/>
			<point x="141" y="582"/>
			<point x="161" y="618"/>
			<point x="178" y="629" type="qcurve"/>
			<point x="156" y="665" type="line"/>
			<point x="137" y="651"/>
			<point x="110" y="614"/>
			<point x="104" y="591" type="qcurve"/>
			<point x="120" y="581"/>
			<point x="120" y="560" type="qcurve"/>
			<point x="120" y="540"/>
			<point x="104" y="529" type="qcurve"/>
			<point x="110" y="506"/>
			<point x="137" y="470"/>
			<point x="156" y="456" type="qcurve"/>
			<point x="178" y="492" type="line"/>
			<point x="161" y="503"/>
			<point x="141" y="539"/>
		</contour>
		<contour>
			<point x="225" y="645" type="qcurve"/>
			<point x="259" y="645"/>
			<point x="306" y="600"/>
			<point x="309" y="568" type="qcurve"/>
			<point x="350" y="568" type="line"/>
			<point x="347" y="616"/>
			<point x="312" y="649" type="qcurve"/>
			<point x="304" y="647"/>
			<point x="299" y="647" type="qcurve"/>
			<point x="285" y="647"/>
			<point x="261" y="666"/>
			<point x="259" y="681" type="qcurve"/>
			<point x="244" y="685"/>
			<point x="225" y="685" type="qcurve"/>
			<point x="195" y="685"/>
			<point x="170" y="672" type="qcurve"/>
			<point x="190" y="637" type="line"/>
			<point x="206" y="645"/>
		</contour>
		<contour>
			<point x="225" y="476" type="qcurve"/>
			<point x="206" y="476"/>
			<point x="190" y="484" type="qcurve"/>
			<point x="170" y="449" type="line"/>
			<point x="195" y="436"/>
			<point x="225" y="436" type="qcurve"/>
			<point x="244" y="436"/>
			<point x="259" y="440" type="qcurve"/>
			<point x="261" y="455"/>
			<point x="285" y="474"/>
			<point x="299" y="474" type="qcurve"/>
			<point x="304" y="474"/>
			<point x="312" y="472" type="qcurve"/>
			<point x="347" y="505"/>
			<point x="350" y="553" type="qcurve"/>
			<point x="309" y="553" type="line"/>
			<point x="306" y="521"/>
			<point x="259" y="476"/>
		</contour>
		<contour>
			<point x="299" y="658" type="qcurve"/>
			<point x="309" y="658"/>
			<point x="327" y="673"/>
			<point x="327" y="687" type="qcurve"/>
			<point x="327" y="698"/>
			<point x="312" y="716"/>
			<point x="298" y="716" type="qcurve"/>
			<point x="287" y="716"/>
			<point x="269" y="701"/>
			<point x="269" y="688" type="qcurve"/>
			<point x="269" y="676"/>
			<point x="288" y="658"/>
		</contour>
	</outline>
	<guideline y="650"/>
</glyph>
<glyph name="afii10066.locl" format="2">
	<advance width="582"/>
	<outline>
		<contour>
			<point x="203" y="642" type="curve" smooth="yes"/>
			<point x="203" y="694"/>
			<point x="249" y="715"/>
			<point x="337" y="715" type="curve" smooth="yes"/>
			<point x="412" y="715"/>
			<point x="444" y="716"/>
			<point x="464" y="720" type="curve"/>
			<point x="460" y="776" type="line"/>
			<point x="435" y="771"/>
			<point x="413" y="770"/>
			<point x="318" y="770" type="curve" smooth="yes"/>
			<point x="217" y="770"/>
			<point x="137" y="735"/>
			<point x="137" y="635" type="curve" smooth="yes"/>
			<point x="137" y="577"/>
			<point x="167" y="543"/>
			<point x="231" y="508" type="curve"/>
			<point x="134" y="461"/>
			<point x="55" y="371"/>
			<point x="55" y="245" type="curve" smooth="yes"/>
			<point x="55" y="115"/>
			<point x="124" y="-13"/>
			<point x="290" y="-13" type="curve" smooth="yes"/>
			<point x="467" y="-13"/>
			<point x="527" y="137"/>
			<point x="527" y="240" type="curve" smooth="yes"/>
			<point x="527" y="425"/>
			<point x="402" y="483"/>
			<point x="318" y="529" type="curve" smooth="yes"/>
			<point x="220" y="583"/>
			<point x="203" y="599"/>
		</contour>
		<contour>
			<point x="285" y="479" type="curve"/>
			<point x="352" y="444"/>
			<point x="458" y="395"/>
			<point x="458" y="246" type="curve" smooth="yes"/>
			<point x="458" y="142"/>
			<point x="400" y="46"/>
			<point x="291" y="46" type="curve" smooth="yes"/>
			<point x="171" y="46"/>
			<point x="124" y="147"/>
			<point x="124" y="243" type="curve" smooth="yes"/>
			<point x="124" y="355"/>
			<point x="195" y="436"/>
		</contour>
	</outline>
</glyph>
